<?xml version="1.0" encoding="UTF-8" standalone="no"?>
<svg width="220px" height="118px" viewBox="0 0 220 118" version="1.1" xmlns="http://www.w3.org/2000/svg" xmlns:xlink="http://www.w3.org/1999/xlink">
    <!-- Generator: Sketch 48.1 (47250) - http://www.bohemiancoding.com/sketch -->
    <title>logos/technologies/amazon</title>
    <desc>Created with Sketch.</desc>
    <defs></defs>
    <g id="Symbols" stroke="none" stroke-width="1" fill="none" fill-rule="evenodd">
        <g id="logos/technologies/amazon">
            <g id="AmazonWebservices_Logo" transform="translate(53.000000, 37.000000)">
                <g id="g10" transform="translate(57.372549, 21.654901) scale(-1, 1) rotate(-180.000000) translate(-57.372549, -21.654901) translate(0.000000, 0.086273)">
                    <g id="g12">
                        <polyline id="path14" fill="#F68D11" fill-rule="nonzero" points="31.672777 28.2539117 25.0499992 30.4844837 25.0499992 40.1502956 31.6808814 38.1675649 31.672777 28.2539117"></polyline>
                        <polyline id="path16" fill="#F68D11" fill-rule="nonzero" points="33.399999 38.1675649 40.0308811 40.1502956 40.0077958 30.4911754 33.399999 28.2539117 33.399999 38.1675649"></polyline>
                        <polyline id="path18" fill="#F68D11" fill-rule="nonzero" points="38.6801459 41.1969295 32.5001637 43.1243916 26.4007345 41.1969295 32.5090049 39.5445714 38.6801459 41.1969295"></polyline>
                        <polyline id="path20" fill="#F68D11" fill-rule="nonzero" points="48.3727765 28.2539117 41.7499987 30.4844837 41.7499987 40.1502956 48.3808809 38.1675649 48.3727765 28.2539117"></polyline>
                        <polyline id="path22" fill="#F68D11" fill-rule="nonzero" points="50.0999985 38.1675649 56.7308806 40.1502956 56.7077953 30.4911754 50.0999985 28.2539117 50.0999985 38.1675649"></polyline>
                        <polyline id="path24" fill="#F68D11" fill-rule="nonzero" points="55.3801454 41.1969295 49.2001632 43.1243916 43.100734 41.1969295 49.2090044 39.5445714 55.3801454 41.1969295"></polyline>
                        <polyline id="path26" fill="#F68D11" fill-rule="nonzero" points="6.63088215 24.0406091 0 26.0233397 0 16.3575278 6.62282686 14.1269559 6.63088215 24.0406091"></polyline>
                        <polyline id="path28" fill="#F68D11" fill-rule="nonzero" points="8.34999975 24.0406091 14.9808819 26.0233397 14.9578703 16.3640213 8.34999975 14.1269559 8.34999975 24.0406091"></polyline>
                        <polyline id="path30" fill="#F68D11" fill-rule="nonzero" points="13.6301466 27.0699737 7.45013992 28.9974357 1.35073525 27.0699737 7.45907933 25.4176155 13.6301466 27.0699737"></polyline>
                        <polyline id="path32" fill="#F68D11" fill-rule="nonzero" points="23.3228263 14.1269559 16.6999995 16.3575278 16.6999995 26.0233397 23.3308816 24.0406091 23.3228263 14.1269559"></polyline>
                        <polyline id="path34" fill="#F68D11" fill-rule="nonzero" points="25.0499992 24.0406091 31.6808814 26.0233397 31.6577961 16.3640213 25.0499992 14.1269559 25.0499992 24.0406091"></polyline>
                        <polyline id="path36" fill="#F68D11" fill-rule="nonzero" points="30.3301461 27.0699737 24.1501394 28.9974357 18.0507347 27.0699737 24.1590788 25.4176155 30.3301461 27.0699737"></polyline>
                        <polyline id="path38" fill="#F68D11" fill-rule="nonzero" points="14.9728266 0 8.34999975 2.23057198 8.34999975 11.8963839 14.9808819 9.91365323 14.9728266 0"></polyline>
                        <polyline id="path40" fill="#F68D11" fill-rule="nonzero" points="16.6999995 9.91365323 23.3308816 11.8963839 23.30787 2.23705799 16.6999995 0 16.6999995 9.91365323"></polyline>
                        <polyline id="path42" fill="#F68D11" fill-rule="nonzero" points="21.9801464 12.9430178 15.8001397 14.8704798 9.700735 12.9430178 15.8090791 11.2906349 21.9801464 12.9430178"></polyline>
                        <path d="M44.3016604,8.54432988 L43.8144134,8.54259499 C43.6356251,8.54259499 43.4077193,8.42070662 43.3517252,8.22310273 L41.8735296,2.96760253 L40.4115429,8.21167725 C40.3675826,8.3760704 40.21409,8.54259499 40.00534,8.54259499 L39.4284532,8.54259499 C39.2206856,8.54259499 39.0691576,8.37383983 39.027162,8.20828182 L37.6670944,3.01873219 L36.2618386,8.22436672 C36.2063357,8.41470886 35.9727813,8.54259499 35.7895724,8.54259499 L35.088418,8.5438342 C34.9386092,8.5438342 34.7993607,8.47887498 34.7247019,8.37433551 C34.6741107,8.30345289 34.6601122,8.22310273 34.6834431,8.15321148 L36.854443,0.396836104 C36.9023327,0.233706692 37.042318,0.0694149043 37.2471386,0.0694149043 L37.9443636,0.0694149043 C38.1327297,0.0694149043 38.297765,0.207954491 38.3454091,0.404484487 L39.6816547,5.57120049 L41.1357826,0.398578428 C41.1794973,0.240193195 41.3202193,0.0694149043 41.5260223,0.0694149043 L42.2119502,0.0694149043 C42.4027722,0.0694149043 42.5633869,0.20321056 42.6105399,0.399257513 L44.7002501,8.15001432 C44.7248089,8.22466413 44.7105648,8.30761663 44.6607104,8.37753266 C44.5872795,8.48043638 44.4497501,8.54432988 44.3016604,8.54432988" id="path44" fill="#100F0D" fill-rule="nonzero"></path>
                        <path d="M50.3303602,5.25123733 L46.647028,5.25123733 C46.7317559,6.29440149 47.4029486,7.37598106 48.5400221,7.41761841 C49.7500352,7.37774074 50.3035911,6.32092052 50.3303602,5.25123733 Z M48.5373206,8.59979677 C46.0492662,8.59979677 44.9161222,6.37998111 44.9161222,4.31766861 C44.9161222,1.74379673 46.3248162,0.0808389026 48.5049029,0.0808389026 C50.0651249,0.0808389026 51.2545087,0.876352075 51.7682793,2.26629583 C51.7957852,2.34577854 51.7871896,2.43203972 51.7442117,2.50939347 C51.6919014,2.60330055 51.5926837,2.67415839 51.4752925,2.70020652 L50.7846985,2.83352037 C50.5992793,2.86286478 50.3868455,2.75200535 50.3166073,2.5912059 C49.9811338,1.8189224 49.3696191,1.38074636 48.6021559,1.35790035 C47.8636721,1.38094215 47.185603,1.82366608 46.8749339,2.48510502 C46.6224692,3.02539913 46.5851398,3.55798536 46.5809648,4.09954345 L51.5813867,4.10127834 C51.6862528,4.10127834 51.7948028,4.14784773 51.8714264,4.22619037 C51.9355249,4.29114959 51.9703984,4.37187151 51.9696617,4.45271735 C51.9573822,6.45772893 51.0494426,8.59979677 48.5373206,8.59979677 Z" id="path46" fill="#100F0D" fill-rule="nonzero"></path>
                        <path d="M58.1214012,4.30527654 C58.1214012,3.83041255 58.0361821,1.45926249 56.3669189,1.39856119 C55.8074689,1.42015065 55.2421248,1.75202507 54.9262983,2.24267407 C54.6937263,2.61375946 54.557916,3.12676623 54.5230425,3.76148788 L54.5230425,5.15656194 C54.5503028,6.22527855 55.295663,7.39806373 56.3615159,7.44346826 C58.0364276,7.37677415 58.1214012,4.81781241 58.1214012,4.30527654 Z M56.6287159,8.67174511 L56.4963439,8.67174511 C55.6704307,8.67174511 55.021341,8.32553555 54.5230425,7.61589147 L54.5223057,10.8856621 C54.5223057,11.0693126 54.3344307,11.2366055 54.1269086,11.2366055 L53.4078263,11.2366055 C53.2199513,11.2366055 53.0097278,11.0864384 53.0092366,10.8856621 L53.0092366,0.678562301 C53.0099734,0.493164594 53.1978484,0.324711798 53.4051248,0.324711798 L53.6163307,0.325871695 C53.8157484,0.325871695 53.9576984,0.488034278 54.0055881,0.638674717 L54.2305469,1.3591569 C54.7531586,0.610212619 55.5402689,0.170294009 56.3826365,0.170294009 L56.5115703,0.170294009 C58.73046,0.170294009 59.7236188,2.34829661 59.7236188,4.50674676 C59.7236188,5.58116371 59.461085,6.60846603 59.0035541,7.32517359 C58.4748026,8.15571467 57.5646527,8.67174511 56.6287159,8.67174511 Z" id="path48" fill="#100F0D" fill-rule="nonzero"></path>
                        <path d="M67.5974229,4.53500067 C67.129823,4.87404761 66.5676715,4.9873111 66.0045377,5.10079765 L64.9246863,5.3028379 C64.1498554,5.4313932 63.7014113,5.64109175 63.7014113,6.33108201 C63.7014113,7.06047905 64.4504554,7.33930055 65.0855465,7.35662465 C65.8611142,7.3368717 66.4443862,6.98766327 66.7275494,6.37348766 C66.7948406,6.22874833 66.9439127,6.13137147 67.0988788,6.13137147 C67.1254024,6.13137147 67.1524171,6.13437035 67.1779582,6.13997156 L67.8518523,6.29023776 C67.9618759,6.31472448 68.0645318,6.39081177 68.1195435,6.48977482 C68.1635038,6.56829095 68.1730817,6.65404405 68.1468038,6.73062702 C67.7344612,7.94281897 66.6875186,8.58343924 65.1037201,8.58343924 C63.6726775,8.58024209 62.1433996,7.9380852 62.1433996,6.14453184 C62.1433996,4.91868384 62.9066878,4.14021422 64.4136172,3.83041255 L65.6224024,3.59796217 C66.2859818,3.46977863 66.9645421,3.24178939 66.9645421,2.52275212 C66.9645421,1.45829343 65.7370921,1.34976619 65.3660083,1.34202115 C64.5334642,1.36012596 63.5908966,1.73488932 63.3620084,2.52847726 C63.3160834,2.70293277 63.0984922,2.82635775 62.9076701,2.78628181 L62.2028319,2.63951017 C62.0967378,2.61695661 61.9997305,2.54733798 61.9432452,2.4533392 C61.8958466,2.37501638 61.8823393,2.28730534 61.9041966,2.20724019 C62.2679128,0.890486466 63.5275348,0.0964258917 65.2736671,0.0830655091 L65.3124701,0.082775039 C66.8719553,0.082775039 68.5382714,0.756691802 68.5382714,2.64716847 C68.5382714,3.4167158 68.1951847,4.10477291 67.5974229,4.53500067" id="path50" fill="#100F0D" fill-rule="nonzero"></path>
                        <path d="M74.726358,5.24357904 L71.0420434,5.24357904 C71.1262802,6.28770978 71.7974728,7.36978503 72.9345463,7.40948921 C74.1440683,7.37075161 74.698361,6.31405531 74.726358,5.24357904 Z M72.9325816,8.59263416 C70.4440361,8.59263416 69.3106464,6.37271936 69.3106464,4.31050599 C69.3106464,1.73682496 70.7195861,0.0740619292 72.8999184,0.0740619292 C74.460386,0.0740619292 75.6497698,0.869670273 76.1640315,2.25932653 C76.1912918,2.3389059 76.1826962,2.42536039 76.1394727,2.50290003 C76.0871624,2.59690625 75.9876992,2.66778887 75.8705536,2.69334131 L75.1789771,2.82665516 C75.0171345,2.85317418 74.7914389,2.76866029 74.7118683,2.58404328 C74.3761492,1.81224307 73.7643889,1.37406704 72.9976625,1.35025196 C72.2584419,1.37406704 71.5806184,1.81669678 71.2711772,2.47793002 C71.0182214,3.01697252 70.9806464,3.55002965 70.9769625,4.09287652 L75.9768933,4.09411573 C76.0810227,4.09411573 76.1888359,4.14041249 76.2654594,4.21823467 C76.3298036,4.28349129 76.3646771,4.36423799 76.3639403,4.44555474 C76.3523977,6.45036804 75.4451948,8.59263416 72.9325816,8.59263416 Z" id="path52" fill="#100F0D" fill-rule="nonzero"></path>
                        <path d="M81.0856196,8.49825618 C80.9881211,8.50908684 80.8943064,8.51431629 80.8031931,8.51431629 C79.9640182,8.51431629 79.2825108,8.05387667 78.8095079,7.17423822 L78.811227,7.94457864 C78.8104902,8.13112881 78.6260535,8.29502629 78.4165667,8.29502629 L77.7920359,8.29502629 C77.5872153,8.29502629 77.4064623,8.13045964 77.4049888,7.94157976 L77.4040065,0.458506462 C77.4040065,0.270689823 77.5847594,0.1058166 77.7910535,0.1058166 L78.5197138,0.10610707 C78.7093079,0.10610707 78.9227241,0.256262979 78.9244432,0.458506462 L78.9249344,4.23112242 C78.9249344,4.85322894 78.982402,5.3218969 79.2768623,5.87636752 C79.6975549,6.66616349 80.285002,7.05361384 81.072849,7.05980988 C81.2703019,7.06124736 81.4436872,7.23523197 81.4436872,7.43224104 L81.4436872,8.13219453 C81.4436872,8.31537406 81.2862652,8.47617351 81.0856196,8.49825618" id="path54" fill="#100F0D" fill-rule="nonzero"></path>
                        <path d="M88.7359385,8.6452013 L88.1605253,8.64492868 C87.9802635,8.64492868 87.749165,8.51431629 87.6931709,8.32273495 L85.8279283,2.40657898 L83.923146,8.31681154 C83.8669063,8.5130523 83.6353166,8.64492868 83.4540725,8.64492868 L82.6323342,8.64569698 C82.4815431,8.64569698 82.3356637,8.57783803 82.2610048,8.47297636 C82.2109048,8.4027877 82.1971519,8.32320584 82.2219563,8.24895258 L84.8288754,0.444662045 C84.8789754,0.290244504 85.0118386,0.109786026 85.2220621,0.109786026 L86.2164488,0.109786026 C86.3989209,0.109786026 86.5484841,0.235158794 86.6170032,0.445341131 L89.1455796,8.2464246 C89.1708752,8.32050437 89.1573679,8.40035885 89.1075135,8.47074579 C89.0323635,8.57657404 88.8867296,8.6452013 88.7359385,8.6452013" id="path56" fill="#100F0D" fill-rule="nonzero"></path>
                        <path d="M90.6264767,11.645048 C90.0964973,11.645048 89.6654899,11.2089216 89.6654899,10.6722708 C89.6654899,10.1357438 90.0964973,9.69979095 90.6264767,9.69979095 C91.1567016,9.69979095 91.5882002,10.1357438 91.5882002,10.6722708 C91.5882002,11.2089216 91.1567016,11.645048 90.6264767,11.645048" id="path58" fill="#100F0D" fill-rule="nonzero"></path>
                        <path d="M91.0221193,8.69273727 L90.2330443,8.69353036 C90.0184002,8.69353036 89.822912,8.51828176 89.822912,8.32620472 L89.8189826,0.380669414 C89.8189826,0.28453424 89.8681002,0.189075921 89.9530737,0.118208666 C90.0309252,0.053828163 90.1303884,0.0166518394 90.2303428,0.0166518394 L91.0250663,0.0153932764 L91.0255575,0.0153932764 C91.2433943,0.0173295367 91.4347075,0.187817382 91.4347075,0.380183645 L91.4347075,8.32620472 C91.4347075,8.52147891 91.2416752,8.69273727 91.0221193,8.69273727" id="path60" fill="#100F0D" fill-rule="nonzero"></path>
                        <path d="M98.396397,3.30471631 L97.7374838,3.30218832 C97.5535382,3.30218832 97.3993088,3.19065972 97.3307897,2.99694694 C97.0901132,1.9490391 96.5449074,1.40601626 95.7182574,1.38200539 C94.108181,1.43031463 93.9831765,3.6950664 93.9831765,4.38805555 C93.9831765,5.76996924 94.4574074,7.26125531 95.7813736,7.30066208 C96.5805176,7.27587795 97.161825,6.69761456 97.3361926,5.7553466 C97.3691014,5.5630713 97.515472,5.41756365 97.7153808,5.39228383 L98.4204646,5.38531949 C98.6311793,5.40836874 98.7964602,5.56926733 98.7949867,5.76880438 C98.5454691,7.47164782 97.3762235,8.57231117 95.8135456,8.57231117 L95.7595162,8.5708489 L95.6983647,8.57231117 C93.4256913,8.57231117 92.4082192,6.43177994 92.4082192,4.31050599 C92.4082192,2.36562568 93.2660589,0.0946830715 95.6855941,0.0946830715 L95.8015118,0.0946830715 C97.3251412,0.0946830715 98.4752308,1.17250264 98.8045646,2.92006656 C98.8119323,3.00334125 98.7834441,3.08659115 98.7249941,3.15427662 C98.6493529,3.24198766 98.5287691,3.29822286 98.396397,3.30471631" id="path62" fill="#100F0D" fill-rule="nonzero"></path>
                        <path d="M104.903994,5.24357904 L101.219188,5.24357904 C101.303425,6.28800719 101.974863,7.36978503 103.112673,7.40948921 C104.322441,7.37075161 104.876488,6.31405531 104.903994,5.24357904 Z M103.110217,8.59263416 C100.621918,8.59263416 99.4887734,6.37271936 99.4887734,4.31050599 C99.4887734,1.73682496 100.897713,0.0740619292 103.078045,0.0740619292 C104.637776,0.0740619292 105.826669,0.869186982 106.341422,2.25903408 C106.368191,2.33909922 106.35935,2.42584368 106.316372,2.50290003 C106.263325,2.5976002 106.166809,2.66682229 106.047698,2.69334131 L105.357104,2.82665516 C105.194525,2.85317418 104.969566,2.76866029 104.889995,2.58404328 C104.553294,1.81224307 103.941288,1.37406704 103.174807,1.34996199 C102.435832,1.37406704 101.758254,1.81669678 101.448813,2.47793002 C101.195612,3.01776561 101.158037,3.55082275 101.154107,4.09287652 L106.154529,4.09364483 C106.259641,4.09364483 106.368191,4.14041249 106.44506,4.21900297 C106.508913,4.28465614 106.543295,4.36550199 106.542067,4.44555474 C106.530525,6.45036804 105.623076,8.59263416 103.110217,8.59263416 Z" id="path64" fill="#100F0D" fill-rule="nonzero"></path>
                        <path d="M112.806286,4.53500067 C112.33795,4.87434502 111.775061,4.98750937 111.21291,5.10079765 L110.133058,5.3028379 C109.358964,5.4313932 108.910766,5.64109175 108.910766,6.33108201 C108.910766,7.27191249 110.067732,7.35052776 110.293428,7.35662465 C111.069732,7.3368717 111.653004,6.98766327 111.935676,6.37319025 C112.003458,6.2284757 112.153022,6.13137147 112.308233,6.13137147 C112.335002,6.13137147 112.361772,6.13437035 112.387804,6.13997156 L113.061207,6.29023776 C113.17123,6.31472448 113.273641,6.39110918 113.328652,6.4899483 C113.372367,6.56856357 113.381945,6.65404405 113.355667,6.73062702 C112.943816,7.94281897 111.896627,8.58343924 110.312092,8.58343924 C108.881541,8.58024209 107.352754,7.9380852 107.352754,6.14453184 C107.352754,4.91838643 108.115797,4.13991681 109.62248,3.83041255 L110.831757,3.59796217 C111.495336,3.46977863 112.173897,3.24178939 112.173897,2.52275212 C112.173897,1.45829343 110.946447,1.34976619 110.575363,1.34202115 C109.803479,1.35867361 108.815478,1.68038405 108.571608,2.52748589 C108.526911,2.70293277 108.309566,2.82615948 108.115306,2.78628181 L107.411695,2.63951017 C107.30511,2.6166592 107.207857,2.54656967 107.151372,2.45237014 C107.104464,2.37385649 107.090957,2.28681957 107.11306,2.20724019 C107.475794,0.890486466 108.73517,0.0964258917 110.481548,0.0830655091 L110.520351,0.082775039 C112.080082,0.082775039 113.746644,0.756691802 113.746644,2.64716847 C113.746644,3.41721149 113.403802,4.10544208 112.806286,4.53500067" id="path66" fill="#100F0D" fill-rule="nonzero"></path>
                        <path d="M80.7285343,23.9905451 L80.7285343,25.79483 C80.7295167,26.0684469 80.9353196,26.2520973 81.1823814,26.2518494 L89.1922414,26.2520973 C89.4478987,26.2520973 89.6541929,26.0639857 89.6541929,25.7968128 L89.6541929,24.2495393 C89.651737,23.9905451 89.4348826,23.6518947 89.0507826,23.1141038 L84.9020606,17.1359975 C86.4414077,17.1728762 88.0711311,16.9402524 89.4700017,16.1465653 C89.7860737,15.9676734 89.8700649,15.7022106 89.8958517,15.4430429 L89.8958517,13.5178114 C89.8958517,13.2523486 89.6080223,12.9455458 89.3059488,13.1053787 C86.8404885,14.4089745 83.5685166,14.551285 80.8417505,13.0902851 C80.563499,12.9403163 80.2717402,13.2423854 80.2717402,13.5078482 L80.2717402,15.3372146 C80.2717402,15.6290974 80.2776343,16.1305052 80.5696387,16.5770905 L85.3770283,23.5360289 L81.1919593,23.5369955 C80.9358108,23.5369955 80.7309902,23.7209433 80.7285343,23.9905451" id="path68" fill="#100F0D"></path>
                        <path d="M51.5109028,12.7256858 L49.0734397,12.7256858 C48.84185,12.7409776 48.6564309,12.9172671 48.6380118,13.142084 L48.6397309,25.7640977 C48.6397309,26.016648 48.8504456,26.2183909 49.1097867,26.2183909 L51.3792676,26.2196301 C51.616997,26.2062466 51.8070822,26.0253225 51.8232911,25.7958214 L51.8232911,24.1466108 L51.8684793,24.1466108 C52.4593646,25.7410485 53.5740895,26.4835811 55.0751248,26.4835811 C56.5989997,26.4835811 57.5545835,25.7410485 58.2370732,24.1466108 C58.8289409,25.7410485 60.1705893,26.4835811 61.6048246,26.4835811 C62.6284363,26.4835811 63.7416878,26.0592767 64.4241774,25.1036006 C65.1975348,24.0406091 65.038148,22.5010931 65.038148,21.1458967 L65.0366745,13.180425 C65.0366745,12.9285935 64.8262054,12.7256858 64.5671098,12.7256858 L62.1333305,12.7256858 C61.8882334,12.7409776 61.6954467,12.9382841 61.6954467,13.1792602 L61.6954467,19.8711744 C61.6954467,20.4020753 61.7403893,21.7306535 61.6269275,22.2348619 C61.4444555,23.0855525 60.8982673,23.3232324 60.1941658,23.3232324 C59.6020526,23.3232324 58.9875909,22.9248274 58.7373364,22.2887674 C58.4873276,21.6503034 58.5104129,20.5879563 58.5104129,19.8711744 L58.5104129,13.180425 C58.5104129,12.9285935 58.2999438,12.7256858 58.0403571,12.7256858 L55.6060865,12.7256858 C55.3622174,12.7409776 55.1689395,12.9382841 55.1689395,13.1792602 L55.1657468,19.8711744 C55.1657468,21.2790123 55.3938983,23.3498505 53.6654484,23.3498505 C51.9139131,23.3498505 51.9821867,21.3317777 51.9821867,19.8711744 L51.9807131,13.180425 C51.9816955,12.9285935 51.7709808,12.7256858 51.5109028,12.7256858" id="path70" fill="#100F0D"></path>
                        <path d="M96.5724132,23.9081627 C94.7744618,23.9081627 94.6612456,21.4382751 94.6612456,19.8971977 C94.6612456,18.3570126 94.6386515,15.0638209 96.5503103,15.0638209 C98.4386382,15.0638209 98.5292602,17.7198868 98.5292602,19.3398521 C98.5292602,20.4020753 98.4843176,21.6766241 98.1657897,22.6860075 C97.8919588,23.5628454 97.3465073,23.9081627 96.5724132,23.9081627 Z M96.5503103,26.4835811 C100.166843,26.4835811 102.123444,23.3498505 102.123444,19.3672634 C102.123444,15.5151647 99.9615308,12.4605203 96.5503103,12.4605203 C93.0013148,12.4605203 91.0673075,15.5951183 91.0673075,19.4994124 C91.0673075,23.4302007 93.0231722,26.4835811 96.5503103,26.4835811 Z" id="path72" fill="#100F0D"></path>
                        <path d="M106.814179,12.7256858 L104.386048,12.7256858 C104.141442,12.7409776 103.948656,12.9382841 103.948656,13.1792602 L103.945217,25.8069743 C103.965356,26.036971 104.16772,26.2183909 104.412326,26.2183909 L106.673457,26.2196301 C106.886628,26.2077337 107.061486,26.0615073 107.106184,25.8659605 L107.106184,23.9346074 L107.152354,23.9346074 C107.833861,25.6612436 108.789936,26.4835811 110.472461,26.4835811 C111.564592,26.4835811 112.634375,26.0862914 113.316373,24.9970288 C113.952938,23.9881411 113.952938,22.2887674 113.952938,21.0668105 L113.952938,13.1236941 C113.925677,12.8998439 113.727979,12.7256858 113.487302,12.7256858 L111.043208,12.7256858 C110.817758,12.7405067 110.636514,12.9085679 110.609254,13.1236941 L110.609254,19.9773744 C110.609254,21.3583959 110.768886,23.3774353 109.084888,23.3774353 C108.493757,23.3774353 107.948551,22.9780885 107.675211,22.3679775 C107.333598,21.5980089 107.28841,20.8278667 107.28841,19.9773744 L107.28841,13.180425 C107.284235,12.9285935 107.07352,12.7256858 106.814179,12.7256858" id="path74" fill="#100F0D"></path>
                        <path d="M76.800105,12.7576325 C76.638508,12.6121249 76.4071638,12.6024343 76.2249374,12.7004059 C75.4157242,13.3792681 75.2703359,13.6940018 74.8280315,14.3396533 C73.4903125,12.9646296 72.5430787,12.5521968 70.8109449,12.5521968 C68.7585641,12.5521968 67.163223,13.8300419 67.163223,16.3853108 C67.163223,18.3811027 68.2342332,19.738728 69.7615464,20.4046033 C71.0837934,20.9903267 72.9306169,21.0969976 74.3437316,21.257227 L74.3437316,21.5762236 C74.3437316,22.1614761 74.3891654,22.8538704 74.0468154,23.3593428 C73.7513728,23.8118515 73.1813625,23.9977325 72.6791346,23.9977325 C71.7495831,23.9977325 70.9236699,23.516846 70.7203228,22.5206478 C70.679064,22.2994246 70.5179581,22.0796637 70.2971743,22.0690065 L67.9358435,22.3272076 C67.7359347,22.372513 67.5146597,22.5334364 67.5723729,22.8406109 C68.1151229,25.7328697 70.7026405,26.6067582 73.0217301,26.6067582 C74.2064477,26.6067582 75.7573374,26.2875386 76.6920462,25.3826699 C77.8770094,24.2642363 77.7628109,22.7738177 77.7628109,21.1499613 L77.7628109,17.3186813 C77.7628109,16.1662191 78.2375329,15.660375 78.6837667,15.039235 C78.8382417,14.8152112 78.8731152,14.5497484 78.67468,14.3854544 C78.1771182,13.964595 77.292755,13.1900908 76.8067359,12.7522048 L76.800105,12.7576325 Z M74.3437316,18.7544261 C74.3437316,17.7959741 74.3663257,16.9966858 73.8874286,16.1455987 C73.4998904,15.452907 72.8839551,15.027413 72.1999919,15.027413 C71.2662655,15.027413 70.7193405,15.7458554 70.7193405,16.8111023 C70.7193405,18.9051632 72.5813904,19.2864175 74.3437316,19.2864175 L74.3437316,18.7544261 Z" id="path76" fill="#100F0D"></path>
                        <path d="M44.8554619,12.7576325 C44.694356,12.6121249 44.4612928,12.6024343 44.2790663,12.7004059 C43.4698531,13.3792681 43.324956,13.6940018 42.8821605,14.3396533 C41.5451781,12.9646296 40.5974532,12.5521968 38.8643371,12.5521968 C36.812693,12.5521968 35.2168607,13.8300419 35.2168607,16.3853108 C35.2168607,18.3811027 36.2888533,19.738728 37.8161665,20.4046033 C39.1386591,20.9903267 40.985237,21.0969976 42.3983516,21.257227 L42.3983516,21.5762236 C42.3983516,22.1614761 42.4442766,22.8538704 42.1019267,23.3593428 C41.8057473,23.8118515 41.2352458,23.9977325 40.7344914,23.9977325 C39.80494,23.9977325 38.9780444,23.516846 38.7754341,22.5206478 C38.7331929,22.2994246 38.5728238,22.0796637 38.3522856,22.0690065 L35.9899724,22.3272076 C35.7905548,22.372513 35.5690342,22.5334364 35.6262563,22.8406109 C36.1690063,25.7328697 38.7567694,26.6067582 41.0756135,26.6067582 C42.2618046,26.6067582 43.8114663,26.2875386 44.7464207,25.3826699 C45.9318751,24.2642363 45.817431,22.7738177 45.817431,21.1499613 L45.817431,17.3186813 C45.817431,16.1662191 46.2923986,15.660375 46.7374045,15.039235 C46.8926162,14.8152112 46.9277353,14.5497484 46.7297912,14.3854544 C46.2317383,13.964595 45.3468839,13.1900908 44.8611104,12.7522048 L44.8554619,12.7576325 Z M42.3983516,18.7544261 C42.3983516,17.7959741 42.4207002,16.9966858 41.9427855,16.1455987 C41.5554929,15.452907 40.9390664,15.027413 40.2560855,15.027413 C39.3203944,15.027413 38.773715,15.7458554 38.773715,16.8111023 C38.773715,18.9051632 40.6352738,19.2864175 42.3983516,19.2864175 L42.3983516,18.7544261 Z" id="path78" fill="#100F0D"></path>
                    </g>
                </g>
            </g>
        </g>
    </g>
</svg>