<?xml version="1.0" encoding="UTF-8" standalone="no"?>
<svg width="220px" height="118px" viewBox="0 0 220 118" version="1.1" xmlns="http://www.w3.org/2000/svg" xmlns:xlink="http://www.w3.org/1999/xlink">
    <!-- Generator: Sketch 48.1 (47250) - http://www.bohemiancoding.com/sketch -->
    <title>logos/technologies/android</title>
    <desc>Created with Sketch.</desc>
    <defs>
        <polygon id="path-1" points="14.069619 0.149377203 0.0205196193 0.149377203 0.0205196193 12.1541716 28.1187184 12.1541716 28.1187184 0.149377203"></polygon>
        <polygon id="path-3" points="0.0206434483 0.152338425 0.0206434483 12.1541716 90.1179413 12.1541716 90.1179413 6.15325499 90.1179413 0.152338425"></polygon>
        <polygon id="path-5" points="17.9415888 12.1541716 0.311686957 12.1541716 0.311686957 0.250716804 17.9415888 0.250716804"></polygon>
    </defs>
    <g id="Symbols" stroke="none" stroke-width="1" fill="none" fill-rule="evenodd">
        <g id="logos/technologies/android">
            <g id="Group" transform="translate(43.000000, 40.000000)">
                <g id="android" transform="translate(44.509116, 12.913043)">
                    <g id="Group-4">
                        <mask id="mask-2" fill="white">
                            <use xlink:href="#path-1"></use>
                        </mask>
                        <g id="Clip-2"></g>
                        <path d="M13.2645659,12.1676616 L13.2645659,0.584347826 L6.50848126,0.584347826 C2.91412794,0.584347826 0,3.17706228 0,6.37682726 C0,9.57494712 2.91412794,12.1676616 6.50848126,12.1676616 L8.57822687,12.1676616 L8.57822687,9.64996475 L6.51771509,9.64996475 C4.42744987,9.64996475 2.72568944,8.23450059 2.72568944,6.37682726 C2.72568944,4.51750881 4.38641063,3.10204465 6.47530788,3.10204465 L10.6667821,3.10204465 L10.6667821,12.1676616 L13.2645659,12.1676616" id="Fill-1" fill="#000000" mask="url(#mask-2)"></path>
                        <path d="M21.8698103,0.149377203 C18.4187523,0.149377203 15.6212442,2.43346651 15.6212442,5.89678026 L15.6212442,12.1673325 L18.1622571,12.1673325 L18.1622571,5.7572738 C18.1622571,3.52648649 20.1434263,2.23967098 21.8698103,2.23967098 C23.5948263,2.23967098 25.5417962,3.52648649 25.5417962,5.7572738 L25.5404282,12.1673325 L28.1187184,12.1673325 L28.1187184,5.89678026 C28.1187184,2.43346651 25.3212103,0.149377203 21.8698103,0.149377203" id="Fill-3" fill="#000000" mask="url(#mask-2)"></path>
                    </g>
                    <path d="M42.1946227,6.39725972 C42.1946227,3.09366386 39.9027442,0.737812912 36.4509016,0.737812912 L30.7215475,0.737812912 L30.7215475,3.2291025 L36.5894405,3.2291025 C38.8132468,3.2291025 39.7323926,4.71143935 39.7323926,6.36307449 C39.7323926,8.01405848 38.7790396,9.70834377 36.5548913,9.70834377 L30.6869983,9.70704148 L30.6869983,12.173913 L36.4163524,12.173913 C39.8671688,12.173913 42.1946227,9.70020443 42.1946227,6.39725972" id="Fill-5" fill="#000000"></path>
                    <g id="Group-16">
                        <mask id="mask-4" fill="white">
                            <use xlink:href="#path-3"></use>
                        </mask>
                        <g id="Clip-7"></g>
                        <path d="M90.1179413,6.30378378 C90.1179413,2.96517039 87.81138,0.584347826 84.339152,0.584347826 L78.5779097,0.584347826 L78.5779097,3.10204465 L84.4798715,3.10204465 C86.7165891,3.10204465 87.6396953,4.60009401 87.6396953,6.26923619 C87.6396953,7.93772033 86.6818393,9.64996475 84.4440895,9.64996475 L78.5428158,9.64864865 L78.5428158,12.1416686 L84.3044022,12.1416686 C87.7766302,12.1416686 90.1179413,9.64173913 90.1179413,6.30378378" id="Fill-6" fill="#000000" mask="url(#mask-4)"></path>
                        <path d="M54.400303,8.25588719 C55.5147052,7.67515864 56.0679496,6.60944771 56.0679496,4.78500588 C56.0679496,1.57438308 54.2846997,0.584347826 50.8128158,0.584347826 L45.0508853,0.584347826 L45.0508853,3.10204465 L50.9531912,3.10204465 C53.1902529,3.10204465 53.5897036,3.78378378 53.5897036,4.75078731 C53.5897036,5.71713278 53.2659455,6.54561692 51.0288839,6.54561692 L45.126922,6.54462985 L45.1231374,8.85833137 L50.885756,8.85833137 C50.9411492,8.85833137 50.9944781,8.85767333 51.0484951,8.85701528 C52.1928303,8.97579318 53.0842832,9.90561692 53.0842832,11.0345006 C53.0842832,11.3970858 53.1513744,11.7386134 52.9889793,12.039671 C52.9903555,12.0814571 53.1475898,12.1245593 53.1475898,12.1676616 L55.5274353,12.1676616 C55.5274353,12.1676616 55.9595715,9.70063455 54.400303,8.25588719" id="Fill-8" fill="#000000" mask="url(#mask-4)"></path>
                        <path d="M60.8544771,6.21001175 C60.8544771,4.23915394 62.4567528,2.63976498 64.4330189,2.63976498 C66.4099731,2.63976498 68.0122488,4.23915394 68.0122488,6.21001175 C68.0122488,8.18284371 66.4099731,9.78058754 64.4330189,9.78058754 C62.4567528,9.78058754 60.8544771,8.18284371 60.8544771,6.21001175 Z M58.4550203,6.21001175 C58.4550203,9.50420682 61.1317875,12.173913 64.4330189,12.173913 C67.7352825,12.173913 70.4117056,9.50420682 70.4117056,6.21001175 C70.4117056,2.91746181 67.7352825,0.247755582 64.4330189,0.247755582 C61.1317875,0.247755582 58.4550203,2.91746181 58.4550203,6.21001175 Z" id="Fill-9" fill="#000000" mask="url(#mask-4)"></path>
                        <polygon id="Fill-10" fill="#000000" mask="url(#mask-4)" points="73.3303451 12.1541716 75.9503428 12.1541716 75.9503428 0.584347826 73.3303451 0.584347826"></polygon>
                        <path d="M0.110442448,6.45645123 C0.110442448,3.25668625 3.04250022,0.663971798 6.6588883,0.663971798 L13.3446131,0.663971798 L13.3446131,0.587638073 L6.5481018,0.587638073 C2.93171371,0.587638073 0,3.18035253 0,6.37978848 C0,8.21311398 0.966457437,9.84474736 2.46998859,10.9058519 C1.02873184,9.84376028 0.110442448,8.24502938 0.110442448,6.45645123" id="Fill-11" fill="#4B8B54" mask="url(#mask-4)"></path>
                        <polygon id="Fill-12" fill="#4B8B54" mask="url(#mask-4)" points="10.7314966 12.1541716 10.8612665 12.1541716 10.8612665 3.1813396 10.7314966 3.1813396"></polygon>
                        <path d="M4.19440463,8.96098707 C4.86118801,9.44300823 5.72442821,9.72958872 6.66748974,9.72958872 L8.63033761,9.72958872 L8.63033761,9.65292597 L6.55704729,9.65292597 C5.66490627,9.65292597 4.84501731,9.39628672 4.19440463,8.96098707" id="Fill-13" fill="#4B8B54" mask="url(#mask-4)"></path>
                        <path d="M25.8049985,12.1706228 L25.8063747,5.83689777 C25.8063747,4.55074031 25.1540417,3.58077556 24.2705021,2.98787309 C25.0972723,3.58636898 25.6959323,4.52869565 25.6959323,5.76023502 L25.694556,12.1706228 L25.8049985,12.1706228" id="Fill-14" fill="#4B8B54" mask="url(#mask-4)"></path>
                        <path d="M15.8262996,5.97640423 C15.8262996,2.51309048 18.6410338,0.229001175 22.1129177,0.229001175 C23.5964936,0.229001175 24.957929,0.649165687 26.0331086,1.3973678 C24.9417583,0.600141011 23.5366276,0.152338425 22.0021312,0.152338425 C18.5302473,0.152338425 15.7158572,2.43675676 15.7158572,5.89974148 L15.7158572,12.1706228 L15.8262996,12.1706228 L15.8262996,5.97640423" id="Fill-15" fill="#4B8B54" mask="url(#mask-4)"></path>
                    </g>
                    <path d="M31.1811003,0.816116935 L36.9474788,0.816116935 C38.2381918,0.816116935 39.3670923,1.15430931 40.2766853,1.75374011 C39.3481568,1.10671937 38.1813853,0.737812912 36.8369643,0.737812912 L31.0705858,0.737812912 L31.0705858,3.3201581 L31.1811003,3.3201581 L31.1811003,0.816116935" id="Fill-17" fill="#4B8B54"></path>
                    <path d="M30.7974137,9.74660196 L36.6979305,9.74792384 C38.9344444,9.74792384 39.8930978,8.02815163 39.8930978,6.35200162 C39.8930978,5.27499593 39.5088797,4.27102437 38.6424111,3.68906456 C39.4314857,4.28027757 39.7826824,5.24459257 39.7826824,6.2753323 C39.7826824,7.95115184 38.824029,9.67092405 36.5875151,9.67092405 L30.6869983,9.66993264 L30.6869983,12.173913 L30.7974137,12.173913 L30.7974137,9.74660196" id="Fill-18" fill="#4B8B54"></path>
                    <path d="M78.7458609,9.74660196 L84.6463511,9.74792384 C86.8841478,9.74792384 87.8415326,8.02815163 87.8415326,6.35200162 C87.8415326,5.27466546 87.4576155,4.2706939 86.5913938,3.68906456 C87.3802128,4.27994709 87.7311048,5.24459257 87.7311048,6.2753323 C87.7311048,7.95115184 86.773376,9.67092405 84.5359233,9.67092405 L78.6354331,9.66993264 L78.6354331,12.173913 L78.7458609,12.173913 L78.7458609,9.74660196" id="Fill-19" fill="#4B8B54"></path>
                    <path d="M78.7459518,0.816116935 L84.5111687,0.816116935 C85.8019301,0.816116935 86.9308728,1.15464683 87.8415326,1.75374011 C86.9122809,1.10671937 85.7451214,0.737812912 84.4006501,0.737812912 L78.6354331,0.737812912 L78.6354331,3.3201581 L78.7459518,3.3201581 L78.7459518,0.816116935" id="Fill-20" fill="#4B8B54"></path>
                    <path d="M45.3757106,6.66628097 L51.1829933,6.66724603 C53.3840398,6.66724603 53.702247,5.85755898 53.702247,4.91244155 C53.702247,4.40321047 53.5847811,3.97600967 53.1352287,3.68906456 C53.4967664,3.97343617 53.5935826,4.37136343 53.5935826,4.83781008 C53.5935826,5.78260582 53.2750368,6.59261457 51.0739904,6.59261457 L45.2670462,6.59164951 L45.2633225,8.85375494 L45.3723254,8.85375494 L45.3757106,6.66628097" id="Fill-21" fill="#4B8B54"></path>
                    <path d="M44.9890521,0.816116935 L50.6742186,0.816116935 C52.3360417,0.816116935 53.6020148,1.05845439 54.469422,1.68049885 C53.6009963,0.998713818 52.2966604,0.737812912 50.565241,0.737812912 L44.879735,0.737812912 L44.879735,3.3201581 L44.9890521,3.3201581 L44.9890521,0.816116935" id="Fill-22" fill="#4B8B54"></path>
                    <path d="M53.1929533,12.1635626 C53.3803718,11.8478746 53.30271,11.4894048 53.30271,11.1095442 C53.30271,10.3267069 52.8529849,9.63736849 52.1678971,9.2226614 C52.7808704,9.64323373 53.1755191,10.2956556 53.1755191,11.0291559 C53.1755191,11.4093615 53.2527846,11.7674863 53.0657624,12.0831743 C53.0669511,12.1131905 53.1489714,12.1432068 53.2020667,12.173913 C53.2000855,12.1704629 53.1929533,12.1670128 53.1929533,12.1635626" id="Fill-23" fill="#4B8B54"></path>
                    <path d="M68.2785712,6.34457271 C68.2785712,5.07862393 67.6209927,3.96629516 66.6272639,3.3201581 C67.5571977,3.97562566 68.1660538,5.04996597 68.1660538,6.26692963 C68.1660538,8.26498935 66.5336747,9.88316446 64.5195775,9.88316446 C63.7827811,9.88316446 63.0982124,9.66489743 62.524759,9.2920107 C63.1202952,9.71154992 63.846576,9.96047431 64.6324455,9.96047431 C66.6461921,9.96047431 68.2785712,8.34263243 68.2785712,6.34457271" id="Fill-24" fill="#4B8B54"></path>
                    <g id="Group-28" transform="translate(58.305297, 0.000000)">
                        <mask id="mask-6" fill="white">
                            <use xlink:href="#path-5"></use>
                        </mask>
                        <g id="Clip-26"></g>
                        <path d="M0.423325666,6.28963572 C0.423325666,2.99708578 3.12033661,0.327379553 6.44730884,0.327379553 C7.67706816,0.327379553 8.81945806,0.693584019 9.77289425,1.31971798 C8.79761571,0.647520564 7.61431473,0.250716804 6.33567013,0.250716804 C3.0090446,0.250716804 0.311686957,2.92042303 0.311686957,6.21297297 C0.311686957,8.28977673 1.38508275,10.1165217 3.01112482,11.1845358 C1.44818289,10.10698 0.423325666,8.31807286 0.423325666,6.28963572" id="Fill-25" fill="#4B8B54" mask="url(#mask-6)"></path>
                        <polyline id="Fill-27" fill="#4B8B54" mask="url(#mask-6)" points="15.4127293 0.663971798 17.9415888 0.663971798 17.9415888 0.587638073 15.3014373 0.587638073 15.3014373 12.1709518 15.4127293 12.1709518 15.4127293 0.663971798"></polyline>
                    </g>
                </g>
                <g id="android_logo" fill="#ABC43E">
                    <path d="M20.7288527,5.8392381 C21.3687031,5.8392381 21.8875849,6.34742857 21.8875849,6.97409524 C21.8875849,7.6007619 21.3687031,8.10895238 20.7288527,8.10895238 C20.0893913,8.10895238 19.5705096,7.6007619 19.5705096,6.97409524 C19.5705096,6.34742857 20.0893913,5.8392381 20.7288527,5.8392381 Z M12.0202749,5.8392381 C12.6601253,5.8392381 13.179007,6.34742857 13.179007,6.97409524 C13.179007,7.6007619 12.6601253,8.10895238 12.0202749,8.10895238 C11.3804245,8.10895238 10.8615428,7.6007619 10.8615428,6.97409524 C10.8615428,6.34742857 11.3804245,5.8392381 12.0202749,5.8392381 Z M30.1212342,12.2819048 C31.365539,12.2819048 32.3834652,13.2788571 32.3834652,14.4971429 L32.3834652,23.3588571 C32.3834652,24.5775238 31.365539,25.5740952 30.1212342,25.5740952 C28.8769294,25.5740952 27.8586143,24.5775238 27.8586143,23.3588571 L27.8586143,14.4971429 C27.8586143,13.2788571 28.8769294,12.2819048 30.1212342,12.2819048 Z M2.62828237,12.2819048 C3.87219822,12.2819048 4.89012436,13.2788571 4.89012436,14.4971429 L4.89012436,23.3588571 C4.89012436,24.5775238 3.87219822,25.5740952 2.62828237,25.5740952 C1.38397756,25.5740952 0.366440393,24.5775238 0.366440393,23.3588571 L0.366440393,14.4971429 C0.366440393,13.2788571 1.38397756,12.2819048 2.62828237,12.2819048 Z M14.538446,30.1409524 L14.538446,35.0655238 C14.538446,36.2841905 13.5205199,37.2815238 12.2762151,37.2815238 C11.0322992,37.2815238 10.0143731,36.2841905 10.0143731,35.0655238 L10.0143731,30.1409524 L8.11660402,30.1409524 C7.10956896,30.1409524 6.28534829,29.3337143 6.28534829,28.3474286 L6.28534829,12.2053333 L26.4637793,12.2053333 L26.4637793,28.3474286 C26.4637793,29.3337143 25.6395587,30.1409524 24.6321346,30.1409524 L22.7347546,30.1409524 L22.7347546,35.0655238 C22.7347546,36.2841905 21.7172174,37.2815238 20.4729126,37.2815238 C19.2289967,37.2815238 18.2114596,36.2841905 18.2114596,35.0655238 L18.2114596,30.1409524 L14.538446,30.1409524 Z M16.3743693,2.83961905 C17.8975633,2.83961905 19.3402412,3.11390476 20.6347228,3.60457143 L22.5402712,0.730666667 C22.6417915,0.576380952 22.8530005,0.532571429 23.010532,0.632761905 C23.1684525,0.732952381 23.2131837,0.939809524 23.1104965,1.09409524 L21.2710725,3.86895238 C24.3147377,5.24457143 26.3879308,7.86247619 26.4470538,10.8769524 L6.3016849,10.8769524 C6.36119682,7.86247619 8.43477887,5.24457143 11.4784441,3.86895238 L9.63863114,1.09409524 C9.53633287,0.939809524 9.58106405,0.732952381 9.73859561,0.632761905 C9.89651613,0.532571429 10.1073361,0.576380952 10.2096344,0.730666667 L12.1147938,3.60457143 C13.4088864,3.11428571 14.8519532,2.83961905 16.3743693,2.83961905 Z" id="Fill-3"></path>
                </g>
            </g>
        </g>
    </g>
</svg>