<?xml version="1.0" encoding="UTF-8" standalone="no"?>
<svg width="220px" height="118px" viewBox="0 0 220 118" version="1.1" xmlns="http://www.w3.org/2000/svg" xmlns:xlink="http://www.w3.org/1999/xlink">
    <!-- Generator: Sketch 48.1 (47250) - http://www.bohemiancoding.com/sketch -->
    <title>logos/technologies/angularjs</title>
    <desc>Created with Sketch.</desc>
    <defs></defs>
    <g id="Symbols" stroke="none" stroke-width="1" fill="none" fill-rule="evenodd">
        <g id="logos/technologies/angularjs" fill-rule="nonzero">
            <g id="Group" transform="translate(45.000000, 42.000000)">
                <g id="angularjs-for-header-only">
                    <polygon id="Shape" fill="#4A4A4A" points="33.9007796 23.6271766 33.9007796 10.2795788 35.6351051 10.2795788 43.8393471 21.0319727 43.8393471 10.2795788 45.4804985 10.2795788 45.4804985 23.6271766 43.746173 23.6271766 35.5411735 12.7803328 35.5411735 23.6271766"></polygon>
                    <path d="M58.7943536,23.1042145 C57.7133829,23.5155711 56.5475707,23.7204953 55.2971065,23.7204953 C50.4406921,23.7204953 48.0119168,21.4027969 48.0119168,16.7664574 C48.0119168,12.3795335 50.3560401,10.185506 55.0442866,10.185506 C56.3881143,10.185506 57.6387679,10.3728976 58.7943536,10.7465496 L58.7943536,12.2398382 C57.6385785,11.8041622 56.4502303,11.5860414 55.2315817,11.5860414 C51.5754463,11.5860414 49.7471892,13.3132866 49.7471892,16.7664574 C49.7471892,20.4688553 51.5470395,22.3209026 55.1476871,22.3209026 C55.7222606,22.3209026 56.3604651,22.2462476 57.060975,22.095995 L57.060975,17.5599496 L58.794543,17.5599496 L58.794543,23.1042145 L58.7943536,23.1042145 Z" id="Shape" fill="#4A4A4A"></path>
                    <path d="M61.5606008,18.4744734 L61.5606008,10.2788248 L63.2941688,10.2788248 L63.2941688,18.4744734 C63.2941688,21.0380054 64.5758804,22.320337 67.1391143,22.320337 C69.7015906,22.320337 70.9836809,21.0378169 70.9836809,18.4744734 L70.9836809,10.2788248 L72.7180064,10.2788248 L72.7180064,18.4744734 C72.7180064,21.9727011 70.8583126,23.7201183 67.1391143,23.7201183 C63.4201053,23.7201183 61.5606008,21.9727011 61.5606008,18.4744734 Z" id="Shape" fill="#4A4A4A"></path>
                    <polygon id="Shape" fill="#4A4A4A" points="77.5465822 10.2788248 77.5465822 22.2266412 84.5605823 22.2266412 84.5605823 23.6264225 75.8130142 23.6264225 75.8130142 10.2788248"></polygon>
                    <polygon id="Shape" fill="#4A4A4A" points="87.0639726 23.6269881 85.2641223 23.6269881 91.930424 8.51764542 98.596347 23.6269881 96.6741584 23.6269881 94.9398329 19.4263246 90.5049744 19.4263246 90.9835331 18.0267319 94.3582525 18.0267319 91.8552409 11.9774145"></polygon>
                    <path d="M100.425172,23.6271766 L100.425172,10.2795788 L106.144962,10.2795788 C108.695697,10.2795788 109.969833,11.346429 109.969833,13.4810718 C109.969833,15.2168006 108.724103,16.5027141 106.229614,17.335419 L110.833208,23.6271766 L108.544383,23.6271766 L104.279397,17.6255555 L104.279397,16.4959273 C106.841874,16.0904149 108.123964,15.1114164 108.123964,13.5553498 C108.123964,12.3237308 107.410766,11.7076385 105.985316,11.7076385 L102.159687,11.7076385 L102.159687,23.6271766 L100.425172,23.6271766 Z" id="Shape" fill="#4A4A4A"></path>
                    <path d="M117.331342,10.2788248 L117.331342,19.7813129 C117.331342,22.3457876 115.81518,23.6264225 112.783236,23.6264225 L112.783236,22.2268297 C114.658458,22.2268297 115.596827,21.4107149 115.596827,19.7811244 L115.596827,10.2788248 L117.331342,10.2788248 Z" id="Shape" fill="#B52E31"></path>
                    <path d="M120.424835,23.1598287 L120.424835,21.5728444 C121.831536,22.0703559 123.35016,22.320337 124.982032,22.320337 C127.288279,22.320337 128.442161,21.4800912 128.442161,19.7994111 C128.442161,18.3696547 127.591474,17.6530798 125.891426,17.6530798 L124.165622,17.6530798 C121.359416,17.6530798 119.954988,16.4399361 119.954988,14.0127059 C119.954988,11.4618049 121.752565,10.185129 125.348289,10.185129 C126.910659,10.185129 128.363569,10.3732746 129.707965,10.7461726 L129.707965,12.3331569 C128.363379,11.8347028 126.910659,11.5856643 125.348289,11.5856643 C122.910045,11.5856643 121.691207,12.3949924 121.691207,14.0128944 C121.691207,15.4434049 122.515381,16.1592257 124.165622,16.1592257 L125.891426,16.1592257 C128.747249,16.1592257 130.176486,17.3731236 130.176486,19.7995996 C130.176486,22.4132787 128.44538,23.7201183 124.981842,23.7201183 C123.350349,23.7197412 121.831536,23.5325382 120.424835,23.1598287 Z" id="Shape" fill="#B52E31"></path>
                    <polygon id="Shape" fill="#B2B2B2" points="15.659304 0 0 5.48601141 2.47441546 25.9096213 15.6759692 33.1326811 28.9455098 25.8115894 31.4191678 5.38873369"></polygon>
                    <polygon id="Shape" fill="#B52E31" points="29.8573658 6.56926301 15.6229434 1.73704843 15.6229434 31.406944 27.5520651 24.8348532"></polygon>
                    <polygon id="Shape" fill="#E23237" points="1.75724025 6.65636052 3.87751849 24.9221392 15.6225646 31.406944 15.6225646 1.73648286"></polygon>
                    <path d="M18.9222902,16.4944191 L15.6486988,9.68931418 L12.7669308,16.4944191 L18.9222902,16.4944191 Z M20.1702925,19.3560056 L11.4929837,19.3560056 L9.55166789,24.1897284 L5.94079389,24.2560884 L15.6229434,2.81445582 L25.6425648,24.2560884 L22.295684,24.2558999 L20.1702925,19.3560056 Z" id="Shape" fill="#F2F2F2"></path>
                    <polygon id="Shape" fill="#B2B2B2" points="15.6229434 2.81445582 15.6486988 9.68931418 18.9188814 16.4996978 15.6301397 16.4996978 15.622754 19.3514811 20.1701031 19.3558171 22.2954946 24.256654 25.7506997 24.3205632"></polygon>
                </g>
            </g>
        </g>
    </g>
</svg>