<?xml version="1.0" encoding="UTF-8" standalone="no"?>
<svg width="220px" height="118px" viewBox="0 0 220 118" version="1.1" xmlns="http://www.w3.org/2000/svg" xmlns:xlink="http://www.w3.org/1999/xlink">
    <!-- Generator: Sketch 48.1 (47250) - http://www.bohemiancoding.com/sketch -->
    <title>logos/technologies/appium</title>
    <desc>Created with Sketch.</desc>
    <defs></defs>
    <g id="Symbols" stroke="none" stroke-width="1" fill="none" fill-rule="evenodd">
        <g id="logos/technologies/appium">
            <g id="Group" transform="translate(51.000000, 44.000000)">
                <path d="M42.474,21.336 C43.54,21.336 44.372,21.154 44.996,20.79 L44.996,17.384 C44.164,17.176 43.358,17.072 42.552,17.072 C40.68,17.072 39.744,17.8 39.744,19.256 C39.744,20.634 40.654,21.336 42.474,21.336 Z M47.57,22.116 C46.166,22.922 44.398,23.312 42.24,23.312 C40.602,23.312 39.328,22.948 38.444,22.22 C37.56,21.492 37.118,20.53 37.118,19.36 C37.118,18.06 37.586,17.072 38.522,16.37 C39.458,15.668 40.706,15.33 42.24,15.33 C43.228,15.33 44.138,15.434 44.996,15.616 L44.996,14.524 C44.996,12.652 43.982,11.716 41.954,11.716 C40.68,11.716 39.51,11.924 38.444,12.366 L37.924,10.26 C39.146,9.766 40.576,9.506 42.214,9.506 C43.982,9.506 45.308,9.948 46.218,10.832 C47.128,11.716 47.57,12.99 47.57,14.654 L47.57,22.116 Z M63.092,16.136 L63.066,16.136 C63.066,18.294 62.52,20.036 61.428,21.336 C60.336,22.636 58.776,23.286 56.748,23.286 C55.812,23.286 54.928,23.104 54.122,22.766 L54.122,27.836 L51.496,27.836 L51.496,10.676 C53.082,9.896 54.798,9.506 56.644,9.506 C58.698,9.506 60.284,10.104 61.402,11.3 C62.52,12.496 63.092,14.108 63.092,16.136 Z M54.096,20.53 L54.07,20.53 C54.876,20.92 55.63,21.102 56.332,21.102 C58.984,21.102 60.31,19.464 60.31,16.214 C60.31,14.836 59.998,13.744 59.374,12.938 C58.75,12.132 57.788,11.716 56.488,11.716 C55.682,11.716 54.876,11.898 54.096,12.262 L54.096,20.53 Z M77.938,16.136 L77.912,16.136 C77.912,18.294 77.366,20.036 76.274,21.336 C75.182,22.636 73.622,23.286 71.594,23.286 C70.658,23.286 69.774,23.104 68.968,22.766 L68.968,27.836 L66.342,27.836 L66.342,10.676 C67.928,9.896 69.644,9.506 71.49,9.506 C73.544,9.506 75.13,10.104 76.248,11.3 C77.366,12.496 77.938,14.108 77.938,16.136 Z M68.942,20.53 L68.916,20.53 C69.722,20.92 70.476,21.102 71.178,21.102 C73.83,21.102 75.156,19.464 75.156,16.214 C75.156,14.836 74.844,13.744 74.22,12.938 C73.596,12.132 72.634,11.716 71.334,11.716 C70.528,11.716 69.722,11.898 68.942,12.262 L68.942,20.53 Z M83.892,9.818 L83.892,23 L81.266,23 L81.266,9.818 L83.892,9.818 Z M82.566,7.53 L82.54,7.582 C82.02,7.582 81.63,7.426 81.344,7.14 C81.058,6.854 80.928,6.464 80.928,5.97 C80.928,5.502 81.084,5.112 81.37,4.826 C81.656,4.54 82.046,4.384 82.54,4.384 C83.034,4.384 83.424,4.514 83.71,4.8 C83.996,5.086 84.152,5.45 84.152,5.918 C84.152,6.412 84.022,6.802 83.736,7.088 C83.45,7.374 83.06,7.53 82.566,7.53 Z M98.946,22.064 C97.256,22.896 95.332,23.312 93.2,23.312 C89.638,23.312 87.87,21.622 87.87,18.216 L87.87,9.818 L90.496,9.818 L90.496,18.216 C90.496,20.14 91.406,21.102 93.252,21.102 C94.396,21.102 95.41,20.868 96.32,20.4 L96.32,9.818 L98.946,9.818 L98.946,22.064 Z M122.086,23 L119.408,23.026 L119.408,14.732 C119.408,12.73 118.472,11.742 116.574,11.742 C115.404,11.742 114.364,12.054 113.454,12.652 C113.688,13.302 113.792,14.082 113.792,14.992 L113.792,23 L111.218,23 L111.218,14.706 C111.218,12.704 110.282,11.716 108.41,11.716 C107.396,11.716 106.46,11.95 105.602,12.392 L105.602,23 L102.976,23 L102.976,10.728 C104.718,9.922 106.564,9.506 108.54,9.506 C110.126,9.506 111.374,9.896 112.284,10.702 C113.714,9.896 115.196,9.506 116.73,9.506 C118.472,9.506 119.798,9.948 120.708,10.832 C121.618,11.716 122.086,12.938 122.086,14.524 L122.086,23 Z" id="appium" fill="#662D91"></path>
                <g id="appium-seeklogo.com">
                    <g id="Shape">
                        <path d="M23.6349612,2.96186136 C20.0275964,-0.140161988 12.0457611,-1.67669895 6.06418941,2.77672518 C0.45269393,6.52369016 0.175195313,13.3725618 0.175195313,13.3725618 C1.1309718,17.1195267 4.92337478,20.7129898 12.2306821,18.9623672 C11.3673661,13.9254022 13.059428,1.1805384 23.6349612,2.96186136 Z" fill="#00ACD2" fill-rule="nonzero"></path>
                        <path d="M19.8773438,15.1439297 C15.9298828,18.4071593 3.91429688,23.3865756 0.175195312,13.3727624 C-0.718007813,18.0357196 1.760625,25.7966146 8.623125,28.7299609 C14.6866406,31.697276 21.005625,28.2607002 21.005625,28.2607002 C23.7853125,25.5626846 25.0530469,20.5722955 19.8773438,15.1439297" fill="#C8E9EB" fill-rule="nonzero"></path>
                        <path d="M12.7475391,10.5669895 C17.5583203,12.3407249 27.8421094,20.0281958 21.005625,28.260686 C25.5062109,26.6996354 30.78375,20.7269506 29.9027344,13.3402969 C29.4508594,6.62590005 23.6350781,2.96204791 23.6350781,2.96204791 C19.8996094,1.91309849 14.8791797,3.38800122 12.7475391,10.5669895" fill="#662D91" fill-rule="nonzero"></path>
                    </g>
                </g>
            </g>
        </g>
    </g>
</svg>