<?xml version="1.0" encoding="UTF-8" standalone="no"?>
<svg width="220px" height="118px" viewBox="0 0 220 118" version="1.1" xmlns="http://www.w3.org/2000/svg" xmlns:xlink="http://www.w3.org/1999/xlink">
    <!-- Generator: Sketch 48.1 (47250) - http://www.bohemiancoding.com/sketch -->
    <title>logos/technologies/backbone</title>
    <desc>Created with Sketch.</desc>
    <defs></defs>
    <g id="Symbols" stroke="none" stroke-width="1" fill="none" fill-rule="evenodd">
        <g id="logos/technologies/backbone">
            <g id="Group" transform="translate(36.000000, 45.000000)">
                <g id="Backbone.js_logo">
                    <g id="Page-1" transform="translate(0.015816, 0.044098)" stroke="#848484" stroke-width="0.5">
                        <g id="BackBone.JS">
                            <polygon id="Path" fill="#002A41" points="0 0 0 14.2582268 10.5842699 20.3079784 10.5842699 16.1956632 3.50354258 12.1484647 3.50354258 5.79148596 10.5842699 9.83868453 10.5842699 6.04975154"></polygon>
                            <polygon id="path2996" fill="#0071B5" points="21.1685398 0 21.1685398 14.2582268 10.5842699 20.3079784 10.5842699 16.1956632 17.6649973 12.1484647 17.6649973 5.79148596 10.5842699 9.83868453 10.5842699 6.04975154"></polygon>
                            <polygon id="path2998" fill="#0071B5" points="0 26.36405 0 12.1058231 10.5842699 6.05607161 10.5842699 10.1683868 3.50354258 14.2155853 3.50354258 20.2491816 10.5842699 16.2019833 10.5842699 20.3142985"></polygon>
                            <polygon id="path3000" fill="#002A41" points="21.1685398 26.36405 21.1685398 12.1058231 10.5842699 6.05607161 10.5842699 10.1683868 17.6649973 14.2155853 17.6649973 20.2491816 10.5842699 16.2019833 10.5842699 20.3142985"></polygon>
                        </g>
                    </g>
                    <g id="text3023" transform="translate(29.899106, 6.122971)" fill="#002A41" fill-rule="nonzero">
                        <path d="M0.00917176422,0.250228353 L3.86225852,0.250228353 C5.59822193,0.250244783 6.87297427,0.545704828 7.68651929,1.13662492 C8.50004481,1.72756144 8.90681306,2.62036569 8.90682289,3.81503767 C8.90681306,4.63078538 8.65858849,5.31001653 8.16214918,5.85276396 C7.6656907,6.39552783 6.94023502,6.74397451 5.98578018,6.89812043 L5.98578018,6.95592104 C7.1067856,7.12293163 7.9315311,7.47781885 8.46001932,8.02054986 C8.98848624,8.56331372 9.25272461,9.31963426 9.25273608,10.2895115 C9.25272461,11.5869693 8.82353736,12.5857633 7.96517107,13.2858769 C7.1067856,13.9859905 5.88968541,14.3360473 4.31386722,14.3360473 L0.00917176422,14.3360473 L0.00917176422,0.250228353 Z M0.989258682,6.52236715 L4.08325865,6.52236715 C5.40284536,6.52238358 6.36211237,6.30238636 6.96106279,5.86239192 C7.55999518,5.42243034 7.85946654,4.73355481 7.85947637,3.79578175 C7.85946654,2.85800869 7.52156042,2.1771674 6.84575851,1.75324147 C6.16993873,1.32933197 5.16262818,1.117369 3.82382376,1.11735257 L0.989258682,1.11735257 L0.989258682,6.52236715 Z M0.989258682,7.38949137 L0.989258682,13.4689231 L4.29464984,13.4689231 C6.89539441,13.4689395 8.19576948,12.4091247 8.19577931,10.2895115 C8.19576948,8.35616473 6.82493073,7.38949137 4.08325865,7.38949137 L0.989258682,7.38949137 Z" id="path3014"></path>
                        <path d="M19.1112585,9.36458664 L13.4036926,9.36458664 L11.4435201,14.3360473 L10.3577375,14.3360473 L16.0076501,0.19242774 L16.6322146,0.19242774 L22.1668239,14.3360473 L21.0618241,14.3360473 L19.1112585,9.36458664 Z M13.7592144,8.47820651 L18.7845626,8.47820651 L16.8724315,3.40075612 C16.7122803,3.00254308 16.5201065,2.45015126 16.29591,1.74359708 C16.1229485,2.36023006 15.9339781,2.91902957 15.7289972,3.42002847 L13.7592144,8.47820651 Z" id="path3016"></path>
                        <path d="M30.1420395,0.934289909 C28.3804394,0.934306339 26.9935865,1.49952996 25.9814743,2.62999364 C24.9693555,3.76045732 24.4632994,5.30842282 24.463301,7.27387371 C24.4632994,9.28429341 24.9405297,10.8451071 25.8949968,11.9562985 C26.8494557,13.0674898 28.2138896,13.6230855 29.9883001,13.6230855 C31.1669588,13.6230855 32.2495363,13.4721434 33.2360393,13.1702592 L33.2360393,14.037367 C32.3071896,14.3649476 31.1477416,14.5287379 29.7576918,14.5287379 C27.7847007,14.5287379 26.2312965,13.8896452 25.0974741,12.6114433 C23.9636468,11.3332578 23.396734,9.5476493 23.3967356,7.25460136 C23.396734,5.82226995 23.6673792,4.56013654 24.2086713,3.46820112 C24.7499584,2.37628214 25.5282606,1.53326068 26.5435828,0.939103888 C27.5588968,0.344996386 28.7391629,0.0479262053 30.0843878,0.0479097753 C31.4552187,0.0479262053 32.681927,0.304841554 33.7645176,0.818672251 L33.3705614,1.70506882 C32.3456241,1.19122169 31.2694517,0.934306339 30.1420395,0.934289909 Z" id="path3018"></path>
                        <polygon id="path3020" points="45.8138209 14.3360473 44.6127333 14.3360473 39.2222548 6.89812043 37.3485598 8.55527947 37.3485598 14.3360473 36.3684735 14.3360473 36.3684735 0.250228353 37.3485598 0.250228353 37.3485598 7.5725376 38.9051691 6.0117403 44.4109509 0.250228353 45.6600815 0.250228353 39.9044726 6.20443092"></polygon>
                        <path d="M47.8220414,0.250228353 L51.6751278,0.250228353 C53.4110923,0.250244783 54.6858437,0.545704828 55.4993884,1.13662492 C56.3129151,1.72756144 56.7196833,2.62036569 56.7196931,3.81503767 C56.7196833,4.63078538 56.4714587,5.31001653 55.9750194,5.85276396 C55.4785605,6.39552783 54.7531056,6.74397451 53.7986499,6.89812043 L53.7986499,6.95592104 C54.9196554,7.12293163 55.7444014,7.47781885 56.2728896,8.02054986 C56.8013565,8.56331372 57.0655949,9.31963426 57.0656063,10.2895115 C57.0655949,11.5869693 56.6364076,12.5857633 55.7780413,13.2858769 C54.9196554,13.9859905 53.7025557,14.3360473 52.1267373,14.3360473 L47.8220414,14.3360473 L47.8220414,0.250228353 Z M48.8021293,6.52236715 L51.8961291,6.52236715 C53.2157151,6.52238358 54.1749816,6.30238636 54.7739319,5.86239192 C55.3728658,5.42243034 55.6723352,4.73355481 55.672345,3.79578175 C55.6723352,2.85800869 55.3344297,2.1771674 54.6586286,1.75324147 C53.9828095,1.32933197 52.9754983,1.117369 51.6366934,1.11735257 L48.8021293,1.11735257 L48.8021293,6.52236715 Z M48.8021293,7.38949137 L48.8021293,13.4689231 L52.1075201,13.4689231 C54.7082643,13.4689395 56.0086397,12.4091247 56.0086496,10.2895115 C56.0086397,8.35616473 54.6378007,7.38949137 51.8961291,7.38949137 L48.8021293,7.38949137 Z" id="path3022"></path>
                        <path d="M71.9686925,7.27387371 C71.9686778,9.50910461 71.4113736,11.2770509 70.2967782,12.577729 C69.18216,13.8784071 67.6447695,14.5287379 65.6846052,14.5287379 C63.7308313,14.5287379 62.1966442,13.8784071 61.0820407,12.577729 C59.967429,11.2770509 59.4101265,9.50268049 59.4101265,7.25460136 C59.4101265,5.01296278 59.9722333,3.24822033 61.0964537,1.96037403 C62.2206658,0.672560581 63.7564554,0.0286538574 65.7038224,0.0286374274 C67.6639867,0.0286538574 69.1981738,0.675780854 70.3063869,1.97001842 C71.414577,3.26427241 71.9686778,5.0322187 71.9686925,7.27387371 Z M60.4766918,7.27387371 C60.4766902,9.29071752 60.9250947,10.8499211 61.8219102,11.9514845 C62.7187174,13.0530314 64.0062808,13.6038131 65.6846052,13.6038131 C67.3757268,13.6038131 68.6680945,13.0578618 69.5617131,11.9659264 C70.4553105,10.8740074 70.902114,9.30998987 70.9021271,7.27387371 C70.902114,5.24418166 70.4553105,3.68819834 69.5617131,2.60589089 C68.6680945,1.52361629 67.382132,0.982478994 65.7038224,0.982462564 C64.0319032,0.982478994 62.742739,1.5284467 61.8363231,2.62034926 C60.9299006,3.71228467 60.4766902,5.26345401 60.4766918,7.27387371 Z" id="path3024"></path>
                        <path d="M85.4016452,14.3360473 L84.4119503,14.3360473 L76.09082,1.83031443 L76.0139511,1.83031443 C76.0908167,3.32047932 76.1292528,4.44451888 76.1292544,5.20243312 L76.1292544,14.3360473 L75.1876026,14.3360473 L75.1876026,0.250228353 L76.1676905,0.250228353 L84.4792106,12.7367053 L84.5368639,12.7367053 C84.4791991,11.5805452 84.4503733,10.4822021 84.4503848,9.4416596 L84.4503848,0.250228353 L85.4016452,0.250228353 L85.4016452,14.3360473 Z" id="path3026"></path>
                        <polygon id="path3028" points="97.0473869 14.3360473 89.3700399 14.3360473 89.3700399 0.250228353 97.0473869 0.250228353 97.0473869 1.15589726 90.3501261 1.15589726 90.3501261 6.48383889 96.6726479 6.48383889 96.6726479 7.38949137 90.3501261 7.38949137 90.3501261 13.4303948 97.0473869 13.4303948"></polygon>
                        <path d="M99.8146858,13.5845408 C99.8146842,12.9550924 100.070915,12.64036 100.583381,12.64036 C101.108653,12.64036 101.37129,12.9550924 101.371294,13.5845408 C101.37129,14.2140056 101.108653,14.5287379 100.583381,14.5287379 C100.070915,14.5287379 99.8146842,14.2140056 99.8146858,13.5845408 Z" id="path3030"></path>
                        <path d="M102.630033,17.8912123 C102.040701,17.8912123 101.557064,17.8045113 101.17912,17.6310931 L101.17912,16.7832412 C101.678774,16.9116907 102.156004,16.9759318 102.610815,16.9759318 C104.161016,16.9759318 104.936118,16.1280799 104.93612,14.4323926 L104.93612,0.250228353 L105.916206,0.250228353 L105.916206,14.3360473 C105.916203,16.7061518 104.820813,17.8912123 102.630033,17.8912123 Z" id="path3032"></path>
                        <path d="M117.57156,10.703793 C117.57155,11.8792255 117.140762,12.8105745 116.279191,13.4978399 C115.417603,14.1851053 114.272569,14.5287379 112.844082,14.5287379 C111.127326,14.5287379 109.810935,14.3392512 108.894909,13.9602941 L108.894909,12.9775686 C109.907023,13.4079187 111.19779,13.6230855 112.767213,13.6230855 C113.920249,13.6230855 114.834676,13.3581359 115.510495,12.8282367 C116.186298,12.298321 116.524204,11.6030214 116.524213,10.7423377 C116.524204,10.2092182 116.412102,9.76763009 116.187909,9.41757328 C115.963698,9.06751646 115.598567,8.74797009 115.092518,8.45893416 C114.586452,8.16989823 113.84338,7.85838611 112.863299,7.52436494 C111.428398,7.02980659 110.437101,6.49507698 109.889409,5.92020897 C109.341711,5.34535738 109.067864,4.57939246 109.067866,3.62234705 C109.067864,2.56897276 109.479435,1.70989922 110.302582,1.04509359 C111.125724,0.380320809 112.184281,0.0479262053 113.478257,0.0479097753 C114.797843,0.0479262053 116.037365,0.298417438 117.196821,0.799416334 L116.841299,1.64725177 C115.675436,1.15911754 114.560829,0.915033991 113.497474,0.915017561 C112.459729,0.915033991 111.633382,1.15589726 111.01843,1.63762381 C110.403471,2.11936679 110.095994,2.77451161 110.095995,3.6030747 C110.095994,4.12336237 110.190479,4.55049215 110.379452,4.88448046 C110.56842,5.21850163 110.877499,5.51877565 111.306691,5.78531896 C111.735875,6.05189513 112.472541,6.3714415 113.516691,6.74397451 C114.612076,7.12293163 115.435219,7.49065066 115.986126,7.84713159 C116.537016,8.20361252 116.938979,8.6082661 117.192017,9.06109234 C117.445036,9.51391859 117.57155,10.0614964 117.57156,10.703793 Z" id="path3034"></path>
                    </g>
                </g>
            </g>
        </g>
    </g>
</svg>