<?xml version="1.0" encoding="UTF-8" standalone="no"?>
<svg width="220px" height="118px" viewBox="0 0 220 118" version="1.1" xmlns="http://www.w3.org/2000/svg" xmlns:xlink="http://www.w3.org/1999/xlink">
    <!-- Generator: Sketch 48.1 (47250) - http://www.bohemiancoding.com/sketch -->
    <title>logos/technologies/go</title>
    <desc>Created with Sketch.</desc>
    <defs></defs>
    <g id="Symbols" stroke="none" stroke-width="1" fill="none" fill-rule="evenodd">
        <g id="logos/technologies/go">
            <path d="M150.96,67.7360015 C152.517341,67.7360015 153.802662,67.2186734 154.816,66.1840015 C155.829338,65.1493297 156.336,63.8106764 156.336,62.1680015 C156.336,60.5253266 155.829338,59.1866734 154.816,58.1520015 C153.802662,57.1173297 152.517341,56.6000015 150.96,56.6000015 C149.402659,56.6000015 148.117338,57.1173297 147.104,58.1520015 C146.090662,59.1866734 145.584,60.5253266 145.584,62.1680015 C145.584,63.8106764 146.090662,65.1493297 147.104,66.1840015 C148.117338,67.2186734 149.402659,67.7360015 150.96,67.7360015 Z M150.96,70.9360015 C148.399987,70.9360015 146.266675,70.08801 144.56,68.3920015 C142.853325,66.695993 142,64.6213471 142,62.1680015 C142,59.7146559 142.853325,57.64001 144.56,55.9440015 C146.266675,54.247993 148.399987,53.4000015 150.96,53.4000015 C153.520013,53.4000015 155.653325,54.247993 157.36,55.9440015 C159.066675,57.64001 159.92,59.7146559 159.92,62.1680015 C159.92,64.6213471 159.066675,66.695993 157.36,68.3920015 C155.653325,70.08801 153.520013,70.9360015 150.96,70.9360015 Z" id="Go" fill="#000000"></path>
            <path d="M134.592,60.12 L138.368,60.12 L138.368,67.768 C136.255989,70.093345 133.237353,71.256 129.312,71.256 C126.005317,71.256 123.237344,70.1680109 121.008,67.992 C118.778656,65.8159891 117.664,63.0640166 117.664,59.736 C117.664,56.4079834 118.799989,53.6346778 121.072,51.416 C123.344011,49.1973222 126.090651,48.088 129.312,48.088 C132.533349,48.088 135.210656,49.0266573 137.344,50.904 L135.328,53.784 C134.453329,53.0373296 133.573338,52.5200014 132.688,52.232 C131.802662,51.9439986 130.773339,51.8 129.6,51.8 C127.338655,51.8 125.440008,52.5306594 123.904,53.992 C122.367992,55.4533406 121.6,57.3733214 121.6,59.752 C121.6,62.1306786 122.346659,64.0399928 123.84,65.48 C125.333341,66.9200072 127.141323,67.64 129.264,67.64 C131.386677,67.64 133.16266,67.1813379 134.592,66.264 L134.592,60.12 Z" id="Go-Copy" fill="#000000"></path>
            <g id="golang" transform="translate(68.000000, 35.000000)">
                <path d="M0.426659847,26.5294859 C0.497002558,27.982968 1.94574936,27.3104407 2.60194373,26.8560603 C3.22480818,26.4246573 3.40692583,26.7832524 3.46161637,25.9318889 C3.49743223,25.3723107 3.56179028,24.8127326 3.53011765,24.2509397 C2.58822506,24.1653974 1.56374425,24.3901883 0.791539642,24.9524426 C0.393790281,25.2421055 -0.35198977,26.166646 0.426659847,26.5294859" id="Shape" stroke="#000000" stroke-width="0.5" fill="#F6D2A2" stroke-linecap="round"></path>
                <path d="M3.77465985,9.21430697 C-1.7769821,7.649629 2.35114066,0.571112994 6.80924808,3.48259887 L3.77465985,9.21430697 Z" id="Shape" stroke="#000000" stroke-width="0.5" fill="#6AD7E5" stroke-linecap="round"></path>
                <path d="M28.4404604,2.95144256 C32.8347621,-0.142016949 36.8057187,6.83739171 31.6986905,8.59345574 L28.4404604,2.95144256 Z" id="Shape" stroke="#000000" stroke-width="0.5" fill="#6AD7E5" stroke-linecap="round"></path>
                <path d="M29.3856675,44.4177156 C30.5018517,45.1098983 32.5420665,47.2028719 30.8676522,48.2177533 C29.2587928,49.6941205 28.3583325,46.5972467 26.9462302,46.1681507 C27.5543632,45.3404105 28.3251867,44.5856629 29.3856675,44.4177156 Z" id="Shape" stroke="#000000" stroke-width="0.5" fill="#F6D2A2" stroke-linecap="round"></path>
                <path d="M30.8676522,48.217661 C30.6194271,47.7229548 30.5361023,47.1455669 30.121688,46.7468305" id="Shape" stroke="#000000" stroke-width="0.5" stroke-linecap="round"></path>
                <path d="M9.44461381,46.7830038 C8.13452685,46.9862015 7.39712532,48.1707834 6.30497187,48.7723484 C5.2757954,49.3873861 4.88209719,48.5754256 4.78938107,48.4106158 C4.62807161,48.3368851 4.64160614,48.4792712 4.3926445,48.2279962 C3.43859847,46.7188701 5.38674169,45.6157702 6.4011867,44.8660979 C7.81411765,44.5798493 8.69957033,45.8075254 9.44461381,46.7830038 Z" id="Shape" stroke="#000000" stroke-width="0.5" fill="#F6D2A2" stroke-linecap="round"></path>
                <path d="M4.78947315,48.4105235 C4.83937596,47.8353503 5.29439386,47.4501789 5.51113043,46.9638701" id="Shape" stroke="#000000" stroke-width="0.5" stroke-linecap="round"></path>
                <path d="M4.00631202,7.25929002 C3.27388235,6.87098117 2.73655243,6.34360829 3.18457289,5.49455179 C3.5993555,4.70852166 4.36990281,4.79387947 5.10242455,5.18218832 L4.00631202,7.25929002 Z" id="Shape" fill="#000000" fill-rule="nonzero"></path>
                <path d="M30.5416266,6.52106026 C31.2740563,6.13275141 31.8113862,5.60537853 31.3633657,4.75632203 C30.9485831,3.9702919 30.1780358,4.05564972 29.4455141,4.44395857 L30.5416266,6.52106026 Z" id="Shape" fill="#000000" fill-rule="nonzero"></path>
                <path d="M35.583376,26.3449284 C35.5130332,27.7984105 34.0642864,27.1258832 33.4080921,26.6715028 C32.7852276,26.2400998 32.60311,26.5986949 32.5484194,25.7473315 C32.5126036,25.1877533 32.4482455,24.6281751 32.4799182,24.0663823 C33.4218107,23.9808399 34.4462916,24.2056309 35.2184962,24.7678851 C35.6161535,25.057548 36.3620256,25.9820885 35.583376,26.3449284" id="Shape" stroke="#000000" stroke-width="0.5" fill="#F6D2A2" stroke-linecap="round"></path>
                <path d="M17.4486752,0.0114425612 C23.006578,0.0114425612 28.2167263,0.808084746 30.9327468,6.15988136 C33.3706189,12.1585518 32.5036726,18.6271055 32.8754578,24.966838 C33.1947621,30.4105443 33.9027008,36.6996158 31.382977,41.7442166 C28.7322353,47.0515348 22.1086036,48.3866234 16.6515192,48.1910847 C12.3651253,48.0373484 7.18710997,46.6358192 4.76792839,42.7107439 C1.9297289,38.1060358 3.27342199,31.2591394 3.47957033,26.1354557 C3.72374425,20.0661921 1.83931458,13.9784727 3.82870588,8.03950659 C5.89249105,1.87870245 11.4584041,0.48640113 17.4486752,0.0114425612" id="Shape" stroke="#000000" stroke-width="0.5" fill="#6AD7E5" stroke-linecap="round"></path>
                <path d="M18.4298824,7.48934087 C19.4277545,13.303177 28.9096573,11.7659981 27.547734,5.90242373 C26.3264962,0.644382298 18.0982404,2.09980226 18.4298824,7.48934087" id="Shape" stroke="#000000" stroke-width="0.5" fill="#FFFFFF" stroke-linecap="round"></path>
                <path d="M7.09899744,8.42966102 C8.39232737,13.4911488 16.4777801,12.1952787 16.173023,7.11810358 C15.807867,1.03739736 5.8624757,2.21072128 7.09899744,8.42966102" id="Shape" stroke="#000000" stroke-width="0.5" fill="#FFFFFF" stroke-linecap="round"></path>
                <path d="M19.5738721,14.4657966 C19.5781074,15.2216516 19.7452174,16.0702467 19.6025985,16.8743635 C19.4100767,17.239049 19.032399,17.2776215 18.7068338,17.4249906 C18.2566036,17.3542128 17.8780051,17.0579058 17.6974527,16.635823 C17.5819028,15.7180188 17.7405422,14.8293748 17.7697289,13.9112015 L19.5738721,14.4657966 Z" id="Shape" stroke="#000000" stroke-width="0.5" fill="#FFFFFF" stroke-linecap="round"></path>
                <g id="Group" transform="translate(7.918159, 6.090395)">
                    <ellipse id="Oval" fill="#000000" fill-rule="nonzero" cx="1.41090537" cy="1.51374011" rx="1.36532992" ry="1.48218079"></ellipse>
                    <ellipse id="Oval" fill="#FFFFFF" cx="2.03192839" cy="1.84825047" rx="1" ry="1"></ellipse>
                </g>
                <g id="Group" transform="translate(19.335038, 5.721281)">
                    <ellipse id="Oval" fill="#000000" fill-rule="nonzero" cx="1.43364706" cy="1.51374011" rx="1.34258824" ry="1.48218079"></ellipse>
                    <ellipse id="Oval" fill="#FFFFFF" cx="2.04435806" cy="1.84825047" rx="1" ry="1"></ellipse>
                </g>
                <path d="M15.6721535,14.383484 C15.0764501,15.8304143 16.0043478,18.7238136 17.620665,16.5896836 C17.5051151,15.6718795 17.6637545,14.7832354 17.6929412,13.8650621 L15.6721535,14.383484 Z" id="Shape" stroke="#000000" stroke-width="0.5" fill="#FFFFFF" stroke-linecap="round"></path>
                <g id="Group" transform="translate(14.179028, 9.873823)">
                    <path d="M1.69697187,1.72312053 C0.586680307,1.81798305 -0.320869565,3.14107533 0.256419437,4.18779284 C1.02089003,5.57418832 2.7272532,4.06515443 3.79003581,4.20652542 C5.01320716,4.23162524 6.01540665,5.5027646 6.99781074,4.43629944 C8.09042455,3.25014878 6.52741688,2.09491149 5.30581074,1.5784275 L1.69697187,1.72312053 Z" id="Shape" stroke="#231F20" stroke-width="0.5" fill="#F6D2A2" stroke-linecap="round"></path>
                    <path d="M1.55720716,1.66516949 C1.47498721,-0.262625235 5.14229156,-0.50365725 5.57539642,1.11002072 C6.00739642,2.71991525 1.73775959,3.09382863 1.55720716,1.66516949 C1.41311509,0.524327684 1.55720716,1.66516949 1.55720716,1.66516949 Z" id="Shape" fill="#000000" fill-rule="nonzero"></path>
                </g>
            </g>
        </g>
    </g>
</svg>