<?xml version="1.0" encoding="UTF-8" standalone="no"?>
<svg width="220px" height="118px" viewBox="0 0 220 118" version="1.1" xmlns="http://www.w3.org/2000/svg" xmlns:xlink="http://www.w3.org/1999/xlink">
    <!-- Generator: Sketch 48.1 (47250) - http://www.bohemiancoding.com/sketch -->
    <title>logos/technologies/google cloud</title>
    <desc>Created with Sketch.</desc>
    <defs>
        <linearGradient x1="11.9490566%" y1="60.0703252%" x2="40.8358491%" y2="42.0617886%" id="linearGradient-1">
            <stop stop-color="#2D3079" stop-opacity="0.2" offset="0%"></stop>
            <stop stop-color="#2D3079" stop-opacity="0" offset="66%"></stop>
        </linearGradient>
        <linearGradient x1="-16.04%" y1="9.71692308%" x2="84.3555556%" y2="79.22%" id="linearGradient-2">
            <stop stop-color="#2D3079" stop-opacity="0.2" offset="0%"></stop>
            <stop stop-color="#2D3079" stop-opacity="0.04" offset="100%"></stop>
        </linearGradient>
        <linearGradient x1="79.6328571%" y1="74.2134884%" x2="52.5389286%" y2="53.5544186%" id="linearGradient-3">
            <stop stop-color="#BE3A26" stop-opacity="0.15" offset="0%"></stop>
            <stop stop-color="#BE3A26" stop-opacity="0" offset="66%"></stop>
        </linearGradient>
        <linearGradient x1="50.1225664%" y1="0.830894309%" x2="50.1225664%" y2="36.5943089%" id="linearGradient-4">
            <stop stop-color="#A52822" stop-opacity="0.2" offset="0%"></stop>
            <stop stop-color="#A52822" stop-opacity="0" offset="66%"></stop>
        </linearGradient>
        <linearGradient x1="-10.3154839%" y1="36.1589431%" x2="62.6574194%" y2="82.1378049%" id="linearGradient-5">
            <stop stop-color="#3E2723" stop-opacity="0.15" offset="0%"></stop>
            <stop stop-color="#3E2723" stop-opacity="0" offset="100%"></stop>
        </linearGradient>
        <linearGradient x1="50.3103774%" y1="0.29516129%" x2="50.3103774%" y2="99.0064516%" id="linearGradient-6">
            <stop stop-color="#3E2723" stop-opacity="0.15" offset="0%"></stop>
            <stop stop-color="#462823" stop-opacity="0.1447" offset="3.546852%"></stop>
            <stop stop-color="#712E24" stop-opacity="0.1122" offset="25.22%"></stop>
            <stop stop-color="#923325" stop-opacity="0.08062769" offset="46.25%"></stop>
            <stop stop-color="#AA3726" stop-opacity="0.05071827" offset="66.19%"></stop>
            <stop stop-color="#B93926" stop-opacity="0.02311477" offset="84.59%"></stop>
            <stop stop-color="#BE3A26" stop-opacity="0" offset="100%"></stop>
        </linearGradient>
        <radialGradient cx="6391.5702%" cy="-14841.8403%" fx="6391.5702%" fy="-14841.8403%" r="99.9063584%" gradientTransform="translate(63.915702,-148.418403),scale(0.866958,1.000000),translate(-63.915702,148.418403)" id="radialGradient-7">
            <stop stop-color="#FFFFFF" stop-opacity="0.1" offset="0%"></stop>
            <stop stop-color="#FFFFFF" stop-opacity="0" offset="100%"></stop>
        </radialGradient>
    </defs>
    <g id="Symbols" stroke="none" stroke-width="1" fill="none" fill-rule="evenodd">
        <g id="logos/technologies/google-cloud" fill-rule="nonzero">
            <g id="Group-3" transform="translate(52.000000, 42.000000)">
                <g id="gcp-logo">
                    <g id="Group" opacity="0.39558069" transform="translate(43.198461, 24.808552)" fill="#000000">
                        <path d="M0,4.39062189 C0,1.90896604 1.87006323,0 4.30114542,0 C5.5634381,0 6.59197288,0.52496566 7.33999817,1.38400038 L6.59197288,2.09986264 C6.03095391,1.38400038 5.23617704,1.04993132 4.30114542,1.04993132 C2.57133694,1.04993132 1.12203794,2.3384834 1.12203794,4.39062189 C1.12203794,6.44276038 2.57133694,7.73131245 4.30114542,7.73131245 C5.3296802,7.73131245 6.21796023,7.25407094 6.82573078,6.49048453 L7.57375607,7.25407094 C6.87248236,8.11310566 5.70369284,8.73351962 4.30114542,8.73351962 C1.87006323,8.78124377 0,6.92000189 0,4.39062189 Z M8.36853294,8.59034717 L8.36853294,0.190896604 L9.4438193,0.190896604 L9.4438193,8.59034717 L8.36853294,8.59034717 Z M16.0357922,5.72689811 C16.0357922,7.4926917 14.8202511,8.78124377 13.1371942,8.78124377 C11.4541373,8.78124377 10.2385962,7.44496755 10.2385962,5.72689811 C10.2385962,3.96110453 11.4541373,2.67255245 13.1371942,2.67255245 C14.8202511,2.67255245 16.0357922,3.96110453 16.0357922,5.72689811 Z M14.9605058,5.72689811 C14.9605058,4.39062189 14.0722258,3.62703547 13.1371942,3.62703547 C12.2021626,3.62703547 11.3138825,4.39062189 11.3138825,5.72689811 C11.3138825,7.06317434 12.2021626,7.82676076 13.1371942,7.82676076 C14.0722258,7.7790366 14.9605058,7.01545019 14.9605058,5.72689811 Z M20.8044534,8.59034717 L20.8044534,7.7790366 L20.7577018,7.7790366 C20.4304408,8.30400227 19.729167,8.78124377 18.9811418,8.78124377 C17.5318428,8.78124377 16.830569,7.7790366 16.830569,6.34731208 L16.830569,2.81572491 L17.9058554,2.81572491 L17.9058554,6.15641547 C17.9058554,7.34951925 18.5136259,7.7790366 19.3084028,7.7790366 C20.2434344,7.7790366 20.8044534,6.87227774 20.8044534,6.01324302 L20.8044534,2.86344906 L21.8797398,2.86344906 L21.8797398,8.63807132 L20.8044534,8.63807132 L20.8044534,8.59034717 Z M22.6745166,5.72689811 C22.6745166,3.96110453 23.9368093,2.67255245 25.3393567,2.67255245 C26.2276368,2.67255245 26.9289105,3.14979396 27.2561715,3.67475962 L27.3029231,3.67475962 L27.2561715,2.86344906 L27.2561715,0.190896604 L28.3314579,0.190896604 L28.3314579,8.59034717 L27.3496747,8.59034717 L27.3496747,7.7790366 L27.3029231,7.7790366 C26.9756621,8.30400227 26.2743883,8.78124377 25.3861083,8.78124377 C23.9368093,8.78124377 22.6745166,7.4926917 22.6745166,5.72689811 Z M27.3496747,5.72689811 C27.3496747,4.39062189 26.5081462,3.62703547 25.5731146,3.62703547 C24.638083,3.62703547 23.7965546,4.39062189 23.7965546,5.72689811 C23.7965546,7.01545019 24.638083,7.82676076 25.5731146,7.82676076 C26.4613947,7.7790366 27.3496747,7.01545019 27.3496747,5.72689811 Z M31.2300559,8.59034717 L31.2300559,0.190896604 L34.0351507,0.190896604 C35.3909466,0.190896604 36.6064877,1.24082792 36.6064877,2.67255245 C36.6064877,4.10427698 35.3909466,5.1542083 34.0351507,5.1542083 L32.3053423,5.1542083 L32.3053423,8.54262302 L31.2300559,8.54262302 L31.2300559,8.59034717 Z M34.0819023,4.15200113 C35.0169339,4.15200113 35.5312013,3.34069057 35.5312013,2.67255245 C35.5312013,2.00441434 35.0169339,1.19310377 34.0819023,1.19310377 L32.3053423,1.19310377 L32.3053423,4.15200113 L34.0819023,4.15200113 Z M37.354513,8.59034717 L37.354513,0.190896604 L38.4297993,0.190896604 L38.4297993,8.59034717 L37.354513,8.59034717 Z M39.3180794,6.87227774 C39.3180794,5.58372566 40.4868689,4.8678634 41.7959131,4.8678634 C42.5439384,4.8678634 43.1049574,5.10648415 43.3387153,5.20193245 L43.3387153,5.05876 C43.3387153,4.19972528 42.6374416,3.67475962 41.8894163,3.67475962 C41.2816457,3.67475962 40.7206268,3.96110453 40.5336205,4.48607019 L39.5518373,4.05655283 C39.7388436,3.53158717 40.4401173,2.67255245 41.8426647,2.67255245 C43.2452121,2.67255245 44.3672501,3.53158717 44.3672501,5.1542083 L44.3672501,8.63807132 L43.3387153,8.63807132 L43.3387153,7.82676076 L43.2919637,7.82676076 C42.9647026,8.30400227 42.4036837,8.82896793 41.4219005,8.82896793 C40.2998625,8.78124377 39.3180794,8.06538151 39.3180794,6.87227774 Z M43.3387153,6.10869132 C43.3387153,6.10869132 42.8711995,5.72689811 41.9829195,5.72689811 C40.8608815,5.72689811 40.4401173,6.34731208 40.4401173,6.87227774 C40.4401173,7.4926917 41.0478878,7.7790366 41.6089068,7.7790366 C42.4504353,7.7790366 43.3387153,7.06317434 43.3387153,6.10869132 Z M45.8633006,6.87227774 L45.8633006,3.86565623 L44.8815175,3.86565623 L44.8815175,2.86344906 L45.8633006,2.86344906 L45.8633006,1.09765547 L46.938587,1.09765547 L46.938587,2.86344906 L48.3411344,2.86344906 L48.3411344,3.86565623 L46.938587,3.86565623 L46.938587,6.82455359 C46.938587,7.4926917 47.2190965,7.7790366 47.6866123,7.7790366 C47.8736186,7.7790366 48.0138734,7.7790366 48.1541281,7.6835883 L48.5281407,8.59034717 C48.2943828,8.68579547 48.0138734,8.73351962 47.6866123,8.73351962 C46.5178228,8.68579547 45.8633006,8.01765736 45.8633006,6.87227774 Z M52.735783,0.286344906 L52.3617704,1.19310377 C52.2215156,1.14537962 52.0812609,1.09765547 51.8942546,1.09765547 C51.3799872,1.09765547 50.9592229,1.43172453 50.9592229,2.09986264 L50.9592229,2.81572491 L52.4085219,2.81572491 L52.4085219,3.81793208 L50.9592229,3.81793208 L50.9592229,8.59034717 L49.8839366,8.59034717 L49.8839366,3.81793208 L48.8554018,3.81793208 L48.8554018,2.81572491 L49.9306882,2.81572491 L49.9306882,2.09986264 C49.9306882,0.906758868 50.725465,0.143172453 51.9410061,0.143172453 C52.2682672,0.143172453 52.5020251,0.190896604 52.735783,0.286344906 Z M58.532979,5.72689811 C58.532979,7.4926917 57.3174379,8.78124377 55.634381,8.78124377 C53.9513241,8.78124377 52.735783,7.44496755 52.735783,5.72689811 C52.735783,3.96110453 53.9513241,2.67255245 55.634381,2.67255245 C57.3174379,2.67255245 58.532979,3.96110453 58.532979,5.72689811 Z M57.4576927,5.72689811 C57.4576927,4.39062189 56.5694126,3.62703547 55.634381,3.62703547 C54.6993494,3.62703547 53.8110694,4.39062189 53.8110694,5.72689811 C53.8110694,7.06317434 54.6993494,7.82676076 55.634381,7.82676076 C56.5694126,7.7790366 57.4576927,7.01545019 57.4576927,5.72689811 Z M59.3745075,8.59034717 L59.3745075,2.86344906 L60.4030422,2.86344906 L60.4030422,3.81793208 L60.4497938,3.81793208 C60.6835517,3.14979396 61.4783286,2.7202766 62.0860991,2.7202766 C62.4133602,2.7202766 62.6471181,2.76800076 62.880876,2.86344906 L62.4601118,3.86565623 C62.319857,3.81793208 62.1328507,3.77020793 61.8990928,3.77020793 C61.1510675,3.77020793 60.4497938,4.39062189 60.4497938,5.44055321 L60.4497938,8.59034717 L59.3745075,8.59034717 Z M63.441895,2.86344906 L64.4704298,2.86344906 L64.4704298,3.67475962 L64.5171813,3.67475962 C64.8444424,3.10206981 65.5924677,2.67255245 66.2469898,2.67255245 C67.1352699,2.67255245 67.7430404,3.10206981 68.0235499,3.77020793 C68.4443141,3.10206981 69.0988362,2.67255245 69.9871163,2.67255245 C71.3896637,2.67255245 71.9974342,3.67475962 71.9974342,5.10648415 L71.9974342,8.63807132 L70.9221479,8.63807132 L70.9221479,5.29738076 C70.9221479,4.10427698 70.4546321,3.72248377 69.6598552,3.72248377 C68.8183268,3.72248377 68.2105562,4.62924264 68.2105562,5.48827736 L68.2105562,8.68579547 L67.1352699,8.68579547 L67.1352699,5.34510491 C67.1352699,4.15200113 66.6677541,3.77020793 65.8729772,3.77020793 C65.0314487,3.77020793 64.4236782,4.67696679 64.4236782,5.53600151 L64.4236782,8.73351962 L63.3483918,8.73351962 L63.3483918,2.86344906 L63.441895,2.86344906 Z" id="Shape"></path>
                    </g>
                    <g id="Group" transform="translate(43.198461, 0.000000)" fill="#61686B">
                        <g id="logo_x5F_dark-link" transform="translate(36.246820, 11.594839) scale(-1, 1) rotate(-180.000000) translate(-36.246820, -11.594839) translate(0.053638, 0.060748)">
                            <g id="logo_x5F_dark">
                                <path d="M0.121081685,14.1523765 C0.121081685,19.0734666 4.32434589,23.0612466 9.34058713,23.0612466 C12.1081685,23.0612466 14.0800702,21.9921822 15.5676452,20.6007015 L13.8033121,18.8868046 C12.7481717,19.8710226 11.3124889,20.63464 9.34058713,20.63464 C5.6908392,20.63464 2.83677091,17.7498631 2.83677091,14.1693458 C2.83677091,10.5888284 5.6908392,7.70405146 9.34058713,7.70405146 C11.7103287,7.70405146 13.0595246,8.63736166 13.9243938,9.48582548 C14.6335865,10.1815658 15.1006159,11.1827531 15.2735897,12.5402952 L9.34058713,12.5402952 L9.34058713,14.9669017 L17.6952234,14.9669017 C17.7817103,14.5257006 17.8336025,14.0166223 17.8336025,13.4396669 C17.8336025,11.606985 17.3319783,9.35007127 15.6887269,7.75495929 C14.0800702,6.12590876 12.038979,5.26047567 9.34058713,5.26047567 C4.32434589,5.26047567 0.121081685,9.24825561 0.121081685,14.1523765 Z M24.5622847,16.7147372 C21.327674,16.7147372 18.6984716,14.3051 18.6984716,10.9791218 C18.6984716,7.67011291 21.327674,5.24350639 24.5622847,5.24350639 C27.7968954,5.24350639 30.4260977,7.67011291 30.4260977,10.9791218 C30.4260977,14.3051 27.7968954,16.7147372 24.5622847,16.7147372 Z M24.5622847,7.51738942 C22.7979516,7.51738942 21.2584844,8.94280864 21.2584844,10.9960911 C21.2584844,13.0663428 22.7806542,14.4747927 24.5622847,14.4747927 C26.3266178,14.4747927 27.8660849,13.0663428 27.8660849,10.9960911 C27.8660849,8.94280864 26.3266178,7.51738942 24.5622847,7.51738942 Z M37.3623485,16.7147372 C34.1277378,16.7147372 31.4985355,14.3051 31.4985355,10.9791218 C31.4985355,7.67011291 34.1277378,5.24350639 37.3623485,5.24350639 C40.5969593,5.24350639 43.2261616,7.67011291 43.2261616,10.9791218 C43.2261616,14.3051 40.5969593,16.7147372 37.3623485,16.7147372 Z M37.3623485,7.51738942 C35.5980154,7.51738942 34.0585483,8.94280864 34.0585483,10.9960911 C34.0585483,13.0663428 35.580718,14.4747927 37.3623485,14.4747927 C39.143979,14.4747927 40.6661488,13.0663428 40.6661488,10.9960911 C40.6661488,8.94280864 39.1266817,7.51738942 37.3623485,7.51738942 Z M53.0683728,16.3753517 L53.0683728,15.4420415 L52.9818859,15.4420415 C52.4110722,16.1208125 51.3040397,16.7317065 49.9029516,16.7317065 C46.9796938,16.7317065 44.2985993,14.2202536 44.2985993,10.9791218 C44.2985993,7.77192857 46.9796938,5.26047567 49.9029516,5.26047567 C51.3040397,5.26047567 52.4110722,5.87136962 52.9818859,6.56710995 L53.0683728,6.56710995 L53.0683728,5.73561541 C53.0683728,3.54657876 51.8748534,2.37569869 49.9548438,2.37569869 C48.3807819,2.37569869 47.4121284,3.47870165 47.0142886,4.41201185 L44.7829261,3.49567093 C45.4229293,1.96843606 47.1353703,0.101815658 49.9721412,0.101815658 C52.9818859,0.101815658 55.5246013,1.83268185 55.5246013,6.07500093 L55.5246013,16.3753517 L53.0683728,16.3753517 Z M50.1278176,7.51738942 C48.3634845,7.51738942 46.8759095,8.97674719 46.8759095,10.9791218 C46.8759095,12.9984657 48.3634845,14.4747927 50.1278176,14.4747927 C51.8748534,14.4747927 53.2413467,12.9984657 53.2413467,10.9791218 C53.258644,8.95977791 51.8748534,7.51738942 50.1278176,7.51738942 Z" id="Shape"></path>
                                <polygon id="Shape" points="59.8489472 5.5998612 57.2889344 5.5998612 57.2889344 22.4503526 59.8489472 22.4503526"></polygon>
                                <path d="M66.8889823,7.51738942 C65.5743811,7.51738942 64.6576198,8.1113141 64.0522114,9.24825561 L71.8706288,12.4215103 L71.611168,13.0663428 C71.1268413,14.3560078 69.6392663,16.7147372 66.6122242,16.7147372 C63.6024794,16.7147372 61.0943588,14.3899463 61.0943588,10.9791218 C61.0943588,7.77192857 63.5678846,5.24350639 66.8889823,5.24350639 C69.5700768,5.24350639 71.1095439,6.85558765 71.7668445,7.78889785 L69.7776454,9.09553213 C69.1030474,8.14525265 68.2035834,7.51738942 66.8889823,7.51738942 Z M66.6987111,14.5087313 C67.7192567,14.5087313 68.5841259,14.0166223 68.860884,13.2869434 L63.6370742,11.1657838 C63.5678846,13.3717898 65.3841099,14.5087313 66.6987111,14.5087313 Z" id="Shape"></path>
                            </g>
                        </g>
                    </g>
                    <g id="Group-2" transform="translate(0.000000, 0.087442)">
                        <g id="Group">
                            <path d="M13.4892336,6.71001562 L33.059679,6.71001562 L29.8532218,1.2987127 C29.4109519,0.541130292 28.6369795,0 27.6418721,0 L11.0567488,0 C10.1722089,0 9.28766902,0.432904234 8.84539906,1.2987127 L3.7592946,10.0650234 L13.4892336,26.6236104 L13.4892336,6.71001562 Z" id="Shape" fill="#547DBF"></path>
                            <path d="M13.4892336,6.71001562 L33.059679,6.71001562 L29.8532218,1.2987127 C29.4109519,0.541130292 28.6369795,0 27.6418721,0 L11.0567488,0 C10.1722089,0 9.28766902,0.432904234 8.84539906,1.2987127 L3.7592946,10.0650234 L13.4892336,26.6236104 L13.4892336,6.71001562 Z" id="Shape" fill="url(#linearGradient-1)"></path>
                            <polygon id="Shape" fill="url(#linearGradient-2)" points="3.7592946 10.0650234 8.73483158 14.82697 7.85029167 17.0997172"></polygon>
                            <polygon id="Shape" fill-opacity="0.1" fill="#2D3079" points="8.07142665 16.9914912 4.31213204 10.6061537 3.7592946 10.0650234 7.85029167 17.0997172"></polygon>
                            <path d="M13.4892336,26.6236104 L3.7592946,10.0650234 L0.552837442,15.4763264 C0.110567488,16.2339088 0.110567488,17.2079433 0.552837442,17.9655257 L8.84539906,32.0349133 C9.28766902,32.7924957 10.1722089,33.333626 11.0567488,33.333626 L21.3395252,33.333626 L31.1800317,16.666813 L13.4892336,26.6236104 Z" id="Shape" fill="#FFCE40"></path>
                            <path d="M13.4892336,26.6236104 L3.7592946,10.0650234 L0.552837442,15.4763264 C0.110567488,16.2339088 0.110567488,17.2079433 0.552837442,17.9655257 L8.84539906,32.0349133 C9.28766902,32.7924957 10.1722089,33.333626 11.0567488,33.333626 L21.3395252,33.333626 L31.1800317,16.666813 L13.4892336,26.6236104 Z" id="Shape" fill="url(#linearGradient-3)"></path>
                            <path d="M33.059679,6.71001562 L13.4892336,6.71001562 L31.0694642,16.666813 L21.2289578,33.333626 L27.6418721,33.333626 C28.526412,33.333626 29.4109519,32.9007218 29.8532218,32.0349133 L38.1457835,17.8572996 C38.5880534,17.0997172 38.5880534,16.1256827 38.1457835,15.3681003 L33.059679,6.71001562 Z" id="Shape" fill="#DB4436"></path>
                            <path d="M33.059679,6.71001562 L13.4892336,6.71001562 L31.0694642,16.666813 L21.2289578,33.333626 L27.6418721,33.333626 C28.526412,33.333626 29.4109519,32.9007218 29.8532218,32.0349133 L38.1457835,17.8572996 C38.5880534,17.0997172 38.5880534,16.1256827 38.1457835,15.3681003 L33.059679,6.71001562 Z" id="Shape" fill="url(#linearGradient-4)"></path>
                            <polygon id="Shape" fill="url(#linearGradient-5)" points="25.2093873 6.71001562 38.4774859 19.6971426 38.4774859 33.333626 21.3395252 33.333626 25.2093873 26.6236104"></polygon>
                            <rect id="Rectangle-path" fill-opacity="0.05" fill="#3E2723" x="25.0988198" y="6.71001562" width="8.29256162" height="1"></rect>
                        </g>
                        <g id="Group" transform="translate(7.199743, 6.180278)">
                            <polyline id="Shape" fill="#EEEEEE" points="17.5063327 0.21375396 23.3130822 10.0464361 17.5063327 19.8791183 5.89283348 19.8791183 0.0860838888 10.0464361 5.89283348 0.21375396 17.5063327 0.21375396"></polyline>
                            <polygon id="Shape" fill-opacity="0.4" fill="#FFFFFF" points="17.5063327 0.427507921 23.2035209 10.0464361 23.4226436 10.0464361 17.5063327 0.21375396 5.89283348 0.21375396 0.0860838888 10.0464361 0.195645202 10.0464361 5.89283348 0.427507921"></polygon>
                            <polygon id="Shape" fill-opacity="0.05" fill="#262626" points="23.2035209 10.0464361 17.5063327 19.6653643 5.89283348 19.6653643 0.195645202 10.0464361 0.0860838888 10.0464361 5.89283348 19.8791183 17.5063327 19.8791183 23.4226436 10.0464361"></polygon>
                            <polygon id="Shape" fill-opacity="0.05" fill="#BE3A26" points="23.4226436 10.0464361 17.5063327 19.8791183 5.89283348 19.8791183 0.0860838888 10.0464361 0.0860838888 10.2601901 5.89283348 20.0928723 17.5063327 20.0928723 23.4226436 10.2601901"></polygon>
                            <path d="M11.5900218,4.91634109 C8.85098893,4.91634109 6.55020135,7.16075767 6.55020135,9.83268217 L16.6298421,9.83268217 C16.7394035,7.16075767 14.4386159,4.91634109 11.5900218,4.91634109 Z M6.55020135,10.2601901 C6.55020135,12.9321146 8.85098893,15.1765312 11.5900218,15.1765312 C14.3290546,15.1765312 16.6298421,12.9321146 16.6298421,10.2601901 L6.55020135,10.2601901 Z" id="Shape" fill="#FFFFFF"></path>
                        </g>
                        <polygon id="Shape" fill="url(#linearGradient-6)" points="13.4995189 26.4869038 20.3426713 33.5500781 21.3360321 33.5500781 25.199102 26.4869038"></polygon>
                        <path d="M3.57906321,10.3147489 L8.72396656,1.52006826 C9.17134946,0.760034132 10.0661153,0.217152609 10.9608811,0.217152609 L27.7377398,0.217152609 C28.6325056,0.217152609 29.5272714,0.651457828 29.9746543,1.52006826 L33.2181804,6.94888349 L38.3630837,15.7435642 C38.5867752,16.0692931 38.6986209,16.5035983 38.6986209,16.9379035 C38.6986209,16.5035983 38.5867752,15.9607168 38.3630837,15.6349879 L33.2181804,6.84030719 L29.9746543,1.41149196 C29.5272714,0.542881523 28.7443514,0 27.7377398,0 L10.9608811,0 C10.0661153,0 9.17134946,0.434305218 8.72396656,1.30291566 L3.57906321,10.0975963 L0.335537176,15.5264116 C0.111845725,15.9607168 0,16.395022 0,16.8293272 C0,16.395022 0.111845725,16.0692931 0.335537176,15.6349879 L3.57906321,10.3147489 Z M10.9608811,33.2243492 C10.0661153,33.2243492 9.17134946,32.790044 8.72396656,31.9214335 L3.57906321,23.1267529 L0.335537176,17.6979376 C0.111845725,17.3722087 0,16.9379035 0,16.5035983 C0,16.9379035 0.111845725,17.480785 0.335537176,17.806514 L3.57906321,23.2353292 L8.72396656,32.1385862 C9.17134946,32.8986203 10.0661153,33.4415018 10.9608811,33.4415018 L21.3625335,33.4415018 L21.4743792,33.2243492 L10.9608811,33.2243492 Z M38.6986209,16.6121746 C38.6986209,17.0464798 38.5867752,17.3722087 38.3630837,17.806514 L33.2181804,26.6011946 L29.9746543,32.0300099 C29.5272714,32.790044 28.6325056,33.3329255 27.7377398,33.3329255 L21.4743792,33.3329255 L21.3625335,33.5500781 L27.7377398,33.5500781 C28.6325056,33.5500781 29.5272714,33.1157729 29.9746543,32.2471625 L33.2181804,26.8183472 L38.3630837,18.0236666 C38.5867752,17.5893613 38.6986209,17.0464798 38.6986209,16.6121746 Z" id="Shape" fill-opacity="0.2" fill="#FFFFFF"></path>
                        <path d="M38.3630837,15.4678932 L33.2181804,6.64465833 L29.9746543,1.19821708 C29.5272714,0.544644125 28.7443514,0 27.7377398,0 L10.9608811,0 C10.0661153,0 9.17134946,0.4357153 8.72396656,1.3071459 L3.57906321,10.1303807 L0.335537176,15.576822 C-0.111845725,16.3393238 -0.111845725,17.3196832 0.335537176,18.082185 L8.72396656,32.2429322 C9.17134946,33.005434 10.0661153,33.5500781 10.9608811,33.5500781 L27.7377398,33.5500781 C28.6325056,33.5500781 29.5272714,33.1143628 29.9746543,32.2429322 L38.3630837,17.9732561 C38.8104666,17.2107544 38.8104666,16.3393238 38.3630837,15.4678932 Z M19.2374647,21.785765 C16.4413216,21.785765 14.0925614,19.4982597 14.0925614,16.7750391 C14.0925614,14.0518184 16.4413216,11.7643131 19.2374647,11.7643131 C22.0336079,11.7643131 24.3823681,14.0518184 24.3823681,16.7750391 C24.3823681,19.4982597 22.1454536,21.785765 19.2374647,21.785765 Z" id="Shape" fill="url(#radialGradient-7)"></path>
                    </g>
                </g>
            </g>
        </g>
    </g>
</svg>