<?xml version="1.0" encoding="UTF-8" standalone="no"?>
<svg width="220px" height="118px" viewBox="0 0 220 118" version="1.1" xmlns="http://www.w3.org/2000/svg" xmlns:xlink="http://www.w3.org/1999/xlink">
    <!-- Generator: Sketch 48.1 (47250) - http://www.bohemiancoding.com/sketch -->
    <title>logos/technologies/ionic</title>
    <desc>Created with Sketch.</desc>
    <defs></defs>
    <g id="Symbols" stroke="none" stroke-width="1" fill="none" fill-rule="evenodd">
        <g id="logos/technologies/ionic" fill="#4B8BF8">
            <g id="Group" transform="translate(58.000000, 42.000000)">
                <g id="ionic">
                    <path d="M17.462028,34.8864706 C8.30374752,34.8897059 0.534193697,27.68 0.0380513456,18.7182353 C-0.49053789,9.16852941 6.25192458,1.11294118 15.660341,0.127352941 C18.1543265,-0.133529412 20.6312036,0.0932352941 23.021654,0.942058824 C24.2183541,1.36705882 24.7115467,2.03823529 24.3566958,2.88117647 C23.9168931,3.92617647 23.1092606,3.88117647 22.1818697,3.59058824 C15.6579812,1.54617647 9.15002125,3.65176471 5.37349894,9.22647059 C2.02409561,14.1711765 1.77779426,19.4514706 4.71718697,24.6338235 C7.73209242,29.9497059 12.5150581,32.4726471 18.6307057,32.0502941 C27.9656742,31.4058824 34.2323474,22.2320588 31.5722928,13.3055882 C31.4711176,12.9658824 31.3528339,12.6288235 31.2841055,12.2826471 C31.1277705,11.4947059 31.3327758,10.8317647 32.1616462,10.5914706 C32.9498106,10.3629412 33.6365046,10.6747059 33.8733669,11.4555882 C34.2709887,12.7697059 34.6857188,14.1052941 34.840284,15.4602941 C36.0284299,25.8761765 27.9444363,34.8826471 17.462028,34.8864706 Z" id="Shape"></path>
                    <path d="M9.61666643,17.4788235 C9.73436013,12.9455882 12.8560453,9.69794118 17.462028,9.61117647 C21.7821831,9.52941176 25.3463258,13.1023529 25.3746431,17.3676471 C25.4038453,21.7226471 21.876574,25.3161765 17.5407854,25.3476471 C13.1890683,25.3797059 9.64468874,21.86 9.61666643,17.4788235 Z" id="Shape"></path>
                    <path d="M69.1726268,11.5920588 C70.9333127,10.375 72.5892836,9.665 74.542881,9.71382353 C77.8798955,9.79735294 80.1482277,11.6314706 80.4125223,14.9655882 C80.6479097,17.9402941 80.5644327,20.9429412 80.5355255,23.9326471 C80.5319858,24.2511765 80.4747613,24.6702941 80.1078166,24.8170588 C79.9904178,24.8635294 79.4771671,24.8802941 79.3987047,24.8829412 C76.9926208,24.9544118 76.9920308,24.9544118 76.989966,22.5388235 C76.9887861,20.57 77.0135637,18.6002941 76.9802319,16.6320588 C76.9474901,14.6711765 76.2366084,13.4758824 74.9679352,13.1111765 C73.4037004,12.6617647 71.0601505,13.4432353 70.2003081,14.7726471 C69.9852737,15.1052941 69.9236246,15.5838235 69.9192001,15.9970588 C69.8944225,18.3597059 69.9121208,20.7223529 69.9071062,23.0852941 C69.9035666,24.8720588 69.8923576,24.8782353 68.160579,24.8805882 C68.1207578,24.8805882 68.0815266,24.8805882 68.0420004,24.8805882 C66.3972383,24.8797059 66.3326395,24.8267647 66.327625,23.1308824 C66.3181859,19.6655882 66.3246753,16.2005882 66.3243803,12.735 C66.3243803,12.4202941 66.3335244,12.1044118 66.3208407,11.7902941 C66.2910485,11.0452941 66.1108208,10.2094118 67.2116551,10.0726471 C68.2095443,9.94794118 69.1817709,9.92794118 69.1726268,11.5920588 Z" id="Shape"></path>
                    <path d="M48.8529132,17.4279412 C48.8573378,13.1476471 52.1790138,9.72735294 56.3328049,9.72617647 C60.5606339,9.72529412 63.8584171,13.1391176 63.8445535,17.5032353 C63.8315747,21.8141176 60.4007592,25.3188235 56.2552273,25.2576471 C52.156006,25.1982353 48.8481937,21.6985294 48.8529132,17.4279412 Z M52.2105758,17.3932353 C52.1899278,19.8879412 54.0863006,22.015 56.3263155,22.0088235 C58.611461,22.0029412 60.4980999,19.9464706 60.5093088,17.4485294 C60.5199278,15.0358824 58.6442029,13.0108824 56.3802953,12.9914706 C54.1010492,12.9720588 52.2309288,14.9461765 52.2105758,17.3932353 Z" id="Shape"></path>
                    <path d="M90.2822744,17.2258824 C90.3713559,14.58 91.6246905,12.2644118 94.1767854,10.7870588 C96.586409,9.39264706 99.1042872,9.22147059 101.608302,10.6408824 C101.880856,10.795 102.137186,10.9858824 102.377883,11.1870588 C104.012321,12.5511765 103.994033,12.8691176 102.429798,14.2447059 C101.871416,14.7358824 101.492083,14.7482353 100.922493,14.2614706 C99.2491183,12.8302941 97.6102557,12.6194118 96.0604745,13.5447059 C94.3882801,14.5429412 93.5791728,16.5073529 93.9962627,18.5547059 C94.3620276,20.35 95.7896905,21.7138235 97.627954,21.9682353 C99.0243499,22.1608824 100.226654,21.6658824 101.140182,20.6502941 C102.09884,19.5841176 102.696157,20.3752941 103.407334,20.9211765 C104.218801,21.5447059 103.863065,22.1120588 103.404679,22.7320588 C100.90155,26.1164706 95.1395729,26.0535294 92.1774674,22.6085294 C90.9155786,21.1414706 90.3085269,19.44 90.2822744,17.2258824 Z" id="Shape"></path>
                    <path d="M46.3208764,17.4552941 C46.3208764,19.5432353 46.2960988,21.6311765 46.3323803,23.7185294 C46.3477188,24.5952941 45.9881484,24.8823529 45.1350903,24.8932353 C42.7579136,24.9232353 42.7579136,24.9505882 42.7570287,22.6182353 C42.7558488,18.9941176 42.7552589,15.37 42.7546689,11.7461765 C42.7546689,10.1373529 42.8363761,10.0532353 44.3923516,10.0491176 C46.3202865,10.0444118 46.3244161,10.0444118 46.3285457,11.7826471 C46.3335602,13.6738235 46.3297256,15.5644118 46.3297256,17.455 C46.3267758,17.4552941 46.3235312,17.4552941 46.3208764,17.4552941 Z" id="Shape"></path>
                    <path d="M84.0094069,17.4885294 C84.0111767,15.4397059 84.0462783,13.3894118 83.9964281,11.3423529 C83.9719455,10.3502941 84.3822511,9.97117647 85.33088,10.0358824 C85.7240772,10.0626471 86.1208141,10.0385294 86.5160761,10.0438235 C87.2346271,10.0529412 87.5779742,10.3723529 87.5747295,11.1347059 C87.5561462,15.3508824 87.558211,19.5667647 87.5744345,23.7826471 C87.5776792,24.5976471 87.2231232,24.8726471 86.4269947,24.8935294 C84.0120616,24.9573529 84.0117666,24.9814706 84.007932,22.5711765 C84.0055722,20.8767647 84.007637,19.1826471 84.0094069,17.4885294 Z" id="Shape"></path>
                    <path d="M28.9145981,2.63088235 C30.8894334,2.65617647 32.4625174,4.25147059 32.4029331,6.16852941 C32.3395142,8.2 30.7454873,9.71470588 28.7269961,9.66117647 C26.8114501,9.61058824 25.3174186,8.07882353 25.312404,6.15970588 C25.3070945,4.12735294 26.8613003,2.60441176 28.9145981,2.63088235 Z" id="Shape"></path>
                </g>
            </g>
        </g>
    </g>
</svg>