<?xml version="1.0" encoding="UTF-8" standalone="no"?>
<svg width="220px" height="118px" viewBox="0 0 220 118" version="1.1" xmlns="http://www.w3.org/2000/svg" xmlns:xlink="http://www.w3.org/1999/xlink">
    <!-- Generator: Sketch 48.1 (47250) - http://www.bohemiancoding.com/sketch -->
    <title>logos/technologies/ios</title>
    <desc>Created with Sketch.</desc>
    <defs>
        <path d="M0.585,35.3861053 L2.569,35.3861053 L2.569,9.43294737 L0.585,9.43294737 L0.585,35.3861053 Z M1.577,3.07136842 C2.467,3.07136842 3.18,2.42147368 3.18,1.602 C3.18,0.758842105 2.467,0.108 1.577,0.108 C0.712,0.108 0,0.758842105 0,1.602 C0,2.42147368 0.712,3.07136842 1.577,3.07136842 Z" id="path-1"></path>
        <linearGradient x1="11.4260323%" y1="18.2379995%" x2="89.4178595%" y2="80.7883105%" id="linearGradient-3">
            <stop stop-color="#FF9F1A" offset="0%"></stop>
            <stop stop-color="#FF531A" offset="25%"></stop>
            <stop stop-color="#A47EE6" offset="50%"></stop>
            <stop stop-color="#00AAFF" offset="75%"></stop>
            <stop stop-color="#8ACC47" offset="100%"></stop>
        </linearGradient>
        <path d="M15.9699394,0.108 C6.27684848,0.108 0.110545455,7.04747368 0.110545455,17.9876842 C0.110545455,28.9762105 6.25260606,35.892 15.9699394,35.892 C25.6882424,35.892 31.830303,28.9762105 31.830303,17.9876842 C31.830303,7.04747368 25.664,0.108 15.9699394,0.108 Z M15.9699394,1.89094737 C24.4305455,1.89094737 29.8327273,8.13221053 29.8327273,17.9876842 C29.8327273,27.8441053 24.4305455,34.1090526 15.9699394,34.1090526 C7.53454545,34.1090526 2.10812121,27.8441053 2.10812121,17.9876842 C2.10812121,8.13221053 7.51030303,1.89094737 15.9699394,1.89094737 Z" id="path-4"></path>
        <path d="M0.942740741,26.1085263 C1.23644444,31.8675789 6.4297037,35.892 13.6798519,35.892 C21.0763704,35.892 26,31.8675789 26,26.1085263 C26,21.4825263 22.9377778,18.9037895 16.1045926,17.2411579 L12.1612593,16.2530526 C6.47785185,14.8556842 3.8817037,12.8548421 3.8817037,9.38557895 C3.8817037,4.99926316 8.1197037,1.86726316 13.4342963,1.86726316 C18.9944444,1.86726316 23.1342222,4.90357895 23.4038519,9.072 L25.3384444,9.072 C25.1179259,3.96378947 20.1461481,0.108 13.4834074,0.108 C7.04118519,0.108 1.898,4.01115789 1.898,9.43294737 C1.898,13.7946316 4.862,16.398 11.4014815,18.036 L15.5903704,19.0477895 C21.5174074,20.5181053 24.0162963,22.6146316 24.0162963,26.2534737 C24.0162963,30.7837895 19.8274074,34.1327368 13.8262222,34.1327368 C7.67866667,34.1327368 3.172,30.8321053 2.87733333,26.1085263 L0.942740741,26.1085263 Z" id="path-6"></path>
    </defs>
    <g id="Symbols" stroke="none" stroke-width="1" fill="none" fill-rule="evenodd">
        <g id="logos/technologies/ios">
            <g id="Group" transform="translate(77.000000, 41.000000)">
                <g id="Clipped">
                    <mask id="mask-2" fill="white">
                        <use xlink:href="#path-1"></use>
                    </mask>
                    <g id="Shape"></g>
                    <path d="M34.995,-20.0150526 C57.152,-20.0074737 75.135,-2.95957895 75.127,18.0312632 C75.119,39.0221053 57.124,56.0586316 34.967,56.0510526 C12.81,56.0434737 -5.173,38.9955789 -5.165,18.0047368 C-5.157,-2.98610526 12.838,-20.0226316 34.995,-20.0150526 Z" id="Shape" fill="url(#linearGradient-3)" fill-rule="nonzero" mask="url(#mask-2)"></path>
                </g>
                <g id="Clipped" transform="translate(8.000000, 0.000000)">
                    <mask id="mask-5" fill="white">
                        <use xlink:href="#path-4"></use>
                    </mask>
                    <g id="Shape"></g>
                    <path d="M26.1769697,-20.0150526 C47.6625455,-20.0074737 65.1006061,-2.95957895 65.0928485,18.0312632 C65.0850909,39.0221053 47.6353939,56.0586316 26.1498182,56.0510526 C4.66424242,56.0434737 -12.7738182,38.9955789 -12.7660606,18.0047368 C-12.758303,-2.98610526 4.69139394,-20.0226316 26.1769697,-20.0150526 Z" id="Shape" fill="url(#linearGradient-3)" fill-rule="nonzero" mask="url(#mask-5)"></path>
                </g>
                <g id="Clipped" transform="translate(41.000000, 0.000000)">
                    <mask id="mask-7" fill="white">
                        <use xlink:href="#path-6"></use>
                    </mask>
                    <g id="Shape"></g>
                    <path d="M-7.70851852,-20.0150526 C13.6278519,-20.0074737 30.9448148,-2.95957895 30.9371111,18.0312632 C30.9294074,39.0221053 13.6008889,56.0586316 -7.73548148,56.0510526 C-29.0718519,56.0434737 -46.3888148,38.9955789 -46.3811111,18.0047368 C-46.3734074,-2.98610526 -29.0448889,-20.0226316 -7.70851852,-20.0150526 Z" id="Shape" fill="url(#linearGradient-3)" fill-rule="nonzero" mask="url(#mask-7)"></path>
                </g>
            </g>
        </g>
    </g>
</svg>