<?xml version="1.0" encoding="UTF-8" standalone="no"?>
<svg width="220px" height="118px" viewBox="0 0 220 118" version="1.1" xmlns="http://www.w3.org/2000/svg" xmlns:xlink="http://www.w3.org/1999/xlink">
    <!-- Generator: Sketch 48.1 (47250) - http://www.bohemiancoding.com/sketch -->
    <title>logos/technologies/java</title>
    <desc>Created with Sketch.</desc>
    <defs></defs>
    <g id="Symbols" stroke="none" stroke-width="1" fill="none" fill-rule="evenodd">
        <g id="logos/technologies/java">
            <g id="java-seeklogo.com" transform="translate(66.000000, 35.000000)">
                <path d="M57.4796947,35.2285293 C57.4679403,35.5489396 56.7005464,35.9767039 56.4486666,36.1336058 C55.2916986,36.8520516 53.6309709,37.3310155 52.5462084,36.2640822 C51.4967092,35.2334841 51.7922482,33.3060674 52.9240282,32.6256084 C53.4932766,32.2853789 54.2304449,32.1268253 55.0045556,32.0640645 C55.6225007,32.012865 56.8886167,31.9022078 57.4679403,31.9682718 L57.4796947,35.2285293 Z M49.6579864,25.2842484 L50.1113701,27.0382471 C50.8737264,26.8565712 51.3338269,26.5923153 52.4823989,26.3693493 C53.3774119,26.1992346 54.349668,26.1017902 55.3084906,26.222357 C56.2740299,26.3445753 56.8113735,26.6996692 57.1438549,27.4032506 C57.3117748,27.7599961 57.4024515,28.1778508 57.4494691,28.6171763 L57.4377147,30.0359003 C57.3739051,30.0689323 54.5511719,30.2440019 54.146485,30.2952014 C51.3304685,30.6502953 48.4943016,32.1565541 48.9342517,35.6381259 C49.2079611,37.8050245 50.3951547,38.7910295 52.6217724,39.0552854 C53.8408708,39.2006262 54.6468862,39.0618918 55.6560847,38.6423855 C56.0826012,38.4640128 56.4788922,38.260866 56.8382407,38.0362485 C57.3201708,37.7422638 57.7416497,37.3178027 57.8390432,37.2632999 L58.1379406,38.7513911 L60.4233303,38.7513911 C60.4653102,38.2972012 60.4317263,32.7280076 60.4317263,32.1103093 C60.4317263,30.9987828 60.4317263,29.8922111 60.4317263,28.7806847 C60.4317263,27.7054934 60.3494455,26.8565712 59.8372899,26.0588486 C58.2890685,23.6326489 54.9205956,23.7482609 52.1381631,24.4072491 C51.5168596,24.5542414 50.0391646,24.9555801 49.6579864,25.2842484 Z" id="Fill-1" fill="#D9262A"></path>
                <path d="M85.0313209,35.4134656 C84.8346417,35.5225823 84.6278764,35.7193231 84.4009389,35.8813449 C83.7571087,36.3376513 82.9552627,36.760892 82.1046673,36.8650489 C79.5831391,37.1709064 78.9897395,34.6149294 79.7999906,33.2956089 C80.6657152,31.8886642 83.4124998,31.9663686 85.039726,31.9581021 L85.0313209,35.4134656 Z M77.2179458,25.2755284 C77.2330749,25.5499736 77.5776838,26.8246555 77.690312,27.0247029 C78.1156098,26.9403854 79.0502562,26.5535169 80.0723156,26.3567761 C81.5566552,26.0674515 83.9958134,25.826072 84.7085653,27.398345 C85.0010626,28.0431258 85.2111899,29.820406 85.0061056,30.0237599 C84.8766672,30.1163438 83.6394374,30.1262635 83.3536642,30.1444497 C81.7163519,30.2453 80.3614508,30.367643 78.942671,31.1033543 C77.4347972,31.8803978 76.1824382,33.2427038 76.4917457,35.6482319 C76.7758378,37.8338733 77.9626371,38.7878181 80.1849439,39.06061 C81.8172131,39.2623106 83.0998304,38.8473363 84.4076629,38.0388805 C84.9775283,37.686731 85.217914,37.3808735 85.4112311,37.2552239 L85.6986853,38.7530991 L88,38.7564057 L88,28.7755306 C88,27.6512975 87.910906,26.8659876 87.3914712,26.0261194 C85.8920025,23.6106715 82.4291039,23.7710401 79.7058535,24.3959814 C79.0687474,24.5414704 77.6146662,24.9415651 77.2179458,25.2755284 Z" id="Fill-2" fill="#D9262A"></path>
                <path d="M66.9686371,39.1093851 L70.7864055,39.1111111 C70.9123237,39.0800427 71.1798997,38.4724818 71.2551009,38.3274957 C71.3985076,38.0340715 71.5121837,37.7682636 71.6468462,37.4782914 C71.9039291,36.9259634 72.1400256,36.3114985 72.3638801,35.722924 C73.2855311,33.2857766 74.0305468,30.6276981 74.6653842,28.0869892 C74.821033,27.4604421 75.5555556,24.4381723 75.5555556,24.0066661 L72.7031596,24.003214 C72.0788154,23.9963099 72.3324006,23.9186388 72.1645097,25.173459 C71.9931211,26.4731558 71.7168007,27.7745787 71.3985076,29.0000565 C71.16416,29.8958635 69.5482103,35.584842 69.2246706,35.9507593 L68.4097004,32.9043251 C68.1036493,31.8894224 67.8238312,30.9142182 67.5037892,29.9183018 L66.0942054,25.4979517 C65.9350589,25.0008565 65.7811589,24.4675147 65.5957794,24.0118441 L62.2222222,24.003214 C62.2362131,24.2983643 64.4380319,31.0902728 64.5866853,31.5701077 C64.9906727,32.8629005 65.3806692,34.0504057 65.7776612,35.3224862 C66.16416,36.5738543 66.6171155,37.8683731 66.9686371,39.1093851" id="Fill-3" fill="#D9262A"></path>
                <path d="M43.0944889,23.5464264 L43.0961419,36.0858559 C43.0961419,38.4163095 42.335744,41.0744831 40,41.8375081 C40.1372022,42.1221942 41.1422499,43.1550088 41.4100422,43.5555556 C42.2018479,43.4148677 43.3639342,42.6899112 43.8019896,42.272813 C44.4714703,41.640545 44.8847301,41.1473098 45.3789887,40.134357 C46.369159,38.1150719 46.2104673,35.9749607 46.2104673,33.5534737 C46.2104673,28.6062252 46.2369159,23.650701 46.2104673,18.7034525 C45.8451457,18.6372464 43.7077663,18.6802804 43.0928358,18.6819355 L43.0944889,23.5464264" id="Fill-4" fill="#D9262A"></path>
                <path d="M16.4903624,25.7777778 L15.5341362,24.3177315 C15.2196942,23.8383891 14.9117022,23.3048456 14.6198356,22.7729957 C14.0828654,21.7922918 13.4394686,20.5473567 13.1443769,19.3108906 C12.6041817,17.0479883 13.9361258,15.6455308 15.1100426,14.1617715 C15.2874201,13.9348037 15.4954356,13.7247739 15.6873259,13.5113564 C16.917681,12.1512437 18.6011551,10.5235123 19.9121364,9.18203123 C21.245693,7.81175577 22.0487295,6.29750823 22.2051443,4.08203196 C22.2889955,2.92348015 22.0761424,0.447160348 21.2972938,0 C21.5294971,1.73613393 21.5827104,2.916705 20.9135133,4.66130787 C20.1378897,6.68877354 18.8752841,7.89983281 17.4111131,9.09903556 C16.2130084,10.0780457 14.2537928,11.8429741 13.2201655,12.8660227 C12.5525809,13.5316819 11.4222022,14.7241095 10.952958,15.8860489 C10.2611856,17.6052449 10.9481204,18.7299209 11.6898811,19.9325113 C12.0430236,20.505012 12.4010038,20.9945171 12.7783342,21.5077352 C13.218553,22.1056428 13.6103961,22.5189274 13.9619261,22.988107 C14.3328064,23.4826934 14.7923755,23.9400165 15.1971188,24.4125837 C15.450285,24.7039154 16.2404213,25.5948485 16.4903624,25.7777778" id="Fill-5" fill="#D9262A"></path>
                <path d="M32.2212439,40.3841177 C32.712281,41.1128747 32.2263061,41.419883 31.5564032,41.7098352 C28.5730573,42.9921373 18.4890783,43.2324721 15.340366,43.2743368 C12.1292194,43.3177521 8.89444902,43.1999106 5.79467167,42.7006345 C5.29182265,42.6215567 3.08131186,42.2974924 2.97837968,41.7594527 C2.91088316,41.419883 3.30236294,41.1655933 3.50316506,41.0493023 C4.21694069,40.6415085 5.52468562,40.3608595 6.42238924,40.2104565 C6.68225082,40.1685917 7.3116558,40.1065699 7.50570827,40.0336942 C6.00391086,39.829022 1.2437193,40.5686328 0.200898176,41.9300128 C-0.455505412,42.7859146 0.644687747,43.1828546 1.37702491,43.4030322 C4.12075816,44.2263725 9.83265055,44.392281 12.8446824,44.4325952 C17.3466998,44.4884149 28.1798901,44.4481007 32.1503725,41.9408666 C32.3815481,41.7966658 32.8371495,41.4912081 32.8843971,41.1950537 C32.9400817,40.8260236 32.4642313,40.4787011 32.2212439,40.3841177" id="Fill-6" fill="#1E80B4"></path>
                <path d="M19.4059891,27.5555556 C19.8959111,27.393316 21.3449031,26.2442584 21.7361482,25.8595666 C22.2468443,25.3460867 23.1193556,24.3960653 23.1937961,23.2988574 C23.2613118,22.302004 22.5497997,21.0024148 22.1152752,20.3668371 C20.7407236,18.3547318 19.6431598,17.2023291 21.5024399,14.9694442 C22.1256622,14.2268218 22.7990886,13.6447664 23.5885036,13.015879 C24.531993,12.2615486 26.0761995,11.2312437 27.1841503,10.5605419 L28.4444444,9.77777778 C27.7762116,9.863079 26.0086837,10.5454888 25.3127521,10.7963747 C24.3761874,11.1375796 23.2959353,11.6577498 22.4770904,12.1126896 C19.6691274,13.6798904 16.9079061,16.1352275 18.0366311,19.528878 C18.8018096,21.8236481 21.0280984,23.198503 20.8670993,24.9195806 C20.7701536,25.9733016 19.7210626,27.0286951 19.4059891,27.5555556" id="Fill-7" fill="#D9262A"></path>
                <path d="M24.8888889,39.449617 C24.0461045,39.1468331 23.4114778,38.7959882 22.656695,38.3730518 C22.2200718,38.1247369 22.3876133,38.1455633 21.8291417,38.2769299 C19.5461777,38.8088044 15.8416498,38.8168146 13.4436068,38.7479272 C12.8275957,38.7287028 11.0929492,38.6774378 10.7426353,38.127941 C10.520939,37.7819022 10.8238675,37.5303832 10.9423312,37.3333333 C9.37014912,37.6329132 7.77088967,38.8680796 9.95569808,39.8965839 C12.4146652,41.0516486 17.5830656,41.0644649 20.2738831,40.6110899 C21.0405122,40.4829274 24.5233439,39.7315746 24.8888889,39.449617" id="Fill-8" fill="#1E80B4"></path>
                <path d="M26.6666667,34.1741224 C25.997607,34.0157966 25.3964987,33.6240629 24.9870482,33.2878247 C24.6281256,33.0005533 24.7518319,33.0723712 23.9817164,33.1931557 C21.2148759,33.6240629 12.9753367,34.3797826 10.6162045,33.4690016 C10.3112945,33.3498493 9.9575989,33.1735691 9.93669078,32.8356987 C9.91055564,32.4358038 10.2729629,32.218718 10.4245468,32 C8.52887777,32.2203502 6.70812951,33.9341854 9.24846536,34.7519297 C12.112877,35.6708718 18.2912247,35.701884 21.3368399,35.3411625 C22.3404294,35.2220102 25.8982935,34.572385 26.6666667,34.1741224" id="Fill-9" fill="#1E80B4"></path>
                <path d="M27.5555556,27.6710083 C27.201916,27.6875806 26.7286881,27.8054277 26.3716317,27.868034 C25.9564896,27.934323 25.5618483,27.9987706 25.1484146,28.0576942 C22.6626871,28.4333319 19.9053233,28.7371565 17.416179,28.8936722 C15.4737239,29.0170434 8.1429632,29.2785167 7.04787637,28.1773827 C6.96758139,27.6838979 7.49376976,27.3727078 7.81494967,27.1830476 C9.07233487,26.4557099 10.4083066,26.2108089 11.6468994,25.7928199 C9.93678719,25.6215733 5.63673483,26.9473534 4.08037897,27.9950879 C2.39930964,29.1238424 5.20280027,29.5749759 6.2500518,29.7314916 C12.3866382,30.6521722 18.1251666,30.1586874 24.1934169,29.2288 C25.1825827,29.0796497 25.3944248,29.1404146 26.0675358,28.6782329 C26.5339301,28.3578361 27.1438302,28.0227083 27.5555556,27.6710083" id="Fill-10" fill="#1E80B4"></path>
                <path d="M6.22222222,46.5656345 C7.91417915,47.2712265 11.5983605,47.7019561 13.5113009,47.8561472 C16.1985266,48.075702 19.1489081,48.0237463 21.8378207,47.8360354 C25.3145139,47.5896647 29.4406621,47.194131 32.5006919,45.6505437 C33.2294311,45.2818258 34.5401494,44.4002548 34.6666667,43.5555556 C34.4490571,43.654439 34.2584378,43.8522059 34.0543233,43.9879611 C28.6562554,47.6801682 16.3182962,47.3282102 9.95026292,46.8773688 L6.22222222,46.5656345" id="Fill-11" fill="#1E80B4"></path>
                <path d="M28.6869957,26.5726673 C30.129352,26.1374671 31.7685604,26.4270084 32.6829113,27.2103689 C33.6708517,28.0612298 33.6818902,29.6723588 32.9699107,30.9211171 C32.0169253,32.5873123 30.0171278,34.0723221 28.3613617,35.0759471 C28.0780417,35.2482509 27.8020807,35.3796991 27.5555556,35.5555556 C28.6244446,35.4454232 31.155927,34.3405475 32.1199508,33.7667937 C33.3507369,33.0331705 34.7231831,31.9638213 35.289823,30.5765095 C36.0974689,28.6065623 34.921875,27.1037892 33.669012,26.3932582 C32.9478338,25.9864792 32.0794765,25.741346 31.0657797,25.7822016 C30.2912491,25.8123991 29.0365464,26.1108222 28.6869957,26.5726673" id="Fill-12" fill="#1E80B4"></path>
            </g>
        </g>
    </g>
</svg>