<?xml version="1.0" encoding="UTF-8" standalone="no"?>
<svg width="220px" height="118px" viewBox="0 0 220 118" version="1.1" xmlns="http://www.w3.org/2000/svg" xmlns:xlink="http://www.w3.org/1999/xlink">
    <!-- Generator: Sketch 48.1 (47250) - http://www.bohemiancoding.com/sketch -->
    <title>logos/technologies/microsoft.net</title>
    <desc>Created with Sketch.</desc>
    <defs>
        <linearGradient x1="49.9972467%" y1="-19.5160457%" x2="49.9972467%" y2="129.625092%" id="linearGradient-1">
            <stop stop-color="#0994DC" offset="0%"></stop>
            <stop stop-color="#66CEF5" offset="35.000601%"></stop>
            <stop stop-color="#66CEF5" offset="35.000601%"></stop>
            <stop stop-color="#127BCA" offset="84.616101%"></stop>
            <stop stop-color="#127BCA" offset="84.616101%"></stop>
            <stop stop-color="#127BCA" offset="100%"></stop>
        </linearGradient>
        <linearGradient x1="50.0007616%" y1="-19.5161868%" x2="50.0007616%" y2="129.624154%" id="linearGradient-2">
            <stop stop-color="#0E76BC" offset="0%"></stop>
            <stop stop-color="#36AEE8" offset="36.0001%"></stop>
            <stop stop-color="#36AEE8" offset="36.0001%"></stop>
            <stop stop-color="#00ADEF" offset="84.616101%"></stop>
            <stop stop-color="#00ADEF" offset="84.616101%"></stop>
            <stop stop-color="#00ADEF" offset="100%"></stop>
        </linearGradient>
        <linearGradient x1="49.9991979%" y1="110.921751%" x2="49.9991979%" y2="-6.21395776%" id="linearGradient-3">
            <stop stop-color="#1C63B7" offset="0%"></stop>
            <stop stop-color="#33BDF2" offset="50%"></stop>
            <stop stop-color="#33BDF2" stop-opacity="0.41960785" offset="100%"></stop>
        </linearGradient>
        <linearGradient x1="50.0009899%" y1="-19.5149993%" x2="50.0009899%" y2="129.627315%" id="linearGradient-4">
            <stop stop-color="#166AB8" offset="0%"></stop>
            <stop stop-color="#36AEE8" offset="39.999399%"></stop>
            <stop stop-color="#36AEE8" offset="39.999399%"></stop>
            <stop stop-color="#0798DD" offset="84.616101%"></stop>
            <stop stop-color="#0798DD" offset="84.616101%"></stop>
            <stop stop-color="#0798DD" offset="100%"></stop>
        </linearGradient>
        <linearGradient x1="49.9985422%" y1="-19.5211325%" x2="49.9985422%" y2="129.626892%" id="linearGradient-5">
            <stop stop-color="#124379" offset="0%"></stop>
            <stop stop-color="#1487CB" offset="38.9999%"></stop>
            <stop stop-color="#1487CB" offset="38.9999%"></stop>
            <stop stop-color="#165197" offset="78.022802%"></stop>
            <stop stop-color="#165197" offset="78.022802%"></stop>
            <stop stop-color="#165197" offset="100%"></stop>
        </linearGradient>
        <linearGradient x1="0.000304652977%" y1="50.000544%" x2="100.000291%" y2="50.000544%" id="linearGradient-6">
            <stop stop-color="#33BDF2" stop-opacity="0.69803923" offset="0%"></stop>
            <stop stop-color="#1DACD8" offset="100%"></stop>
        </linearGradient>
        <linearGradient x1="-0.000760861053%" y1="49.999714%" x2="99.9992241%" y2="49.999714%" id="linearGradient-7">
            <stop stop-color="#05A1E6" stop-opacity="0.24705882" offset="0%"></stop>
            <stop stop-color="#05A1E6" offset="100%"></stop>
        </linearGradient>
        <linearGradient x1="49.9983236%" y1="124.313712%" x2="49.9983236%" y2="-9.42137278%" id="linearGradient-8">
            <stop stop-color="#318ED5" offset="0%"></stop>
            <stop stop-color="#38A7E4" offset="100%"></stop>
        </linearGradient>
        <linearGradient x1="49.99857%" y1="91.1999524%" x2="49.99857%" y2="-76.7854074%" id="linearGradient-9">
            <stop stop-color="#05A1E6" offset="0%"></stop>
            <stop stop-color="#05A1E6" stop-opacity="0.54901963" offset="100%"></stop>
        </linearGradient>
        <linearGradient x1="50.0000694%" y1="100.01049%" x2="50.0000694%" y2="0.0101898204%" id="linearGradient-10">
            <stop stop-color="#1959A6" offset="0%"></stop>
            <stop stop-color="#05A1E6" offset="50%"></stop>
            <stop stop-color="#05A1E6" offset="50%"></stop>
            <stop stop-color="#7EC5EA" offset="91.758698%"></stop>
            <stop stop-color="#7EC5EA" offset="100%"></stop>
        </linearGradient>
        <linearGradient x1="59.8041209%" y1="94.5677442%" x2="38.4710575%" y2="5.75513731%" id="linearGradient-11">
            <stop stop-color="#165096" offset="0%"></stop>
            <stop stop-color="#0D82CA" offset="100%"></stop>
        </linearGradient>
        <linearGradient x1="16.6738062%" y1="205.564966%" x2="87.8125992%" y2="-19.8362753%" id="linearGradient-12">
            <stop stop-color="#97D6EE" offset="0%"></stop>
            <stop stop-color="#55C1EA" offset="70.329303%"></stop>
            <stop stop-color="#55C1EA" offset="100%"></stop>
        </linearGradient>
        <linearGradient x1="6.89015912%" y1="6.30038251%" x2="75.7828966%" y2="116.770678%" id="linearGradient-13">
            <stop stop-color="#7ACCEC" offset="0%"></stop>
            <stop stop-color="#3FB7ED" offset="100%"></stop>
        </linearGradient>
        <linearGradient x1="50.0095709%" y1="94.6864084%" x2="50.0095709%" y2="-3.02458407%" id="linearGradient-14">
            <stop stop-color="#136AB4" offset="0%"></stop>
            <stop stop-color="#59CAF5" stop-opacity="0.54901963" offset="60.000002%"></stop>
            <stop stop-color="#59CAF5" stop-opacity="0.23529412" offset="100%"></stop>
        </linearGradient>
        <linearGradient x1="49.9946843%" y1="76.9980959%" x2="49.9946843%" y2="-3.29893613%" id="linearGradient-15">
            <stop stop-color="#05A1E6" offset="0%"></stop>
            <stop stop-color="#0495D6" offset="87.362701%"></stop>
            <stop stop-color="#0495D6" offset="100%"></stop>
        </linearGradient>
        <linearGradient x1="65.2631169%" y1="-4.16143813%" x2="34.2626975%" y2="105.843625%" id="linearGradient-16">
            <stop stop-color="#38A7E4" stop-opacity="0.32941177" offset="0%"></stop>
            <stop stop-color="#0E88D3" offset="96.153301%"></stop>
            <stop stop-color="#0E88D3" offset="96.153301%"></stop>
            <stop stop-color="#0E88D3" offset="100%"></stop>
        </linearGradient>
        <linearGradient x1="50.016714%" y1="-0.295776148%" x2="50.016714%" y2="101.881944%" id="linearGradient-17">
            <stop stop-color="#168CD4" offset="0%"></stop>
            <stop stop-color="#1C87CC" offset="50%"></stop>
            <stop stop-color="#154B8D" offset="100%"></stop>
        </linearGradient>
        <linearGradient x1="49.9966533%" y1="6.36281892%" x2="49.9966533%" y2="127.96135%" id="linearGradient-18">
            <stop stop-color="#1DA7E7" offset="0%"></stop>
            <stop stop-color="#37ABE7" stop-opacity="0" offset="100%"></stop>
        </linearGradient>
    </defs>
    <g id="Symbols" stroke="none" stroke-width="1" fill="none" fill-rule="evenodd">
        <g id="logos/technologies/microsoft.net" fill-rule="nonzero">
            <g id="Group" transform="translate(118.000000, 46.000000)" fill="#000000">
                <path d="M46.8423929,2.42425385 C46.8423929,2.33254038 46.816544,2.26697885 46.7634062,2.224125 C46.704544,2.178 46.6027307,2.15340577 46.4610062,2.15340577 L46.2572551,2.15340577 L46.2572551,2.69859808 L46.5031573,2.69859808 C46.7302329,2.69859808 46.8423929,2.60688462 46.8423929,2.42425385 Z M47.1600818,3.56098846 L46.8800818,3.56098846 L46.7015218,3.17739808 C46.6108373,2.98517885 46.5139129,2.88906923 46.4080284,2.88906923 L46.2572551,2.88906923 L46.2572551,3.56098846 L46.0265707,3.56098846 L46.0265707,1.96201731 L46.4887929,1.96201731 C46.6943396,1.96201731 46.8486329,2.00535577 46.9546062,2.09573654 C47.0443484,2.17346538 47.0892196,2.27312308 47.0892196,2.39720192 C47.0892196,2.50729615 47.0525973,2.59990962 46.9788018,2.67672115 C46.9069973,2.75451923 46.8037618,2.80694423 46.6718684,2.83406538 L46.6718684,2.84098846 C46.7634062,2.86196538 46.854944,2.95982308 46.9437618,3.13630962 L47.1600818,3.56185385 L47.1600818,3.56098846 Z M47.6716196,2.77722692 C47.6716196,2.46269423 47.5612729,2.19709038 47.3413618,1.98649038 C47.1205973,1.77595962 46.8513529,1.67026154 46.533664,1.67026154 C46.2060551,1.67026154 45.9333084,1.77595962 45.7169884,1.98830769 C45.5006684,2.20148654 45.3930418,2.46527308 45.3930418,2.77722692 C45.3930418,3.09617308 45.505184,3.362625 45.7277618,3.57497308 C45.9476729,3.78725192 46.2168996,3.89210192 46.533664,3.89210192 C46.8486329,3.89210192 47.1178596,3.78640385 47.3395662,3.57140769 C47.5612729,3.35995962 47.6716196,3.094425 47.6716196,2.77722692 Z M47.8268551,2.77030385 C47.8268551,3.12336346 47.702144,3.41951538 47.4517796,3.65801538 C47.2013618,3.89831538 46.8944284,4.01798077 46.5273529,4.01798077 C46.157664,4.01798077 45.8507484,3.90006346 45.6065707,3.66848654 C45.3625351,3.4335 45.241344,3.13817885 45.241344,2.77996154 C45.241344,2.42956731 45.365184,2.13514615 45.6128818,1.89316731 C45.8605796,1.65201923 46.1692907,1.53145385 46.5381796,1.53145385 C46.8998151,1.53145385 47.2031573,1.646775 47.4490596,1.87653462 C47.7012018,2.11243846 47.8268551,2.40950769 47.8268551,2.77030385 Z" id="path12261"></path>
                <path d="M12.7253796,7.22885192 L11.9293796,7.22885192 L11.9293796,2.79385962 C11.9293796,2.44353462 11.9530773,2.01715962 11.9954418,1.51390385 L11.9774862,1.51390385 C11.9029618,1.80830769 11.8347484,2.02150385 11.7746596,2.153475 L9.46104178,7.22885192 L9.073344,7.22885192 L6.7552,2.19016731 C6.68986489,2.04945577 6.62151644,1.82314038 6.55237689,1.51390385 L6.53515022,1.51390385 C6.55956089,1.77860769 6.57320356,2.20763077 6.57320356,2.8026 L6.57320356,7.22885192 L5.80584889,7.22885192 L5.80584889,0.624461538 L6.85586311,0.624461538 L8.93708089,5.22979615 C9.09409956,5.57669423 9.19554667,5.84055 9.24486933,6.02053269 L9.27789689,6.02053269 C9.41337422,5.65966731 9.52106844,5.38880192 9.60277156,5.21056731 L11.7287929,0.624461538 L12.7249529,0.624461538 L12.7249529,7.22885192 L12.7253796,7.22885192 Z" id="path12265"></path>
                <path d="M15.173984,7.22864423 L14.4004551,7.22864423 L14.4004551,2.51231538 L15.173984,2.51231538 L15.173984,7.22864423 Z M15.307744,0.821648077 C15.307744,0.960594231 15.2574862,1.07676346 15.157824,1.17204231 C15.0600462,1.26723462 14.9389262,1.31533269 14.7970596,1.31533269 C14.6588551,1.31533269 14.5385884,1.26919038 14.4399396,1.17728654 C14.3412196,1.08467308 14.2926862,0.966686538 14.2926862,0.821648077 C14.2926862,0.68535 14.341504,0.569180769 14.4399396,0.474819231 C14.5385884,0.380457692 14.6588551,0.335025 14.7970596,0.335025 C14.9388551,0.335025 15.0600462,0.380457692 15.157824,0.474819231 C15.2574862,0.569180769 15.307744,0.68535 15.307744,0.821648077 Z" id="path12267"></path>
                <path d="M20.0084196,7.01042885 C19.6368818,7.23234808 19.1935396,7.34244231 18.6810596,7.34244231 C17.9865173,7.34244231 17.4273707,7.11792692 17.0001884,6.669675 C16.5855573,6.23455962 16.3764907,5.67280385 16.3764907,4.98430385 C16.3764907,4.21187885 16.6035129,3.58636154 17.0612018,3.11105769 C17.5162418,2.63485385 18.1283129,2.39720192 18.8983218,2.39720192 C19.3191929,2.39720192 19.6925262,2.47757885 20.0191929,2.63660192 L20.0191929,3.41162308 C19.6575573,3.16433077 19.2752462,3.042 18.8650773,3.042 C18.3714773,3.042 17.9703573,3.20976346 17.6589084,3.544425 C17.3348907,3.88692692 17.1706951,4.34475 17.1706951,4.91616346 C17.1706951,5.46485192 17.3205973,5.89906731 17.6185529,6.21974423 C17.9173796,6.53862115 18.3149796,6.69854423 18.8166151,6.69854423 C19.2402062,6.69854423 19.6368818,6.56307692 20.0084196,6.29314615 L20.0084196,7.01042885 Z" id="path12271"></path>
                <path d="M23.7086329,3.27748846 C23.572224,3.17530385 23.3757262,3.12545769 23.1163307,3.12545769 C22.8013618,3.12545769 22.5365796,3.26267308 22.3221262,3.53959615 C22.0788729,3.84890192 21.9577529,4.277025 21.9577529,4.82396538 L21.9577529,7.22843654 L21.1823573,7.22843654 L21.1823573,2.51210769 L21.9577529,2.51210769 L21.9577529,3.48459231 L21.9764196,3.48459231 C22.0904284,3.14034231 22.2663396,2.87556923 22.5014684,2.68776346 C22.7213084,2.51652115 22.9699307,2.42998269 23.2436196,2.42998269 C23.4500373,2.42998269 23.6035307,2.45165192 23.7084907,2.49428077 L23.7084907,3.27714231 L23.7086329,3.27748846 Z" id="path12275"></path>
                <path d="M28.0302507,4.87903846 C28.0302507,4.27534615 27.8902507,3.81402692 27.6102507,3.49772885 C27.3383573,3.19368462 26.9586951,3.04165385 26.4696284,3.04165385 C25.9876551,3.04165385 25.6008996,3.19543269 25.3118507,3.50297308 C25.0058418,3.83149038 24.8532907,4.29540577 24.8532907,4.89743654 C24.8532907,5.46185769 24.9986773,5.90479615 25.2921707,6.22107692 C25.5837973,6.53910577 25.9768818,6.69812885 26.4696284,6.69812885 C26.9793707,6.69812885 27.3697351,6.53652692 27.6371662,6.21500192 C27.8992284,5.90045192 28.0302507,5.45569615 28.0302507,4.87903846 M28.8253973,4.85248846 C28.8253973,5.60388462 28.6073529,6.20766346 28.1729707,6.66024231 C27.7368284,7.11456923 27.1498951,7.34175 26.4121884,7.34175 C25.6852551,7.34175 25.1063573,7.11456923 24.6819129,6.66024231 C24.2663573,6.22247885 24.0572907,5.64407308 24.0572907,4.92504231 C24.0572907,4.10458846 24.2932729,3.47200962 24.7671218,3.02292692 C25.2050773,2.60619231 25.7910862,2.39649231 26.5252729,2.39649231 C27.2476729,2.39649231 27.8122062,2.61576346 28.2187129,3.05004808 C28.6216996,3.48689423 28.8253973,4.088025 28.8253973,4.85248846" id="path12279"></path>
                <path d="M32.6708373,5.96686154 C32.6708373,6.35304808 32.5228018,6.672825 32.2257173,6.92795769 C31.9017707,7.20405 31.4566329,7.34209615 30.8966329,7.34209615 C30.4380018,7.34209615 30.0359396,7.24863462 29.6949084,7.05816346 L29.6949084,6.24645 C30.0745707,6.54701538 30.4936284,6.69819808 30.9540551,6.69819808 C31.5679218,6.69819808 31.8757084,6.47802692 31.8757084,6.03941538 C31.8757084,5.85501923 31.808224,5.70215769 31.6720284,5.58417115 C31.5356018,5.46360577 31.2708196,5.31946731 30.8768818,5.15080385 C30.4712284,4.97781346 30.1822507,4.80047885 30.011744,4.6161 C29.8071218,4.39765962 29.7038862,4.11374423 29.7038862,3.76425 C29.7038862,3.37281923 29.8645618,3.04689808 30.1822507,2.78743846 C30.5008107,2.52706154 30.9100551,2.39685577 31.4126151,2.39685577 C31.797664,2.39685577 32.1422862,2.47024038 32.4482773,2.61792692 L32.4482773,3.37806346 C32.1287929,3.15349615 31.7635662,3.04165385 31.3489351,3.04165385 C31.0922773,3.04165385 30.8858596,3.10385769 30.7323662,3.22513269 C30.5771307,3.34919423 30.4990151,3.50738654 30.4990151,3.70043654 C30.4990151,3.90928846 30.5643484,4.07180769 30.6938062,4.18797692 C30.8086684,4.295475 31.0527751,4.42652885 31.4207396,4.57939038 C31.8344284,4.74805385 32.1333084,4.92280962 32.3154596,5.101875 C32.5515129,5.32820769 32.6708373,5.61653654 32.6708373,5.96686154" id="path12283"></path>
                <path d="M37.409664,4.87903846 C37.409664,4.27534615 37.269664,3.81402692 36.9887929,3.49772885 C36.7177707,3.19368462 36.3372373,3.04165385 35.8490418,3.04165385 C35.3670684,3.04165385 34.9802951,3.19543269 34.6895218,3.50297308 C34.3844018,3.83149038 34.2326862,4.29540577 34.2326862,4.89743654 C34.2326862,5.46185769 34.3780729,5.90479615 34.6688462,6.22107692 C34.9641529,6.53910577 35.3572373,6.69812885 35.8490418,6.69812885 C36.3596373,6.69812885 36.7491307,6.53652692 37.0165796,6.21500192 C37.278624,5.90045192 37.409664,5.45569615 37.409664,4.87903846 M38.2065884,4.85248846 C38.2065884,5.60388462 37.9867484,6.20766346 37.5514596,6.66024231 C37.1170951,7.11456923 36.5301618,7.34175 35.7924551,7.34175 C35.0646684,7.34175 34.4857707,7.11456923 34.0613084,6.66024231 C33.6457707,6.22247885 33.4366862,5.64407308 33.4366862,4.92504231 C33.4366862,4.10458846 33.6744818,3.47200962 34.1456818,3.02292692 C34.5836373,2.60619231 35.1705707,2.39649231 35.9055396,2.39649231 C36.6280107,2.39649231 37.1916196,2.61576346 37.5972551,3.05004808 C38.0011129,3.48689423 38.2065884,4.088025 38.2065884,4.85248846" id="path12287"></path>
                <path d="M41.623424,0.909778846 C41.4708551,0.827653846 41.3012907,0.785717308 41.1082951,0.785717308 C40.5653084,0.785717308 40.296064,1.11856154 40.296064,1.78525385 L40.296064,2.51217692 L41.4313707,2.51217692 L41.4313707,3.15174808 L40.296064,3.15174808 L40.296064,7.22850577 L39.5198151,7.22850577 L39.5198151,3.15174808 L38.6959573,3.15174808 L38.6959573,2.51217692 L39.5198151,2.51217692 L39.5198151,1.74771346 C39.5198151,1.22865577 39.6831396,0.821509615 40.0152107,0.527936538 C40.2997262,0.272803846 40.6478684,0.146146154 41.0616284,0.146146154 C41.3012907,0.146146154 41.4879573,0.174115385 41.623424,0.228288462 L41.623424,0.909778846 Z" id="path12291"></path>
                <path d="M44.6838684,7.18111731 C44.5007929,7.28337115 44.2566862,7.33404808 43.9551396,7.33404808 C43.1097529,7.33404808 42.6870862,6.87008077 42.6870862,5.94218077 L42.6870862,3.15244038 L41.8560462,3.15244038 L41.8560462,2.51196923 L42.6870862,2.51196923 L42.6870862,1.36131923 C42.934784,1.28526923 43.1923129,1.20229615 43.4642773,1.116675 L43.4642773,2.51196923 L44.6838684,2.51196923 L44.6838684,3.15244038 L43.4642773,3.15244038 L43.4642773,5.81379231 C43.4642773,6.13007308 43.5173973,6.35633654 43.6284729,6.48739038 C43.7406862,6.62284038 43.9237618,6.68925 44.1822329,6.68925 C44.3751573,6.68925 44.5420729,6.63891923 44.6838684,6.53721923 L44.6838684,7.18111731 Z" id="path12295"></path>
                <path d="M2.765936,25.6358423 C2.765936,26.0053962 2.63045689,26.3251731 2.35669867,26.5951904 C2.08387378,26.8642904 1.75268089,26.9997577 1.36412089,26.9997577 C0.984464,26.9997577 0.661383111,26.8642904 0.396672,26.5951904 C0.131889778,26.3251731 -1.13686838e-13,26.0053962 -1.13686838e-13,25.6358423 C-1.13686838e-13,25.2558173 0.131889778,24.9351231 0.396672,24.6695192 C0.661383111,24.4029981 0.984464,24.2710962 1.36412089,24.2710962 C1.75268089,24.2710962 2.08387378,24.4048154 2.35669867,24.6747635 C2.63045689,24.9447808 2.765936,25.2653885 2.765936,25.6358423" id="path12299"></path>
                <path d="M20.1276729,26.7219865 L17.5986773,26.7219865 L8.41870933,12.9198981 C8.20418311,12.5878846 8.01931022,12.2270192 7.86229156,11.8329923 L7.78683378,11.8329923 C7.85216889,12.2025462 7.88562489,12.9958788 7.88562489,14.2112596 L7.88562489,26.7219865 L5.80081778,26.7219865 L5.80081778,9.40581346 L8.50665956,9.40581346 L17.4120107,22.9903788 C17.7665351,23.5294269 18.0087751,23.9155962 18.1317618,24.1480212 L18.1812907,24.1480212 C18.0987307,23.6499923 18.0557262,22.8007385 18.0557262,21.6020077 L18.0557262,9.40581346 L20.127904,9.40581346 L20.127904,26.7219865 L20.1276729,26.7219865 Z" id="path12303"></path>
                <polygon id="path12307" points="33.4929173 26.7219865 24.0661084 26.7219865 24.0661084 9.40581346 33.0836729 9.40581346 33.0836729 11.2406192 26.1491307 11.2406192 26.1491307 17.001 32.5748551 17.001 32.5748551 18.8367231 26.1491307 18.8367231 26.1491307 24.8863327 33.4929173 24.8863327 33.4929173 26.7219865"></polygon>
                <polygon id="path12311" points="47.7916729 11.2408269 42.6682062 11.2408269 42.6682062 26.7222635 40.5843307 26.7222635 40.5843307 11.2408269 35.4509262 11.2408269 35.4509262 9.40519038 47.7916729 9.40519038"></polygon>
            </g>
            <g id="Microsoft_.NET_Logo" transform="translate(52.000000, 47.000000)">
                <path d="M23.9291036,5.4723 C26.4071455,12.88545 27.3459617,26.1098357 34.5921665,26.1098357 C35.1439474,26.1098357 35.7012703,26.0570357 36.2608055,25.9529357 C29.6736493,24.4504286 28.8929636,11.3698929 24.8734398,4.596 C24.5582741,4.8762 24.2453427,5.16827143 23.9291036,5.4723" id="path12339" fill="url(#linearGradient-1)"></path>
                <path d="M24.8734398,4.596 C28.8929636,11.3698929 29.6736493,24.4504286 36.2608055,25.9529357 C36.7783055,25.8599143 37.2969227,25.7192786 37.816635,25.5418714 C31.9040141,22.7077071 30.269656,10.0058357 25.7049884,3.8907 C25.4285284,4.11578571 25.150995,4.35160714 24.8734398,4.596" id="path12367" fill="url(#linearGradient-2)"></path>
                <path d="M30.6649055,0.567492857 C30.1142198,0.567492857 29.5557579,0.620271429 28.9951712,0.724392857 C27.5288884,0.994821429 26.0394522,1.61245714 24.5377931,2.54708571 C24.9480036,2.943 25.3383027,3.39621429 25.7054265,3.89061429 C27.2325389,2.65092857 28.7496846,1.73472857 30.2613322,1.18407857 C30.828556,0.978557143 31.393655,0.823907143 31.9608789,0.722228571 C31.5517417,0.620442857 31.1204808,0.567492857 30.6649055,0.567492857" id="path12379" fill="#14559A"></path>
                <path d="M42.4321874,22.9294071 C43.0370436,22.4589 43.643017,21.9385286 44.2500855,21.3706714 C41.7322208,13.9920429 40.831015,0.5784 33.5339255,0.5784 C33.0120008,0.5784 32.4856512,0.625992857 31.960397,0.721178571 C38.6072655,2.33843571 39.4587255,16.4854929 42.4321874,22.9294071" id="path12459" fill="url(#linearGradient-3)"></path>
                <path d="M42.3047455,24.4969071 C42.0194579,24.2308071 41.7485836,23.9387357 41.4820465,23.6271857 C40.2546131,24.4774286 39.0316265,25.12215 37.816416,25.5418714 C38.2487284,25.7485286 38.7020912,25.90215 39.1831636,25.9973357 C39.5557636,26.0717571 39.9417255,26.1098357 40.3475112,26.1098357 C41.7109731,26.1098357 42.7890817,25.9519071 43.7068693,25.5213643 C43.2015703,25.2541286 42.7382189,24.9079714 42.3047455,24.4969071" id="path12525" fill="#1969BC"></path>
                <path d="M30.2608065,1.1853 C36.2143674,4.23147857 36.7318674,18.0259071 41.4823093,23.6271857 C41.8007827,23.4076286 42.1159265,23.1750214 42.4310703,22.9294071 C39.4576303,16.4854929 38.6072655,2.3373 31.9615141,0.721178571 C31.3942465,0.825021429 30.8280741,0.978728571 30.2608065,1.1853" id="path12553" fill="url(#linearGradient-4)"></path>
                <path d="M25.7049884,3.8907 C30.269656,10.0058357 31.9040141,22.7077071 37.816635,25.5418714 C39.0318893,25.12215 40.2548979,24.4774286 41.4823093,23.6271857 C36.7318674,18.0259071 36.2143674,4.23147857 30.2608065,1.1853 C28.7492027,1.73481429 27.2320789,2.65101429 25.7049884,3.8907" id="path12581" fill="url(#linearGradient-5)"></path>
                <path d="M21.0086074,5.29375714 C20.2931541,6.87640714 19.562236,8.95654286 18.6787074,11.6717357 C20.4357979,9.24966429 22.1873684,7.16301429 23.9289722,5.4723 C23.6890274,4.75073571 23.4313836,4.08548571 23.1538284,3.49262143 C22.4417046,4.02595714 21.7240389,4.62636429 21.0086074,5.29375714" id="path12651" fill="url(#linearGradient-6)"></path>
                <path d="M23.788256,3.0363 C23.5781455,3.18340714 23.3669836,3.33381429 23.1546827,3.49279286 C23.4321941,4.08559286 23.6887208,4.75090714 23.9287312,5.47238571 C24.2449046,5.16949286 24.5589312,4.87637143 24.8729798,4.59617143 C24.535756,4.02932143 24.1774817,3.50575714 23.788256,3.0363" id="path12655" fill="#2B74B1"></path>
                <path d="M24.5377931,2.54708571 C24.2878817,2.70182143 24.0391312,2.86510714 23.7880808,3.03602143 C24.1773065,3.5055 24.5355808,4.02906429 24.8739655,4.59702857 C25.1515427,4.35143571 25.4290541,4.11456429 25.7055141,3.89061429 C25.3383903,3.3963 24.9480912,2.943 24.5377931,2.54708571" id="path12659" fill="#125A9E"></path>
                <path d="M17.4645703,1.083 C17.468075,1.083 17.472456,1.07442857 17.4746465,1.07442857 C17.4790274,1.07442857 17.4858179,1.07442857 17.4880084,1.06585714 C17.4880084,1.06585714 17.4923893,1.06585714 17.4950179,1.06585714 C17.5259693,1.05557143 17.5547303,1.04335714 17.5856817,1.03210714 C17.5935674,1.03210714 17.5977293,1.03210714 17.6034246,1.02353571 C17.6113103,1.02353571 17.618977,1.01496429 17.6266874,1.01389286 C17.6598731,1.00360714 17.693037,0.991392857 17.7240103,0.980142857 C17.7240103,0.980142857 17.727515,0.980142857 17.7292674,0.980142857 C17.8033931,0.958521429 17.8719112,0.931692857 17.9437808,0.9066 C17.953857,0.9066 17.9637141,0.898028571 17.9758055,0.898028571 C18.0057055,0.8886 18.0366789,0.8781 18.0675865,0.8712 C18.0820436,0.862628571 18.0963474,0.862628571 18.1095998,0.858128571 C18.1416246,0.8487 18.1726855,0.8382 18.2024979,0.8313 C18.2158598,0.8313 18.2279731,0.822728571 18.2378741,0.821871429 C18.340717,0.794185714 18.4424427,0.768214286 18.5452855,0.743978571 C18.5597427,0.743978571 18.5718341,0.735407143 18.5872989,0.73455 C18.6171112,0.725978571 18.6448208,0.721478571 18.6768674,0.717192857 C18.6902293,0.708621429 18.7056284,0.708621429 18.721115,0.704121429 C18.7509274,0.69555 18.7796665,0.694692857 18.8117789,0.687621429 C18.8196646,0.687621429 18.8238265,0.687621429 18.8328074,0.687621429 C18.8947322,0.675407143 18.9577741,0.665121429 19.0196989,0.653871429 C19.0308703,0.653871429 19.0450865,0.653871429 19.0572874,0.653871429 C19.0870998,0.6453 19.1136484,0.644442857 19.1435484,0.639085714 C19.159977,0.639085714 19.1767122,0.630514286 19.1921989,0.630514286 C19.2197989,0.630514286 19.2474865,0.621942857 19.2750865,0.6183 C19.2895436,0.6183 19.3038255,0.6183 19.3204731,0.609728571 C19.3856617,0.601157143 19.4531503,0.597728571 19.5217122,0.592371429 C19.3282055,0.574157143 19.129157,0.562071429 18.9268008,0.562071429 C12.6304697,0.562071429 3.95559257,11.9906786 0.0477501905,26.7911143 C0.0477501905,26.7911143 0.33304219,26.7911143 0.800789905,26.7911143 C2.05143133,24.6092786 3.17490905,22.5453 4.20218324,20.6078571 C6.93899924,10.1247 12.5132573,2.9754 17.4649646,1.08130714" id="path12803" fill="url(#linearGradient-7)"></path>
                <path d="M21.0086731,5.29375714 C21.7241484,4.62636429 22.4417703,4.02595714 23.1538941,3.49270714 C22.9913827,3.14438571 22.8233074,2.82201429 22.6430093,2.52666429 C22.066936,3.21032143 21.5405865,4.11250714 21.0086731,5.29375714" id="path12807" fill="#0D82CA"></path>
                <path d="M21.5259103,1.16963571 C21.9372598,1.50713571 22.305435,1.97123571 22.6427465,2.52726429 C22.748897,2.39961429 22.8562084,2.28167143 22.967857,2.17133571 C22.5001465,1.74407143 21.9947598,1.39358571 21.4462865,1.12965 C21.4684103,1.14165 21.4905122,1.15129286 21.5135122,1.16080714 C21.5135122,1.16080714 21.5222741,1.16937857 21.5259979,1.16937857" id="path12811" fill="#0D82CA"></path>
                <path d="M4.20190067,20.6091214 C9.94313219,9.78621429 12.6633619,2.93659286 17.4646798,1.08248571 C12.514081,2.97777857 6.93871667,10.1269929 4.20190067,20.6091214" id="path12831" fill="url(#linearGradient-8)"></path>
                <path d="M22.9674846,2.17105714 C22.8558579,2.28252857 22.7497074,2.39935714 22.642396,2.52700714 C22.8226722,2.82227143 22.9906817,3.14359286 23.1544198,3.49296429 C23.3667208,3.33398571 23.5778827,3.18357857 23.7879931,3.03647143 C23.5281808,2.72275714 23.2539331,2.4318 22.9674846,2.17105714" id="path12843" fill="#127BCA"></path>
                <path d="M6.80823438,26.7437357 C6.77284943,26.7523071 6.73746448,26.7523071 6.70428971,26.75595 C6.69322781,26.75595 6.69101543,26.75595 6.68437829,26.75595 C6.65447829,26.75595 6.6235159,26.7645214 6.5959159,26.7645214 C6.5959159,26.7645214 6.584854,26.7645214 6.58150257,26.7645214 C6.50967029,26.7730929 6.43885657,26.7730929 6.37029686,26.77845 L6.34818181,26.77845 C12.1590792,26.6193857 14.8151674,23.7732643 16.1332646,19.6453286 C17.1351008,16.5158786 17.9578217,13.8796286 18.678795,11.6674929 C16.244957,15.01875 13.800057,19.0135929 11.3419046,23.4888 C10.1565021,25.6458 8.35407533,26.54685 6.80818838,26.7394929" id="path12923" fill="url(#linearGradient-9)"></path>
                <path d="M6.80823438,26.7415714 C8.35412133,26.5489286 10.1565503,25.6489286 11.3419506,23.4908786 C13.8001008,19.0167857 16.246096,15.0208286 18.6777217,11.6695714 C19.5623455,8.95326429 20.2921684,6.87424286 21.008717,5.29159286 C16.1620693,9.80464286 11.2966121,17.3087571 6.80823438,26.7394071" id="path12949" fill="url(#linearGradient-10)"></path>
                <path d="M4.20162686,20.6093786 C3.17439648,22.5468214 2.05092095,24.6108 0.800233524,26.7926357 C1.34100733,26.7926357 2.12390105,26.7926357 2.99083676,26.7926357 C3.28055352,24.6258429 3.69190524,22.5597214 4.20162686,20.6104071" id="path12961" fill="#05A1E6"></path>
                <path d="M19.3201884,0.615257143 C19.3024455,0.615257143 19.289215,0.623828571 19.2737503,0.623828571 C19.2472017,0.6324 19.2195141,0.6324 19.1919141,0.635185714 C19.1754855,0.635185714 19.1598893,0.635185714 19.1432636,0.643757143 C19.1133636,0.652328571 19.0857636,0.653185714 19.0570027,0.658542857 C19.0436408,0.658542857 19.030476,0.658542857 19.0194141,0.667114286 C18.9563284,0.6774 18.8944474,0.688757143 18.8325227,0.699128571 C18.8215703,0.699128571 18.8180655,0.699128571 18.8114941,0.699128571 C18.7794693,0.7077 18.7506427,0.7122 18.7208303,0.716485714 C18.7052779,0.725057143 18.689857,0.725057143 18.6754436,0.728485714 C18.6456312,0.737057143 18.6157312,0.7407 18.5869922,0.745842857 C18.5714398,0.754414286 18.5593922,0.754414286 18.544957,0.755271429 C18.442136,0.779507143 18.3403884,0.805478571 18.2375455,0.833164286 C18.2265931,0.833164286 18.2154436,0.841735714 18.2021693,0.84345 C18.1712179,0.852021429 18.1413179,0.860807143 18.1092931,0.870278571 C18.0959312,0.87885 18.0805322,0.87885 18.0672579,0.882278571 C18.0363065,0.89085 18.0053331,0.899635714 17.975477,0.909107143 C17.9634293,0.909107143 17.953375,0.917678571 17.9423131,0.917678571 C17.8715389,0.943628571 17.8018817,0.9696 17.728895,0.991242857 C17.728895,0.991242857 17.728895,0.991242857 17.728895,0.991242857 C17.6979436,1.00067143 17.6647579,1.01286429 17.6315941,1.02411429 C17.6182322,1.03268571 17.6061189,1.03461429 17.5907198,1.04061429 C17.5597465,1.05004286 17.528795,1.06225714 17.5000341,1.07350714 C17.4890817,1.08207857 17.4779322,1.08293571 17.4702217,1.08743571 C12.6689148,2.94154286 9.94868505,9.79116429 4.20745352,20.6140714 C3.6976859,22.5633857 3.285228,24.6295071 2.99661962,26.7962143 L3.30402667,26.7962143 C4.16985619,26.7962143 4.41423448,26.7876429 5.41054629,26.7876429 L5.46141133,26.7876429 L5.6095861,26.7876429 L5.66045333,26.7876429 L5.67486667,26.7876429 L5.72573171,26.7876429 L5.75448171,26.7876429 L5.77439314,26.7876429 L5.81420067,26.7876429 L5.93805019,26.7876429 L6.06189752,26.7876429 L6.16584,26.7876429 L6.19344219,26.7876429 C6.25315457,26.7876429 6.31397095,26.7876429 6.37589571,26.7876429 C6.44445324,26.7790714 6.51522533,26.7790714 6.58710143,26.7737143 C6.58710143,26.7737143 6.59816333,26.7737143 6.60037571,26.7737143 C6.63027571,26.7737143 6.6600881,26.7651429 6.6888381,26.7651429 C6.6999,26.7651429 6.70095143,26.7651429 6.70980095,26.7651429 C6.74182352,26.7651429 6.77835848,26.7565714 6.81374343,26.7529286 C11.3021233,17.3222786 16.1675674,9.81816429 21.014215,5.30511429 C21.5472017,4.12386429 22.072456,3.22167857 22.6474779,2.53913571 C22.3113055,1.98312857 21.9430865,1.51797857 21.531737,1.18039286 C21.531737,1.18039286 21.5205655,1.18039286 21.5196893,1.17182143 C21.4964265,1.16239286 21.4744122,1.15103571 21.4511493,1.13980714 C21.4278646,1.12759286 21.407975,1.11816429 21.3837265,1.10605714 C21.3626979,1.09748571 21.3383617,1.08612857 21.317377,1.0749 C21.2886379,1.06632857 21.265375,1.05411429 21.2399874,1.04286429 C21.2189589,1.03429286 21.2001646,1.02550714 21.1791141,1.01691429 C21.1359398,1.00041429 21.092875,0.983164286 21.051957,0.964992857 C21.0331189,0.956421429 21.0155074,0.951921429 20.9977208,0.945064286 C20.9679084,0.934564286 20.9335836,0.920828571 20.9026322,0.907842857 C20.8870798,0.899271429 20.8694465,0.897557143 20.8517693,0.891342857 C20.8064703,0.876557143 20.7622008,0.861064286 20.7201655,0.8472 C20.7092131,0.8472 20.7092131,0.8472 20.7092131,0.8472 C20.6583284,0.8307 20.6085827,0.818657143 20.5566027,0.804792857 C20.544555,0.796221429 20.5344789,0.796221429 20.5223655,0.794507143 C20.4769789,0.782292857 20.4371779,0.770271429 20.3940912,0.759021429 C20.3831389,0.759021429 20.3730627,0.75045 20.3642789,0.75045 C20.2603408,0.723621429 20.1530731,0.702 20.0447103,0.682092857 C20.0335389,0.682092857 20.0226084,0.673521429 20.0115465,0.673521429 C19.9651084,0.66495 19.9197655,0.657021429 19.8733274,0.651878571 C19.862156,0.643307143 19.8555846,0.643307143 19.8457274,0.643307143 C19.7904398,0.634735714 19.7362474,0.628521429 19.682055,0.622521429 C19.6711027,0.622521429 19.663217,0.622521429 19.653316,0.622521429 C19.6090903,0.61395 19.568216,0.613092857 19.5272541,0.608592857 C19.4575531,0.617164286 19.3912474,0.620807143 19.3259931,0.626807143" id="path12981" fill="url(#linearGradient-11)"></path>
                <path d="M45.4623389,24.1291929 C46.7450379,22.5974571 47.7899608,19.9937357 49.2165084,15.7024071 C47.5710227,17.9134929 45.9146503,19.8141643 44.2570293,21.3642643 C44.2570293,21.3728357 44.2570293,21.3728357 44.2482674,21.3781929 C44.609915,22.4383071 45.0068293,23.3739643 45.4591408,24.1290214" id="path13097" fill="#079AE1"></path>
                <path d="M45.4623389,24.1291929 C45.0255141,24.6506143 44.5633674,25.0476429 44.0491312,25.3418786 C43.9363436,25.4059286 43.8225046,25.46625 43.7063436,25.52145 C44.2493408,25.8080786 44.8419522,25.9995857 45.5054036,26.0763429 C45.6026389,26.0857714 45.6988884,26.0945571 45.7995627,26.1014357 L45.8173055,26.1014357 C45.8624293,26.1014357 45.9102036,26.1014357 45.9588541,26.1100071 L45.9783493,26.1100071 C46.0270217,26.1100071 46.0757598,26.1100071 46.1232493,26.1100071 C46.1754484,26.1100071 46.2272093,26.1100071 46.2792112,26.1100071 C46.2960779,26.1100071 46.3119589,26.1100071 46.3278836,26.1100071 C46.3632598,26.1100071 46.4012865,26.1100071 46.4384589,26.1100071 C46.4562017,26.1100071 46.4747112,26.1100071 46.4924103,26.1014357 C46.5269103,26.1014357 46.5631846,26.1014357 46.5985608,26.0928643 C46.6073227,26.0928643 46.6073227,26.0928643 46.6110465,26.0928643 C46.6252846,26.0928643 46.6375731,26.0928643 46.6508474,26.0928643 C46.6871217,26.0928643 46.7269227,26.0842929 46.7658474,26.08065 C46.7658474,26.08065 46.7746093,26.08065 46.7746093,26.08065 C46.7862189,26.08065 46.7984855,26.0720786 46.8099855,26.0720786 C46.8506846,26.0635071 46.8931579,26.0598643 46.9327836,26.0538643 C46.9461455,26.0538643 46.9557836,26.0538643 46.9690579,26.0538643 C47.0141598,26.0452929 47.060795,26.0399357 47.1072331,26.0313643 L47.115995,26.0313643 C47.124757,26.0313643 47.1256331,26.0313643 47.129357,26.0313643 C47.222255,26.0140071 47.3129189,25.9967571 47.404656,25.9742571 C46.6438817,25.7016429 46.006957,25.0590857 45.4584836,24.1439357" id="path13101" fill="#1969BC"></path>
                <path d="M34.5922979,26.1100071 C35.1441227,26.1100071 35.7014455,26.0572286 36.2609589,25.9520786 C36.7784808,25.8601714 37.2970541,25.71945 37.8167665,25.5420429 C38.2491665,25.7487 38.7025293,25.9023214 39.1824408,25.9975071 C39.5550627,26.0719286 39.942076,26.1100071 40.3479493,26.1100071 L34.5922979,26.1100071 Z" id="path13105" fill="#1E5CB3"></path>
                <path d="M40.348037,26.1100071 C41.7103598,26.1100071 42.7896074,25.9520786 43.7063436,25.5215357 C44.2492531,25.8081643 44.8419522,25.9996714 45.5054036,26.0765143 C45.6027265,26.0859429 45.698976,26.0947286 45.7995627,26.1016071 L45.8173055,26.1016071 C45.8624293,26.1016071 45.9102036,26.1016071 45.9588541,26.1101786 L45.9792255,26.1101786 C46.027876,26.1101786 46.0765265,26.1101786 46.1241255,26.1101786 L40.3441379,26.1101786 L40.348037,26.1100071 Z" id="path13109" fill="#1E5CB3"></path>
                <path d="M44.251816,21.3783643 C44.251816,21.3783643 44.251816,21.3697929 44.251816,21.3697929 C43.6447693,21.9376714 43.038796,22.4580429 42.433896,22.92855 C42.117635,23.1741429 41.802535,23.4066857 41.4840836,23.6263286 C41.7505331,23.9378571 42.021495,24.2299286 42.3067827,24.49605 C42.740256,24.9070286 43.2035198,25.2532714 43.7089065,25.5204214 C43.8239065,25.4650286 43.9389065,25.4046214 44.050555,25.34085 C44.5658427,25.0466143 45.028077,24.64965 45.4649017,24.12825 C45.0125903,23.3731929 44.6156541,22.4374286 44.2540284,21.3773357" id="path13117" fill="#175FAB"></path>
                <path d="M19.5216684,0.597 C19.533935,0.597 19.5449312,0.597 19.5570446,0.605571429 C19.586857,0.605571429 19.616757,0.605571429 19.6466131,0.615 C19.6577846,0.615 19.6676417,0.615 19.6765131,0.615 C19.7306617,0.623571429 19.784876,0.628071429 19.8401636,0.635785714 C19.8502398,0.635785714 19.8590017,0.635785714 19.8677636,0.644357143 C19.9130627,0.652928571 19.9595446,0.66 20.0059827,0.666857143 C20.0160589,0.666857143 20.0292674,0.675428571 20.0403074,0.675428571 C20.1464798,0.696214286 20.2548427,0.717835714 20.3587808,0.744664286 C20.3686379,0.744664286 20.3787141,0.753235714 20.3875417,0.753235714 C20.4317674,0.763521429 20.4715684,0.776592857 20.5157941,0.7887 C20.529156,0.7887 20.5389693,0.797271429 20.5511922,0.7992 C20.6031941,0.812271429 20.6518227,0.825171429 20.7026855,0.841607143 C20.704876,0.841607143 20.7079427,0.841607143 20.713857,0.850178571 C20.7569217,0.863035714 20.8011693,0.8796 20.8465341,0.8943 C20.864277,0.902871429 20.8807712,0.906514286 20.897397,0.9108 C20.9283703,0.923871429 20.962695,0.93675 20.9925074,0.948878571 C21.0102503,0.948878571 21.0278836,0.960878571 21.0466341,0.967092857 C21.0875084,0.985307143 21.1306827,1.0017 21.172696,1.01901429 C21.1948198,1.02758571 21.2135703,1.03722857 21.2346208,1.04496429 C21.258957,1.05717857 21.2843446,1.06834286 21.3108931,1.077 C21.332995,1.08728571 21.3573312,1.09862143 21.3782941,1.10813571 C21.401557,1.12035 21.4235931,1.12977857 21.4457827,1.14188571 C21.994256,1.40584286 22.4995989,1.75744286 22.9673531,2.18365714 C23.1398531,2.00625 23.3200855,1.84718571 23.506977,1.70440714 C22.4841122,0.994778571 21.3252627,0.590207143 19.9883712,0.590207143 C19.8335484,0.590207143 19.6787474,0.598778571 19.5217341,0.610135714" id="path13231" fill="#7DCBEC"></path>
                <path d="M22.9675065,2.17105714 C23.2539112,2.43171429 23.528137,2.72275714 23.7879931,3.03647143 C24.0389998,2.86555714 24.287816,2.70111429 24.5377274,2.54751429 C24.2104046,2.22730714 23.8654046,1.93956429 23.5060131,1.69180714 C23.3191436,1.83355714 23.1400065,1.99365 22.9675065,2.17105714" id="path13235" fill="#5EC5ED"></path>
                <g id="g13243" transform="translate(23.448045, 1.507651) scale(-1, 1) rotate(-180.000000) translate(-23.448045, -1.507651) translate(18.472016, 0.425906)" fill="url(#linearGradient-12)">
                    <path d="M1.04938932,1.99257526 C1.20641069,2.00555621 1.3612205,2.01096494 1.5160303,2.01096494 C2.85292354,2.01096494 4.01178551,1.60639211 5.034636,0.897848789 C6.11388149,1.73079285 7.41870699,2.02178239 9.23108749,2.02178239 L0.454477355,2.02178239 C0.656835885,2.02178239 0.854771278,2.00988319 1.04938932,1.99257526" id="path13245"></path>
                </g>
                <g id="g13253" transform="translate(27.318290, 1.507651) scale(-1, 1) rotate(-180.000000) translate(-27.318290, -1.507651) translate(22.895153, 0.425906)" fill="url(#linearGradient-13)">
                    <path d="M4.80795022,2.02178239 C2.99556972,2.02178239 1.69074422,1.73079285 0.611498728,0.897848789 C0.969772847,0.650129063 1.31477755,0.362384752 1.64208971,0.0421880756 C3.1448506,0.976816212 4.63323629,1.59557465 6.10061208,1.86601104 C6.66013895,1.96877686 7.21856003,2.02178239 7.76924062,2.02178239 L4.80795022,2.02178239 Z" id="path13255"></path>
                </g>
                <g id="Group-2" transform="translate(44.247619, 0.000000)">
                    <polygon id="path12245" fill="#000000" points="12.8999027 24.2571 12.2872922 24.2571 12.2872922 26.1198643 12.0373808 26.1198643 12.0373808 24.2571 11.4225798 24.2571 11.4225798 24.0354 12.8999027 24.0354 12.8999027 24.2571"></polygon>
                    <path d="M15.4083484,26.1195214 L15.1595979,26.1195214 L15.1595979,24.7197429 C15.1595979,24.6094071 15.1683598,24.4742357 15.1799693,24.3151714 C15.154297,24.4103786 15.1330712,24.4764 15.1136198,24.51855 L14.3882217,26.1195214 L14.2665846,26.1195214 L13.5389741,24.5304857 C13.5177265,24.4863429 13.4965227,24.4147071 13.4735227,24.3151714 L13.4647608,24.3151714 C13.4735227,24.3991286 13.4763703,24.5348143 13.4763703,24.7230429 L13.4763703,26.1195214 L13.2375208,26.1195214 L13.2375208,24.0350571 L13.5670341,24.0350571 L14.2205189,25.48995 C14.2700455,25.5992571 14.3010189,25.6836214 14.3167684,25.7398714 L14.3264065,25.7398714 C14.369756,25.6252071 14.4051322,25.5397071 14.4292931,25.4834571 L15.0960303,24.0350571 L15.4100789,24.0350571 L15.4100789,26.1195214 L15.4083484,26.1195214 Z" id="path12257" fill="#000000"></path>
                    <path d="M20.8985141,0.00297857143 C17.5313579,12.7058786 10.4985712,22.9089 4.60253219,25.4812929 C4.60253219,25.4812929 4.59136076,25.4812929 4.59136076,25.4812929 C4.48411505,25.5288857 4.37794267,25.5721714 4.27290933,25.6143 C4.25845219,25.6228714 4.24530933,25.6239429 4.23415981,25.6290857 C4.20318648,25.6413 4.17444743,25.6507286 4.1434741,25.6628357 C4.12901695,25.6714071 4.1158741,25.6741929 4.10262171,25.6793357 C4.0528979,25.6966929 4.00420362,25.7113714 3.95555314,25.7304 C3.93452457,25.7389714 3.91467886,25.7443286 3.89467981,25.7511857 C3.872556,25.7597571 3.84708076,25.7676857 3.82169314,25.7745643 C3.79959124,25.7831357 3.776416,25.78935 3.75091886,25.7987786 C3.72989029,25.80735 3.70776648,25.8109929 3.68794267,25.8195643 C3.64476838,25.8317786 3.60505505,25.8420643 3.56188076,25.8567643 C3.5441379,25.8567643 3.52764362,25.8661929 3.50880552,25.8706929 C3.48225695,25.8792643 3.45235695,25.8854786 3.4236179,25.8931929 C3.40368457,25.9017643 3.38716838,25.90455 3.3661179,25.9088357 C3.3362179,25.9174071 3.30303219,25.9253357 3.27321981,25.9322143 C3.23341886,25.9407857 3.19804267,25.9487143 3.16043219,25.95645 C3.42692552,26.05275 3.70448076,26.1013929 4.00415981,26.1013929 C9.59499981,26.1013929 15.2321903,16.29975 24.5595227,0 L20.8971779,0 L20.8985141,0.00297857143 Z" id="path12741" fill="url(#linearGradient-14)"></path>
                    <path d="M7.74628171,7.03536429 C6.64160267,10.4969571 5.74701219,13.3527643 4.96856076,15.7023214 C7.99950076,11.6219786 10.9851198,6.48904286 13.8281389,0.5655 C10.5118455,1.58440714 8.7425979,3.91673571 7.74628171,7.03536429" id="path13003" fill="url(#linearGradient-15)"></path>
                    <path d="M5.06474457,25.26495 C4.90994362,25.3419643 4.75514267,25.4152714 4.60253219,25.4812929 C10.4985712,22.9089 17.5313579,12.7058786 20.8985141,0.00297857143 L20.2162027,0.00297857143 C12.4801417,13.5215143 9.99213314,22.5714 5.06474457,25.26495" id="path13093" fill="url(#linearGradient-16)"></path>
                    <path d="M18.055517,0.00297857143 L15.1871103,0.00297857143 C15.0908608,0.00297857143 14.9957503,0.00297857143 14.9018008,0.00297857143 C14.809976,0.00297857143 14.7215246,0.00297857143 14.6319998,0.00297857143 L14.6214855,0.00297857143 C14.4357112,0.01155 14.2555227,0.0177642857 14.077437,0.02895 C13.9934103,0.205328571 13.9071493,0.381685714 13.8241741,0.559092857 C10.9812427,6.48263571 7.99562362,11.6155714 4.96468362,15.6959143 C3.53931886,19.9871571 2.49325695,22.5909643 1.210536,24.1227214 C1.75900933,25.0378714 2.39705124,25.6814571 3.15561314,25.9540714 C3.17773695,25.9455 3.1954141,25.9455 3.21532552,25.941 C3.21532552,25.941 3.2262779,25.941 3.22759219,25.941 C3.2409541,25.941 3.25519219,25.9324286 3.26962743,25.9324286 C3.30057886,25.9238571 3.33376457,25.9185 3.364716,25.9090714 C3.38464933,25.9005 3.40116552,25.8996429 3.42116457,25.8934286 C3.44990362,25.8848571 3.479716,25.8786429 3.50626457,25.8717857 C3.52400743,25.8632143 3.54164076,25.8604286 3.55933981,25.857 C3.60356552,25.8430714 3.64336648,25.8327643 3.68540171,25.8197786 C3.70533505,25.8112071 3.72636362,25.8041357 3.74846552,25.7989929 C3.77280171,25.7904214 3.797116,25.7842071 3.81923981,25.7739 C3.84471505,25.7653286 3.87010267,25.7608286 3.89222648,25.7514 C3.91215981,25.7428286 3.93310076,25.7374714 3.95193886,25.7297571 C4.00164076,25.7124 4.05035695,25.6977429 4.10010267,25.6786929 C4.11346457,25.6786929 4.12665124,25.6666929 4.14106457,25.6639071 C4.17087695,25.6516929 4.20185029,25.6422643 4.23175029,25.6292786 C4.24270267,25.6207071 4.25606457,25.61985 4.27039029,25.61535 C4.37435029,25.5729429 4.481596,25.5296786 4.58886362,25.4823429 C4.58886362,25.4823429 4.60003505,25.4823429 4.60003505,25.4823429 C4.75262362,25.4165786 4.90744648,25.3427571 5.06115219,25.266 C9.989636,22.57245 12.4776884,13.5225643 20.2137493,0.00402857143 L18.0530417,0.00402857143 L18.055517,0.00297857143 Z" id="path13139" fill="url(#linearGradient-17)"></path>
                    <path d="M4.96856076,15.7044857 C5.74812933,13.3527643 6.64048552,10.4980929 7.74737695,7.03536429 C8.74481029,3.91562143 10.5107503,1.58337857 13.8269779,0.5655 C13.914575,0.391285714 13.9972874,0.211714286 14.082475,0.0353571429 C8.67624838,0.35235 6.1495341,3.0426 4.87787505,7.02672857 C2.65414743,13.9823357 1.30728933,18.4910571 0.0102207619,21.3641786 C1.66668076,19.8151071 3.32314076,17.9134071 4.96856076,15.7044857" id="path13333" fill="url(#linearGradient-18)"></path>
                </g>
            </g>
        </g>
    </g>
</svg>