<?xml version="1.0" encoding="UTF-8" standalone="no"?>
<svg width="220px" height="118px" viewBox="0 0 220 118" version="1.1" xmlns="http://www.w3.org/2000/svg" xmlns:xlink="http://www.w3.org/1999/xlink">
    <!-- Generator: Sketch 48.1 (47250) - http://www.bohemiancoding.com/sketch -->
    <title>logos/technologies/microsoft azure</title>
    <desc>Created with Sketch.</desc>
    <defs></defs>
    <g id="Symbols" stroke="none" stroke-width="1" fill="none" fill-rule="evenodd">
        <g id="logos/technologies/microsoft-azure" fill-rule="nonzero">
            <g id="Group" transform="translate(52.000000, 39.000000)">
                <g id="Microsoft">
                    <polygon id="Shape" fill="#0195C8" points="13.7393617 19.5208955 0.183191489 19.5208955 0.183191489 7.40447761 13.7393617 4.77313433"></polygon>
                    <polygon id="Shape" fill="#0195C8" points="36.8825532 19.5208955 15.1438298 19.5208955 15.1438298 4.58955224 36.8825532 0.12238806"></polygon>
                    <polygon id="Shape" fill="#0195C8" points="36.8825532 21.2343284 15.1438298 21.2343284 15.1438298 36.1656716 36.8825532 40.5716418"></polygon>
                    <polygon id="Shape" fill="#0195C8" points="13.7393617 21.2343284 0.183191489 21.2343284 0.183191489 33.2283582 13.7393617 35.8597015"></polygon>
                    <path d="M57.9495745,35.3089552 C57.033617,35.5537313 56.7282979,35.1865672 56.5451064,34.5746269 C56.2397872,33.6567164 56.1176596,32.4328358 55.3848936,31.9432836 C54.6521277,31.4537313 53.4919149,31.8208955 52.5148936,31.8208955 C50.0112766,31.8208955 49.9502128,31.8208955 48.9731915,34.3910448 C48.6678723,35.1865672 48.3014894,35.5537313 47.3855319,35.4313433 C46.5917021,35.3701493 46.8970213,35.0029851 47.0802128,34.6358209 C48.3014894,31.7597015 49.522766,28.9447761 50.6829787,26.0686567 C50.927234,25.5179104 51.1714894,24.9671642 51.4157447,24.4164179 C51.8431915,23.3761194 52.3317021,23.1313433 53.4308511,23.3761194 C53.797234,23.4373134 53.8582979,23.6820896 53.9804255,23.9880597 C55.5070213,27.5985075 56.9725532,31.1477612 58.5602128,34.758209 C58.9876596,35.7985075 58.0717021,35.2477612 57.9495745,35.3089552 Z M52.7591489,24.7835821 C52.026383,26.680597 51.4157447,28.2716418 50.7440426,29.8626866 C50.6219149,30.2298507 50.5608511,30.4746269 51.0493617,30.4746269 C52.1485106,30.4746269 53.2476596,30.4746269 54.3468085,30.4746269 C54.7131915,30.4746269 54.8353191,30.3522388 54.7131915,29.9850746 C54.1025532,28.3328358 53.4919149,26.680597 52.7591489,24.7835821 Z" id="Shape" fill="#0295C8"></path>
                    <path d="M88.97,31.5149254 C88.0540426,31.5149254 87.1380851,31.5149254 86.2221277,31.5149254 C85.5504255,31.5149254 85.367234,31.6985075 85.5504255,32.3716418 C85.7946809,33.4119403 86.5885106,34.1462687 87.7487234,34.3298507 C89.0921277,34.5746269 90.1302128,34.2074627 90.6187234,33.2283582 C90.9240426,32.6164179 91.3514894,32.6776119 91.84,32.6776119 C92.206383,32.6776119 92.3285106,32.8 92.206383,33.2283582 C91.84,34.2074627 91.1682979,34.880597 90.2523404,35.3089552 C86.832766,36.7164179 83.6574468,34.3910448 83.9017021,30.780597 C84.0848936,28.2716418 85.9168085,26.4970149 88.3593617,26.558209 C90.6797872,26.558209 92.3895745,28.3940299 92.5117021,30.9029851 C92.5117021,31.4537313 92.3895745,31.6373134 91.84,31.6373134 C90.8629787,31.4537313 89.8859574,31.5149254 88.97,31.5149254 Z M88.0540426,30.2910448 C88.7868085,30.2910448 89.5195745,30.2910448 90.2523404,30.2910448 C90.8019149,30.3522388 90.8629787,30.0462687 90.7408511,29.6179104 C90.4355319,28.5776119 89.336383,27.7208955 88.1761702,27.7208955 C86.9548936,27.7208955 85.8557447,28.5164179 85.5504255,29.6791045 C85.4282979,30.1074627 85.4282979,30.3522388 85.9778723,30.2910448 C86.6495745,30.2298507 87.3823404,30.2910448 88.0540426,30.2910448 Z" id="Shape" fill="#0295C8"></path>
                    <path d="M48.423617,6.91492537 C48.423617,10.0358209 48.423617,13.1567164 48.423617,16.338806 C48.423617,16.5835821 48.423617,16.8283582 48.423617,17.0731343 C48.423617,17.3791045 48.3625532,17.5626866 47.9961702,17.5626866 C47.6908511,17.5626866 47.6297872,17.3791045 47.6297872,17.1343284 C47.6297872,17.0119403 47.6297872,16.8895522 47.6297872,16.7671642 C47.6297872,13.2791045 47.6297872,9.85223881 47.6297872,6.3641791 C47.6297872,6.05820896 47.3855319,5.62985075 47.9961702,5.56865672 C48.4846809,5.50746269 48.79,5.62985075 49.0342553,6.11940299 C50.4997872,9.4238806 51.9653191,12.6671642 53.4919149,15.9104478 C53.6140426,16.1552239 53.7361702,16.338806 53.9193617,16.7059701 C54.53,15.3597015 55.0795745,14.1358209 55.6291489,12.8507463 C56.6061702,10.6477612 57.5831915,8.44477612 58.5602128,6.24179104 C58.6823404,5.9358209 58.7434043,5.50746269 59.2929787,5.50746269 C59.7814894,5.50746269 60.0257447,5.56865672 60.0257447,6.18059701 C60.0257447,9.72985075 60.0257447,13.2791045 60.0257447,16.8283582 C60.0257447,17.1343284 60.1478723,17.5014925 59.6593617,17.5014925 C59.1097872,17.5014925 59.2929787,17.0731343 59.2929787,16.8283582 C59.2929787,13.6462687 59.2929787,10.4641791 59.2929787,7.28208955 C59.2929787,7.15970149 59.2929787,6.9761194 59.2929787,6.79253731 C58.9265957,6.9761194 58.9265957,7.28208955 58.8044681,7.52686567 C57.4610638,10.5865672 56.1176596,13.5850746 54.7131915,16.6447761 C54.53,17.0119403 54.53,17.5626866 53.9193617,17.5626866 C53.3087234,17.5626866 53.3087234,17.0119403 53.1255319,16.6447761 C51.7821277,13.7074627 50.4997872,10.8313433 49.156383,7.89402985 C48.9731915,7.52686567 48.8510638,7.22089552 48.6678723,6.91492537 C48.5457447,6.91492537 48.4846809,6.91492537 48.423617,6.91492537 Z" id="Shape" fill="#0295C8"></path>
                    <path d="M74.6810638,34.1462687 C73.4597872,35.4925373 72.1774468,35.7985075 70.7119149,35.4925373 C69.246383,35.2477612 68.513617,34.5134328 68.3914894,33.0447761 C68.2693617,31.0865672 68.3304255,29.1283582 68.3304255,27.1701493 C68.3304255,26.4358209 68.88,26.741791 69.246383,26.680597 C69.7348936,26.619403 69.9180851,26.8029851 69.9180851,27.2925373 C69.9180851,28.8223881 69.9180851,30.4134328 69.9180851,31.9432836 C69.9180851,33.5955224 70.4676596,34.2686567 71.75,34.3910448 C73.2765957,34.4522388 74.5589362,33.4731343 74.62,31.9432836 C74.6810638,30.4746269 74.6810638,28.9447761 74.62,27.4761194 C74.62,26.9253731 74.6810638,26.619403 75.352766,26.619403 C76.0855319,26.619403 76.2076596,26.8641791 76.1465957,27.5373134 C76.0855319,29.8014925 76.1465957,32.0656716 76.0855319,34.2686567 C76.0855319,34.6358209 76.5129787,35.3089552 75.5970213,35.4313433 C74.7421277,35.5537313 74.62,35.0641791 74.6810638,34.1462687 Z" id="Shape" fill="#0295C8"></path>
                    <path d="M60.9417021,34.2074627 C62.773617,34.2074627 64.4223404,34.2074627 66.01,34.2074627 C66.4985106,34.2074627 66.9870213,34.0850746 66.9259574,34.880597 C66.9259574,35.6761194 66.376383,35.4313433 66.01,35.4313433 C63.9948936,35.4313433 61.9797872,35.4313433 59.903617,35.4313433 C59.5982979,35.4313433 59.1097872,35.6149254 58.9876596,35.1865672 C58.8655319,34.758209 58.9265957,34.3298507 59.2929787,33.9626866 C60.6974468,32.4328358 62.0408511,30.9029851 63.3842553,29.3119403 C63.7506383,28.8835821 64.0559574,28.5164179 64.5444681,28.0268657 C63.506383,27.7820896 62.5904255,27.9044776 61.6744681,27.9044776 C61.1248936,27.9044776 60.5753191,27.9044776 60.0868085,27.9044776 C59.6593617,27.9044776 59.4151064,27.8432836 59.4151064,27.2925373 C59.4151064,26.741791 59.6593617,26.680597 60.0868085,26.680597 C61.9797872,26.680597 63.872766,26.680597 65.7657447,26.680597 C66.0710638,26.680597 66.4985106,26.4970149 66.6817021,26.9253731 C66.8038298,27.3537313 66.6817021,27.7208955 66.376383,28.0268657 C64.8497872,29.7402985 63.3231915,31.5149254 61.7965957,33.2283582 C61.5523404,33.4731343 61.3691489,33.7179104 60.9417021,34.2074627 Z" id="Shape" fill="#0295C8"></path>
                    <path d="M108.693617,13.4626866 C108.693617,12.361194 108.632553,11.3208955 108.693617,10.219403 C108.754681,9.54626866 108.510426,9.30149254 107.838723,9.36268657 C107.594468,9.36268657 107.105957,9.54626866 107.044894,9.11791045 C107.044894,8.62835821 107.533404,8.8119403 107.77766,8.8119403 C108.815745,8.99552239 108.632553,8.26119403 108.632553,7.64925373 C108.632553,6.05820896 109.304255,5.3238806 110.769787,5.38507463 C111.075106,5.38507463 111.441489,5.38507463 111.502553,5.69104478 C111.502553,6.11940299 111.075106,5.9358209 110.830851,5.9358209 C109.670638,5.99701493 108.815745,7.5880597 109.487447,8.62835821 C109.609574,8.87313433 109.85383,8.8119403 110.098085,8.8119403 C110.891915,8.8119403 111.685745,8.8119403 112.479574,8.8119403 C113.029149,8.8119403 113.151277,8.62835821 113.090213,8.13880597 C113.090213,7.5880597 113.090213,7.03731343 113.090213,6.54776119 C113.090213,6.3641791 113.151277,6.18059701 113.395532,6.18059701 C113.639787,6.18059701 113.822979,6.30298507 113.822979,6.54776119 C113.822979,7.03731343 113.884043,7.52686567 113.822979,7.95522388 C113.761915,8.62835821 113.945106,8.87313433 114.677872,8.8119403 C115.044255,8.8119403 115.777021,8.50597015 115.777021,9.05671642 C115.777021,9.60746269 115.044255,9.30149254 114.677872,9.30149254 C114.128298,9.30149254 113.822979,9.4238806 113.822979,10.0970149 C113.884043,11.9328358 113.822979,13.7074627 113.822979,15.5432836 C113.822979,16.461194 114.250426,16.9507463 115.166383,16.9507463 C115.410638,16.9507463 115.777021,16.8895522 115.715957,17.2567164 C115.715957,17.6238806 115.349574,17.5014925 115.105319,17.5014925 C113.822979,17.5626866 113.090213,16.8895522 113.029149,15.6044776 C113.029149,13.7686567 113.029149,11.9328358 113.029149,10.0970149 C113.029149,9.54626866 112.845957,9.30149254 112.296383,9.36268657 C111.380426,9.48507463 110.159149,8.99552239 109.548511,9.54626866 C108.998936,10.0358209 109.426383,11.2597015 109.365319,12.1164179 C109.365319,13.6462687 109.365319,15.1761194 109.365319,16.7059701 C109.365319,17.0119403 109.548511,17.5014925 108.998936,17.5014925 C108.388298,17.5626866 108.632553,17.0119403 108.632553,16.7059701 C108.632553,15.6656716 108.693617,14.5641791 108.693617,13.4626866 Z" id="Shape" fill="#0295C8"></path>
                    <path d="M93.1223404,17.8074627 C92.1453191,17.8074627 91.2904255,17.6238806 90.5576596,17.1955224 C89.8248936,16.7671642 89.3974468,16.1552239 89.2753191,15.2985075 C89.2142553,15.1149254 89.1531915,14.8089552 89.4585106,14.7477612 C89.702766,14.6865672 89.8248936,14.8089552 89.9470213,15.0537313 C90.9240426,17.0731343 92.572766,17.7462687 94.6489362,17.0119403 C95.3817021,16.7671642 95.9312766,16.338806 95.9312766,15.4208955 C95.9312766,14.5641791 95.442766,14.0746269 94.6489362,13.8298507 C93.7329787,13.5850746 92.8170213,13.4014925 91.9010638,13.2179104 C90.1912766,12.7895522 89.3974468,11.9940299 89.4585106,10.7701493 C89.5195745,9.60746269 90.5576596,8.8119403 92.206383,8.68955224 C93.0002128,8.62835821 93.7940426,8.68955224 94.5268085,8.93432836 C95.442766,9.24029851 96.0534043,9.91343284 96.2365957,10.8925373 C96.2976596,11.0761194 96.3587234,11.3208955 96.0534043,11.3820896 C95.8091489,11.4432836 95.5648936,11.4432836 95.5038298,11.1373134 C95.3817021,10.280597 94.9542553,9.72985075 94.1604255,9.48507463 C93.1834043,9.17910448 92.206383,9.17910448 91.2904255,9.48507463 C90.6187234,9.72985075 90.1302128,10.158209 90.1302128,10.9537313 C90.1302128,11.6880597 90.5576596,12.1164179 91.2293617,12.3 C92.5117021,12.6671642 93.7940426,12.9119403 95.076383,13.2791045 C95.9923404,13.5850746 96.5419149,14.258209 96.6029787,15.2373134 C96.6640426,16.1552239 96.1144681,16.9507463 95.1374468,17.3791045 C94.9542553,17.4402985 94.7710638,17.5014925 94.5878723,17.5626866 C94.0993617,17.6850746 93.5497872,17.8074627 93.1223404,17.8074627 Z" id="Shape" fill="#0295C8"></path>
                    <path d="M80.1157447,28.2716418 C80.9095745,27.2313433 81.7034043,26.558209 82.8025532,26.4358209 C83.1689362,26.3746269 83.596383,26.3134328 83.5353191,26.8641791 C83.4742553,27.2313433 83.8406383,27.7820896 83.0468085,27.9656716 C80.9095745,28.3328358 80.1768085,29.2507463 80.1768085,31.3925373 C80.1768085,32.4940299 80.1157447,33.5343284 80.1768085,34.6358209 C80.1768085,35.2477612 79.993617,35.3701493 79.4440426,35.3701493 C78.8334043,35.3701493 78.5891489,35.2477612 78.5891489,34.5746269 C78.6502128,32.1880597 78.5891489,29.7402985 78.5891489,27.3537313 C78.5891489,26.8029851 78.7112766,26.558209 79.3219149,26.558209 C79.9325532,26.558209 80.0546809,26.8029851 80.0546809,27.3537313 C79.993617,27.5985075 80.0546809,27.8432836 80.1157447,28.2716418 Z" id="Shape" fill="#0295C8"></path>
                    <path d="M102.159787,8.62835821 C104.663404,8.62835821 106.434255,10.5253731 106.434255,13.2179104 C106.434255,15.9104478 104.663404,17.8074627 102.098723,17.7462687 C99.5951064,17.7462687 97.8242553,15.7880597 97.8242553,13.1567164 C97.8242553,10.5253731 99.5951064,8.62835821 102.159787,8.62835821 Z M105.640426,13.2179104 C105.640426,12.0552239 105.335106,10.9537313 104.419149,10.0970149 C103.381064,9.11791045 101.793404,8.87313433 100.511064,9.54626866 C98.8623404,10.4029851 98.4348936,11.8716418 98.4959574,13.6462687 C98.5570213,15.2373134 99.5340426,16.5835821 100.816383,17.0119403 C103.442128,17.8686567 105.640426,16.0940299 105.640426,13.2179104 Z" id="Shape" fill="#0295C8"></path>
                    <path d="M83.4742553,17.8074627 C80.9706383,17.8074627 79.1997872,15.9104478 79.1997872,13.2179104 C79.1997872,10.5253731 80.9706383,8.62835821 83.4742553,8.62835821 C85.9778723,8.62835821 87.7487234,10.5253731 87.7487234,13.2179104 C87.7487234,15.8492537 85.9778723,17.8074627 83.4742553,17.8074627 Z M79.9325532,13.2179104 C79.9325532,14.441791 80.36,15.5432836 81.092766,16.2164179 C82.1308511,17.1955224 83.7185106,17.5014925 85.0008511,16.8283582 C86.6495745,16.0328358 87.1380851,14.5641791 87.0770213,12.8507463 C87.0159574,11.1985075 86.1,9.79104478 84.7565957,9.30149254 C82.1919149,8.50597015 79.9325532,10.341791 79.9325532,13.2179104 Z" id="Shape" fill="#0295C8"></path>
                    <path d="M65.4604255,13.2791045 C65.5214894,15.7880597 66.8648936,17.2567164 69.1853191,17.1955224 C70.6508511,17.1343284 71.6278723,16.461194 72.116383,15.0537313 C72.2385106,14.7477612 72.2995745,14.380597 72.7270213,14.5641791 C73.0934043,14.7477612 72.8491489,15.0537313 72.7270213,15.2985075 C71.8110638,17.9910448 67.8419149,18.7253731 65.8878723,16.5835821 C64.4834043,15.1149254 64.3002128,12.361194 65.3993617,10.5253731 C66.376383,8.93432836 68.4525532,8.2 70.5287234,8.8119403 C71.6278723,9.11791045 72.4217021,9.79104478 72.7270213,10.9537313 C72.7880851,11.1373134 72.9712766,11.3820896 72.6048936,11.5044776 C72.3606383,11.5656716 72.2385106,11.5044776 72.0553191,11.2597015 C71.0782979,9.48507463 69.7348936,8.87313433 67.9640426,9.36268657 C66.4374468,9.79104478 65.4604255,11.2597015 65.4604255,13.2791045 Z" id="Shape" fill="#0295C8"></path>
                    <path d="M75.4138298,10.5865672 C76.2687234,9.4238806 77.3068085,8.93432836 78.4670213,8.8119403 C78.7112766,8.8119403 79.0165957,8.68955224 79.0165957,9.11791045 C79.0165957,9.48507463 78.7112766,9.36268657 78.5280851,9.4238806 C76.2687234,9.85223881 75.4138298,10.8925373 75.4138298,13.2179104 C75.4138298,14.441791 75.4138298,15.6656716 75.4138298,16.9507463 C75.4138298,17.1955224 75.5359574,17.5626866 75.0474468,17.5626866 C74.62,17.5626866 74.6810638,17.1955224 74.6810638,16.9507463 C74.6810638,14.441791 74.6810638,11.9328358 74.6810638,9.4238806 C74.6810638,9.17910448 74.62,8.8119403 75.0474468,8.8119403 C75.5359574,8.8119403 75.352766,9.17910448 75.4138298,9.4238806 C75.4138298,9.79104478 75.4138298,10.0970149 75.4138298,10.5865672 Z" id="Shape" fill="#0295C8"></path>
                    <path d="M62.2851064,13.0955224 C62.2851064,11.8716418 62.2851064,10.7089552 62.2851064,9.48507463 C62.2851064,9.17910448 62.2240426,8.8119403 62.7125532,8.8119403 C63.14,8.87313433 63.0178723,9.24029851 63.0178723,9.48507463 C63.0178723,11.9328358 63.0178723,14.441791 63.0178723,16.8895522 C63.0178723,17.1343284 63.2010638,17.5014925 62.7125532,17.5626866 C62.2240426,17.6238806 62.2851064,17.1955224 62.2851064,16.8895522 C62.2851064,15.6656716 62.2851064,14.380597 62.2851064,13.0955224 Z" id="Shape" fill="#0295C8"></path>
                    <path d="M63.0789362,6.42537313 C62.9568085,6.73134328 63.3231915,7.28208955 62.6514894,7.28208955 C62.1019149,7.28208955 62.2851064,6.79253731 62.2851064,6.48656716 C62.2851064,6.18059701 62.0408511,5.62985075 62.6514894,5.62985075 C63.2621277,5.62985075 62.8957447,6.11940299 63.0789362,6.42537313 Z" id="Shape" fill="#0295C8"></path>
                </g>
            </g>
        </g>
    </g>
</svg>