<?xml version="1.0" encoding="UTF-8" standalone="no"?>
<svg width="220px" height="118px" viewBox="0 0 220 118" version="1.1" xmlns="http://www.w3.org/2000/svg" xmlns:xlink="http://www.w3.org/1999/xlink">
    <!-- Generator: Sketch 48.1 (47250) - http://www.bohemiancoding.com/sketch -->
    <title>logos/technologies/node</title>
    <desc>Created with Sketch.</desc>
    <defs>
        <polygon id="path-1" points="0.0147998865 0.184881662 0.0147998865 32.9851128 66.8084141 32.9851128 66.8084141 0.184881662"></polygon>
    </defs>
    <g id="Symbols" stroke="none" stroke-width="1" fill="none" fill-rule="evenodd">
        <g id="logos/technologies/node">
            <g id="nodejs-seeklogo.com" transform="translate(53.000000, 38.000000)">
                <g id="Group-4">
                    <mask id="mask-2" fill="white">
                        <use xlink:href="#path-1"></use>
                    </mask>
                    <g id="Clip-2"></g>
                    <path d="M18.1767272,17.623985 C18.1767272,17.2694211 17.9912353,16.9436391 17.6870976,16.7679699 L9.57774652,12.0735338 C9.44060091,11.9923985 9.28692875,11.950218 9.13128328,11.9437669 C9.11722339,11.9437669 9.05876384,11.9437669 9.04741726,11.9437669 C8.89251178,11.950218 8.73883963,11.9923985 8.59972069,12.0735338 L0.490369571,16.7679699 C0.187958558,16.9436391 0,17.2694211 0,17.623985 L0.0177598638,30.2647218 C0.0177598638,30.440391 0.108532501,30.6041504 0.26245132,30.6902481 C0.412916832,30.7810602 0.598902072,30.7810602 0.748874255,30.6902481 L5.56821062,27.9142782 C5.87308828,27.7321579 6.05858019,27.4108421 6.05858019,27.0595038 L6.05858019,21.1537444 C6.05858019,20.8016617 6.24382543,20.4758797 6.54746977,20.3009549 L8.59972069,19.1119624 C8.75265285,19.0231353 8.9196449,18.9797143 9.09058359,18.9797143 C9.25757565,18.9797143 9.42925433,19.0231353 9.57774652,19.1119624 L11.6292575,20.3009549 C11.9329018,20.4758797 12.118887,20.8016617 12.118887,21.1537444 L12.118887,27.0595038 C12.118887,27.4108421 12.3068456,27.7341429 12.6097499,27.9142782 L17.427853,30.6902481 C17.5790585,30.7810602 17.767757,30.7810602 17.9174825,30.6902481 C18.0669614,30.6041504 18.1609407,30.440391 18.1609407,30.2647218 L18.1767272,17.623985" id="Fill-1" fill="#272A29" mask="url(#mask-2)"></path>
                    <path d="M60.7259075,24.2058722 C60.7259075,24.2939549 60.6790412,24.3753383 60.6033151,24.4190075 L57.8179764,26.0340226 C57.7422504,26.0779398 57.6490111,26.0779398 57.5735316,26.0340226 L54.7879464,24.4190075 C54.7122203,24.3753383 54.6656006,24.2939549 54.6656006,24.2058722 L54.6656006,20.9706316 C54.6656006,20.882797 54.7122203,20.8014135 54.7876997,20.7572481 L57.5730383,19.1390075 C57.6490111,19.0950902 57.7422504,19.0950902 57.8182231,19.1390075 L60.6035617,20.7572481 C60.6790412,20.8014135 60.7259075,20.882797 60.7259075,20.9706316 L60.7259075,24.2058722 Z M61.4784817,0.24712782 C61.3267829,0.162270677 61.1415376,0.164255639 60.9915654,0.252586466 C60.8420866,0.341165414 60.7500806,0.502691729 60.7500806,0.677368421 L60.7500806,13.1960301 C60.7500806,13.3188496 60.6844678,13.432985 60.5788953,13.4945188 C60.4728294,13.5563008 60.3418504,13.5563008 60.2357846,13.4945188 L58.2047468,12.3174361 C57.9018425,12.1417669 57.5288853,12.142015 57.225981,12.3176842 L49.1134232,17.0272556 C48.8102722,17.2031729 48.623547,17.5284586 48.623547,17.8805414 L48.623547,27.3014211 C48.623547,27.6532556 48.8102722,27.9785414 49.1131766,28.1549549 L57.225241,32.8677519 C57.5286387,33.0439173 57.9020891,33.0439173 58.2052401,32.8677519 L66.3187846,28.1549549 C66.6216889,27.9785414 66.8084141,27.6532556 66.8084141,27.3014211 L66.8084141,3.81757895 C66.8084141,3.46053383 66.6165089,3.13103008 66.3062047,2.95684962 L61.4784817,0.24712782 Z" id="Fill-3" fill="#272A29" mask="url(#mask-2)"></path>
                </g>
                <path d="M90.0607278,20.8599432 C90.3564102,20.6800696 90.5384615,20.3486968 90.5384615,19.989963 L90.5384615,17.6589533 C90.5384615,17.3007262 90.3564102,16.9688468 90.0602442,16.7889732 L82.1599877,11.9822949 C81.8628547,11.8011546 81.4958507,11.8009013 81.1979924,11.9807748 L73.2491405,16.7894799 C72.9522492,16.9691001 72.7692308,17.3012329 72.7692308,17.6607267 L72.7692308,27.2771234 C72.7692308,27.6388974 72.9544251,27.9725502 73.2542176,28.1514104 L81.1532653,32.8678986 C81.4445959,33.0421986 81.8016874,33.043972 82.0949521,32.8734721 L86.8727735,30.0907517 C87.0243621,30.002335 87.1186516,29.8356352 87.1196187,29.6542416 C87.1208275,29.4728479 87.0287139,29.3048815 86.8785759,29.2146913 L78.879678,24.4037062 C78.7302653,24.3140228 78.6383934,24.147323 78.6383934,23.9671961 L78.6383934,20.9536801 C78.6383934,20.7738065 78.7297817,20.6076135 78.8787109,20.51793 L81.3681971,19.0138321 C81.516401,18.9241487 81.6994194,18.9241487 81.8473815,19.0138321 L84.3383184,20.51793 C84.4870057,20.6076135 84.5783941,20.7738065 84.5783941,20.9536801 L84.5783941,23.324718 C84.5783941,23.504845 84.670266,23.6712914 84.8191951,23.7609748 C84.9678825,23.8509116 85.1511427,23.8501516 85.2995884,23.7599614 L90.0607278,20.8599432" id="Fill-5" fill="#272A29"></path>
                <path d="M32.9435637,11.980232 C33.2396131,11.8014611 33.6046121,11.8014611 33.9006615,11.980232 L41.8286613,16.7651912 C42.1251928,16.9439621 42.3076923,17.2745244 42.3076923,17.6325706 L42.3076923,27.2098011 C42.3076923,27.5673429 42.1251928,27.8979053 41.8289024,28.0771805 L33.9011436,32.8659218 C33.6046121,33.0446927 33.2396131,33.0446927 32.9430816,32.8659218 L25.0170104,28.0771805 C24.720961,27.8979053 24.5384615,27.5673429 24.5384615,27.2098011 L24.5384615,17.6320663 C24.5384615,17.2745244 24.720961,16.9439621 25.0174926,16.7651912 L32.9435637,11.980232" id="Fill-6" fill="#74B943"></path>
                <path d="M106.6134,32.1538462 C106.332341,32.1538462 106.052522,32.0798489 105.806689,31.9363542 L103.238459,30.4049105 C102.854949,30.1886685 103.042239,30.1121713 103.168753,30.067673 C103.680265,29.8886796 103.783957,29.8474311 104.329951,29.5354426 C104.386758,29.5031937 104.46217,29.5154433 104.520962,29.550192 L106.493832,30.7306486 C106.565523,30.7706471 106.666486,30.7706471 106.732224,30.7306486 L114.424509,26.2563133 C114.495952,26.2150648 114.542092,26.1320679 114.542092,26.046571 L114.542092,17.1004004 C114.542092,17.0129036 114.495952,16.9311566 114.422524,16.8866583 L106.733464,12.4163229 C106.662517,12.3745744 106.568004,12.3745744 106.496561,12.4163229 L98.8092371,16.8881582 C98.7345692,16.9311566 98.6874366,17.0154035 98.6874366,17.1004004 L98.6874366,26.046571 C98.6874366,26.1320679 98.7345692,26.2133149 98.808741,26.2538134 L100.915815,27.4807682 C102.059153,28.056747 102.759195,27.378272 102.759195,26.6965471 L102.759195,17.8638723 C102.759195,17.7391269 102.858918,17.6406305 102.982703,17.6406305 L103.958099,17.6406305 C104.080148,17.6406305 104.181111,17.7391269 104.181111,17.8638723 L104.181111,26.6965471 C104.181111,28.2344905 103.350089,29.116208 101.903367,29.116208 C101.458832,29.116208 101.108811,29.116208 100.13143,28.6309759 L98.1144036,27.4607689 C97.6162867,27.1702796 97.3076923,26.6277996 97.3076923,26.046571 L97.3076923,17.1004004 C97.3076923,16.5191718 97.6162867,15.9764418 98.1144036,15.6874524 L105.806689,11.2081173 C106.293395,10.9306276 106.940351,10.9306276 107.423336,11.2081173 L115.115125,15.6874524 C115.613242,15.9779417 115.923077,16.5191718 115.923077,17.1004004 L115.923077,26.046571 C115.923077,26.6277996 115.613242,27.1685297 115.115125,27.4607689 L107.423336,31.9363542 C107.177503,32.0798489 106.89818,32.1538462 106.6134,32.1538462" id="Fill-7" fill="#74B943"></path>
                <path d="M108.434063,27.0769231 C104.831697,27.0769231 104.076923,25.5426935 104.076923,24.2559997 C104.076923,24.1335865 104.182852,24.0358037 104.314798,24.0358037 L105.379393,24.0358037 C105.498064,24.0358037 105.597356,24.1151137 105.615674,24.222995 C105.776558,25.2281629 106.255493,25.7355498 108.434063,25.7355498 C110.168477,25.7355498 110.906791,25.371512 110.906791,24.5178212 C110.906791,24.0257052 110.697588,23.6604359 108.002119,23.4156094 C105.749744,23.2089601 104.356479,22.7471395 104.356479,21.0754721 C104.356479,19.534346 105.756647,18.6153846 108.104065,18.6153846 C110.741393,18.6153846 112.046252,19.4643956 112.211649,21.2865549 C112.217756,21.3493625 112.193862,21.4097071 112.14873,21.4565049 C112.103597,21.5003471 112.040943,21.5269479 111.974571,21.5269479 L110.905994,21.5269479 C110.795287,21.5269479 110.697588,21.4540419 110.675022,21.3545349 C110.418564,20.2966579 109.795205,19.958482 108.104065,19.958482 C106.210626,19.958482 105.990274,20.5705483 105.990274,21.0291669 C105.990274,21.5845831 106.250183,21.7464051 108.806804,22.0601968 C111.336611,22.3705402 112.538462,22.8099471 112.538462,24.4594471 C112.538462,26.1237254 111.042719,27.0769231 108.434063,27.0769231" id="Fill-8" fill="#74B943"></path>
                <path d="M81.9851332,20.3345059 C82.0413799,20.2987544 82.1110301,20.2987544 82.1675162,20.3345059 L83.6780393,21.2916471 C83.734286,21.3276615 83.7692308,21.3936441 83.7692308,21.4651471 L83.7692308,23.3807439 C83.7692308,23.4525098 83.734286,23.5184923 83.6780393,23.5545067 L82.1675162,24.5116479 C82.1110301,24.5473994 82.0413799,24.5473994 81.9851332,24.5116479 L80.4758068,23.5545067 C80.4193208,23.5184923 80.3846154,23.4525098 80.3846154,23.3807439 L80.3846154,21.4651471 C80.3846154,21.3936441 80.4193208,21.3276615 80.4758068,21.2916471 L81.9851332,20.3345059" id="Fill-9" fill="#74B943"></path>
                <path d="M119.522841,13.8742616 L119.744362,13.8742616 C119.925317,13.8742616 119.959299,13.7468501 119.959299,13.6729514 C119.959299,13.4780119 119.824857,13.4780119 119.750946,13.4780119 L119.522841,13.4780119 L119.522841,13.8742616 Z M119.253958,13.249733 L119.744362,13.249733 C119.912361,13.249733 120.241562,13.249733 120.241562,13.6260215 C120.241562,13.8878522 120.073563,13.941365 119.972467,13.975129 C120.167651,13.9885072 120.180819,14.1161311 120.20758,14.2972677 C120.221173,14.411301 120.241562,14.6062406 120.281491,14.673344 L119.979476,14.673344 C119.972467,14.6062406 119.925317,14.2435426 119.925317,14.2235814 C119.905777,14.1428875 119.878379,14.1027529 119.777707,14.1027529 L119.529425,14.1027529 L119.529425,14.673344 L119.253958,14.673344 L119.253958,13.249733 Z M118.666493,13.9581408 C118.666493,14.5491178 119.143304,15.0260614 119.727371,15.0260614 C120.318659,15.0260614 120.79547,14.5391372 120.79547,13.9581408 C120.79547,13.3673762 120.312075,12.8972278 119.727371,12.8972278 C119.149888,12.8972278 118.666493,13.3605809 118.666493,13.9581408 Z M121,13.9615385 C121,14.6599658 120.429101,15.2307692 119.730769,15.2307692 C119.039021,15.2307692 118.461538,14.666761 118.461538,13.9615385 C118.461538,13.24315 119.052614,12.6923077 119.730769,12.6923077 C120.415933,12.6923077 121,13.24315 121,13.9615385 Z" id="Fill-10" fill="#74B943"></path>
            </g>
        </g>
    </g>
</svg>