<?xml version="1.0" encoding="UTF-8" standalone="no"?>
<svg width="220px" height="118px" viewBox="0 0 220 118" version="1.1" xmlns="http://www.w3.org/2000/svg" xmlns:xlink="http://www.w3.org/1999/xlink">
    <!-- Generator: Sketch 48.1 (47250) - http://www.bohemiancoding.com/sketch -->
    <title>logos/technologies/php</title>
    <desc>Created with Sketch.</desc>
    <defs></defs>
    <g id="Symbols" stroke="none" stroke-width="1" fill="none" fill-rule="evenodd">
        <g id="logos/technologies/php" fill="#000000" fill-rule="nonzero">
            <g id="PHP_Logo,_text_only" transform="translate(80.000000, 44.000000)">
                <path d="M4.86273963,6.13636364 L13.9761258,6.13636364 C16.6511779,6.15859391 18.5894728,6.91297896 19.7910102,8.39958159 C20.9924835,9.88624701 21.3892533,11.9164866 20.9811913,14.4903005 C20.8224769,15.6663072 20.471088,16.8200837 19.9270309,17.9516927 C19.4055969,19.0833016 18.6801318,20.1039476 17.7506999,21.0136934 C16.6171728,22.1674699 15.404343,22.8996874 14.1121465,23.2103461 C12.8199499,23.520986 11.4823918,23.6763028 10.0995361,23.6763028 L6.01891548,23.6763028 L4.72671894,30 L0,30 L4.86273963,6.13636364 M8.84134478,9.93058197 L6.80103444,19.9153671 C6.9370423,19.9375345 7.07306299,19.9486497 7.20909651,19.9486497 L7.68516892,19.9486497 C9.86149994,19.9708172 11.6750664,19.7600503 13.1259965,19.31628 C14.5768624,18.8503296 15.551656,17.2305902 16.0504413,14.4570179 C16.4584841,12.1272347 16.050422,10.7848777 14.8262551,10.4298212 C13.6247176,10.0748213 12.1171336,9.90840821 10.3035672,9.93058197 C10.031513,9.95274945 9.77080879,9.96386459 9.52144822,9.96386459 C9.29473638,9.96387715 9.05670017,9.96387715 8.80733961,9.96386459 L8.84134478,9.93058197" id="path8"></path>
                <path d="M25.9117009,0 L30.4880658,0 L29.1947452,6.34812611 L33.3068412,6.34812611 C35.5618616,6.39246203 37.242052,6.85776343 38.347475,7.74404913 C39.4749852,8.63039126 39.8066058,10.314341 39.3423369,12.795961 L37.1204786,23.8636364 L32.4777896,23.8636364 L34.6001617,13.2945049 C34.8212088,12.1866713 34.7548972,11.400038 34.4011893,10.9347303 C34.047444,10.4694352 33.2846915,10.2367688 32.1130069,10.2367688 L28.4320178,10.2035325 L25.7127285,23.8636364 L21.1363636,23.8636364 L25.9117009,0" id="path10"></path>
                <path d="M44.4081942,6.13636364 L53.5215803,6.13636364 C56.1966325,6.15859391 58.1349273,6.91297896 59.3364648,8.39958159 C60.5379381,9.88624701 60.9347079,11.9164866 60.5266458,14.4903005 C60.3679315,15.6663072 60.016549,16.8200837 59.4724855,17.9516927 C58.9510514,19.0833016 58.2255864,20.1039476 57.2961544,21.0136934 C56.1626273,22.1674699 54.9497976,22.8996874 53.657601,23.2103461 C52.3654045,23.520986 51.0278463,23.6763028 49.6449907,23.6763028 L45.56437,23.6763028 L44.2721735,30 L39.5454545,30 L44.4081942,6.13636364 M48.3867993,9.93058197 L46.346489,19.9153671 C46.4825033,19.9375345 46.618524,19.9486497 46.7545511,19.9486497 L47.2306235,19.9486497 C49.4069545,19.9708172 51.2205209,19.7600503 52.671451,19.31628 C54.122317,18.8503296 55.0971105,17.2305902 55.5958958,14.4570179 C56.0039387,12.1272347 55.5958766,10.7848777 54.3717096,10.4298212 C53.1701722,10.0748213 51.6625881,9.90840821 49.8490217,9.93058197 C49.5769675,9.95274945 49.3162633,9.96386459 49.0669028,9.96386459 C48.8401909,9.96387715 48.6021547,9.96387715 48.3527942,9.96386459 L48.3867993,9.93058197" id="path12"></path>
            </g>
        </g>
    </g>
</svg>