<?xml version="1.0" encoding="UTF-8" standalone="no"?>
<svg width="220px" height="118px" viewBox="0 0 220 118" version="1.1" xmlns="http://www.w3.org/2000/svg" xmlns:xlink="http://www.w3.org/1999/xlink">
    <!-- Generator: Sketch 48.1 (47250) - http://www.bohemiancoding.com/sketch -->
    <title>logos/technologies/python</title>
    <desc>Created with Sketch.</desc>
    <defs>
        <polygon id="path-1" points="0.00011282218 0.303761287 23.2581772 0.303761287 23.2581772 23.7883851 0.00011282218 23.7883851"></polygon>
        <polygon id="path-3" points="5.88273974 3.24653164 5.88273974 0.181273108 0.114993555 0.181273108 0.114993555 3.24653164 5.88273974 3.24653164"></polygon>
    </defs>
    <g id="Symbols" stroke="none" stroke-width="1" fill="none" fill-rule="evenodd">
        <g id="logos/technologies/python">
            <g id="Group" transform="translate(45.000000, 43.000000)">
                <g id="Page-1">
                    <path d="M53.1531448,16.5715344 C53.1531448,18.6401394 52.6660679,20.3566563 51.6863116,21.7217822 C50.5938028,23.2674841 49.0800478,24.0629941 47.1446965,24.1065694 C45.6855669,24.1529335 44.1830171,23.6980077 42.6363468,22.7438837 L42.6363468,31.5764159 L40.1344316,30.687829 L40.1344316,11.0827938 C40.5448227,10.5815039 41.0732188,10.1513289 41.7140173,9.78599388 C43.2029107,8.9221578 45.0122033,8.47803868 47.1418952,8.45607675 L47.1776118,8.49163417 C49.1238182,8.46688341 50.6239168,9.26274208 51.6779077,10.8760727 C52.6604653,12.3558888 53.1531448,14.2522844 53.1531448,16.5715344 M50.2762049,16.4024623 C50.2762049,12.331138 49.1101618,10.2409197 46.7780757,10.1265782 C45.8501436,10.0830029 44.9439215,10.230113 44.062561,10.5706973 C43.3590834,10.8213422 42.8853128,11.0695469 42.6363468,11.3201919 L42.6363468,21.0381735 C44.1283917,21.969987 45.4530586,22.4032994 46.6082466,22.335322 C49.0527351,22.1742678 50.2762049,20.1987395 50.2762049,16.4024623" id="Fill-1" fill="#646464"></path>
                    <path d="M68.4440661,22.3680557 C68.4440661,25.1422315 68.1649861,27.0633778 67.606476,28.1318434 C67.0455148,29.1999603 65.9782177,30.0529897 64.4010832,30.6877942 C63.1226378,31.1894326 61.740194,31.4620395 60.2569032,31.508055 L59.8433606,29.9386482 C61.3518631,29.7343674 62.4135576,29.5297379 63.0298446,29.3251085 C64.2424593,28.9165468 65.0744468,28.2897601 65.5314096,27.4503262 C65.8983805,26.7663688 66.0790647,25.4608538 66.0790647,23.5289008 L66.0790647,22.8801523 C64.3681679,23.654049 62.5753329,24.0385571 60.7002096,24.0385571 C59.4683359,24.0385571 58.3817799,23.654049 57.4454438,22.8801523 C56.3942542,22.0382781 55.8690096,20.9698126 55.8690096,19.6754529 L55.8690096,9.3090713 L58.3705746,8.45604189 L58.3705746,18.8907495 C58.3705746,20.0052305 58.7322931,20.8638375 59.4546795,21.4658734 C60.1774161,22.0682579 61.113402,22.3572491 62.2605363,22.3352871 C63.4073204,22.3105364 64.6363928,21.8692061 65.9421509,21.00537 L65.9421509,8.83218359 L68.4440661,8.83218359 L68.4440661,22.3680557 Z" id="Fill-3" fill="#646464"></path>
                    <path d="M78.2109898,23.9704751 C77.9123007,23.9948773 77.6388233,24.005684 77.3867059,24.005684 C75.9716969,24.005684 74.8686832,23.6706773 74.080116,22.9975266 C73.2947002,22.3243759 72.9007667,21.3950026 72.9007667,20.2097554 L72.9007667,10.3990456 L71.1867184,10.3990456 L71.1867184,8.83207901 L72.9007667,8.83207901 L72.9007667,4.67081537 L75.3998806,3.78501736 L75.3998806,8.83207901 L78.2109898,8.83207901 L78.2109898,10.3990456 L75.3998806,10.3990456 L75.3998806,20.1414293 C75.3998806,21.0760316 75.6512977,21.7383757 76.1551824,22.1256727 C76.5876338,22.444295 77.2746537,22.6269625 78.2109898,22.6733266 L78.2109898,23.9704751 Z" id="Fill-5" fill="#646464"></path>
                    <path d="M93.3593248,23.7658806 L90.8574096,23.7658806 L90.8574096,14.1514338 C90.8574096,13.1732562 90.6273524,12.3313821 90.1707398,11.6282516 C89.6423437,10.8323929 88.9084019,10.4346379 87.9671635,10.4346379 C86.8200293,10.4346379 85.3857613,11.0366737 83.6640094,12.2410941 L83.6640094,23.7658806 L81.1620942,23.7658806 L81.1620942,0.784633676 L83.6640094,-6.97204262e-05 L83.6640094,10.4674065 C85.2625039,9.30900158 87.0091173,8.72857903 88.9056006,8.72857903 C90.2306177,8.72857903 91.3038675,9.17304675 92.1253501,10.0584962 C92.9489336,10.9439456 93.3593248,12.0479685 93.3593248,13.3667304 L93.3593248,23.7658806 Z" id="Fill-7" fill="#646464"></path>
                    <path d="M109.397739,16.0264949 C109.397739,18.2530167 108.825573,20.1061857 107.684041,21.5856531 C106.428006,23.2429076 104.692248,24.0739751 102.477466,24.0739751 C100.282294,24.0739751 98.5713972,23.2429076 97.3370723,21.5856531 C96.2172508,20.1061857 95.6590908,18.2530167 95.6590908,16.0264949 C95.6590908,13.9338363 96.2638225,12.173047 97.4736359,10.739595 C98.7524315,9.21899251 100.432514,8.45625105 102.510382,8.45625105 C104.5886,8.45625105 106.279887,9.21899251 107.582844,10.739595 C108.792657,12.173047 109.397739,13.9338363 109.397739,16.0264949 M106.657713,16.0101106 C106.657713,14.4459329 106.359024,13.154362 105.765147,12.1322605 C105.058869,10.8870537 103.961457,10.2299387 102.477466,10.1619613 C99.7346389,10.3202266 98.3662016,12.2765818 98.3662016,16.0264949 C98.3662016,17.7461492 98.6512344,19.18239 99.225852,20.3348687 C99.9594436,21.803878 101.059656,22.5286219 102.527189,22.5042197 C105.280872,22.4826064 106.657713,20.318833 106.657713,16.0101106" id="Fill-9" fill="#646464"></path>
                    <path d="M123.741434,23.7658806 L121.239519,23.7658806 L121.239519,13.6065687 C121.239519,12.4920876 120.903013,11.6230225 120.229649,10.9958873 C119.556285,10.3718895 118.658117,10.0693028 117.538646,10.093705 C116.350893,10.1156669 115.220216,10.5029639 114.146966,11.2521099 L114.146966,23.7658806 L111.645051,23.7658806 L111.645051,10.9439456 C113.084921,9.9005794 114.410289,9.21906223 115.619752,8.90043988 C116.760933,8.60308227 117.768353,8.45632077 118.636407,8.45632077 C119.230284,8.45632077 119.788794,8.51314292 120.314038,8.62783302 C121.297296,8.8540758 122.096368,9.27344416 122.712305,9.88942413 C123.398975,10.5705927 123.741434,11.3884133 123.741434,12.3449775 L123.741434,23.7658806 Z" id="Fill-11" fill="#646464"></path>
                    <g>
                        <g id="Group-3" transform="translate(0.000000, 0.048771)">
                            <mask id="mask-2" fill="white">
                                <use xlink:href="#path-1"></use>
                            </mask>
                            <g id="Clip-2"></g>
                            <path d="M11.4234683,2.62658368 C12.2061293,2.62658368 12.8453671,3.27639321 12.8453671,4.07491186 C12.8453671,4.87096377 12.2061293,5.51478265 11.4234683,5.51478265 C10.6379881,5.51478265 10.0015694,4.87096377 10.0015694,4.07491186 C10.0015694,3.27639321 10.6379881,2.62658368 11.4234683,2.62658368 M15.5214265,0.303972722 C14.2260362,0.309963374 12.9887904,0.420261846 11.9002537,0.613019878 C8.69349299,1.17966506 8.11134259,2.36510934 8.11134259,4.55204966 L8.11134259,7.44024862 L15.6891648,7.44024862 L15.6891648,8.40298161 L8.11134259,8.40298161 L5.26754492,8.40298161 C3.06509939,8.40298161 1.13681428,9.72656328 0.533520405,12.2447514 C-0.162099991,15.1311884 -0.193110424,16.9322603 0.533520405,19.9462629 C1.07197429,22.1899382 2.35855487,23.7883851 4.56100039,23.7883851 L7.16622916,23.7883851 L7.16622916,20.3261407 C7.16622916,17.8248674 9.33061643,15.6185456 11.9002537,15.6185456 L19.4696185,15.6185456 C21.576566,15.6185456 23.2581772,13.8837233 23.2581772,11.7676136 L23.2581772,4.55204966 C23.2581772,2.49866564 21.5258216,0.955544207 19.4696185,0.613019878 C18.1675327,0.396299238 16.8168169,0.297629679 15.5214265,0.303972722" id="Fill-1" fill="#32679E" mask="url(#mask-2)"></path>
                        </g>
                        <path d="M19.9464039,26.7250379 C20.731884,26.7250379 21.3683027,27.3685043 21.3683027,28.1645563 C21.3683027,28.9634273 20.731884,29.6128844 19.9464039,29.6128844 C19.1637428,29.6128844 18.524505,28.9634273 18.524505,28.1645563 C18.524505,27.3685043 19.1637428,26.7250379 19.9464039,26.7250379 Z M24.2032906,8.45178781 L24.2032906,11.8164198 C24.2032906,14.4255249 21.9916829,16.621275 19.4692661,16.621275 L11.9002537,16.621275 C9.82713575,16.621275 8.11134259,18.3955651 8.11134259,20.4722069 L8.11134259,27.6877708 C8.11134259,29.7415073 9.89690922,30.9495046 11.9002537,31.5383504 C14.2989811,32.2438378 16.5990391,32.3714034 19.4692661,31.5383504 C21.3771125,30.9865057 23.2581772,29.8747112 23.2581772,27.6877708 L23.2581772,24.7995719 L15.6891648,24.7995719 L15.6891648,23.8371913 L23.2581772,23.8371913 L27.0470883,23.8371913 C29.2495338,23.8371913 30.0702531,22.3007653 30.8363517,19.9950691 C31.6274702,17.6213614 31.5936406,15.3385707 30.8363517,12.2935576 C30.2919072,10.1013314 29.2523529,8.45178781 27.0470883,8.45178781 L24.2032906,8.45178781 Z" id="Fill-4" fill="#FCCC2F"></path>
                    </g>
                    <g id="Group-19" transform="translate(127.459361, 3.364987)">
                        <mask id="mask-4" fill="white">
                            <use xlink:href="#path-3"></use>
                        </mask>
                        <g id="Clip-18"></g>
                        <path d="M3.02099695,3.24653164 L3.39567145,3.24653164 L3.39567145,0.744962754 L4.20945045,3.24618304 L4.62649467,3.24618304 L5.47423949,0.753329205 L5.47423949,3.24653164 L5.8828798,3.24653164 L5.8828798,0.181273108 L5.34187785,0.181273108 L4.4156965,2.80729296 L3.62572859,0.181273108 L3.02099695,0.181273108 L3.02099695,3.24653164 Z M1.15427758,3.24653164 L1.59303191,3.24653164 L1.59303191,0.507913305 L2.63231594,0.507913305 L2.63231594,0.181273108 L0.114993555,0.181273108 L0.114993555,0.507913305 L1.15427758,0.507913305 L1.15427758,3.24653164 Z" id="Fill-17" fill="#646464" mask="url(#mask-4)"></path>
                    </g>
                </g>
            </g>
        </g>
    </g>
</svg>