<?xml version="1.0" encoding="UTF-8" standalone="no"?>
<svg width="220px" height="118px" viewBox="0 0 220 118" version="1.1" xmlns="http://www.w3.org/2000/svg" xmlns:xlink="http://www.w3.org/1999/xlink">
    <!-- Generator: Sketch 48.1 (47250) - http://www.bohemiancoding.com/sketch -->
    <title>logos/technologies/rails</title>
    <desc>Created with Sketch.</desc>
    <defs></defs>
    <g id="Symbols" stroke="none" stroke-width="1" fill="none" fill-rule="evenodd">
        <g id="logos/technologies/rails" fill="#CC0000" fill-rule="nonzero">
            <g id="Group" transform="translate(61.000000, 42.000000)">
                <g id="rails-logo">
                    <path d="M85.279798,30.375 L85.279798,34.9 C85.279798,34.9 91.0707071,34.9 93.3722222,34.9 C95.030303,34.9 97.8762626,33.675 97.9752525,30.25 C97.9752525,30.1 97.9752525,28.625 97.9752525,28.5 C97.9752525,25.575 95.5994949,23.85 93.3722222,23.85 C92.3328283,23.85 89.3383838,23.85 89.3383838,23.85 L89.3383838,21.75 L97.3318182,21.75 L97.3318182,17.2 C97.3318182,17.2 91.8378788,17.2 89.660101,17.2 C87.680303,17.2 85.0323232,18.85 85.0323232,21.925 C85.0323232,22.225 85.0323232,23.225 85.0323232,23.5 C85.0323232,26.575 87.6555556,28.15 89.660101,28.15 C95.2282828,28.175 88.3237374,28.15 93.4712121,28.15 C93.4712121,30.35 93.4712121,30.35 93.4712121,30.35" id="Shape"></path>
                    <path d="M41.9222222,29.275 C41.9222222,29.275 46.2530303,28.9 46.2530303,23.25 C46.2530303,17.6 41.0065657,17.075 41.0065657,17.075 L31.5530303,17.075 L31.5530303,34.9 L36.3045455,34.9 L36.3045455,30.6 L40.4126263,34.9 L47.4409091,34.9 L41.9222222,29.275 Z M40.0909091,25.625 L36.3045455,25.625 L36.3045455,21.55 L40.1156566,21.55 C40.1156566,21.55 41.179798,21.95 41.179798,23.575 C41.179798,25.2 40.0909091,25.625 40.0909091,25.625 Z" id="Shape"></path>
                    <path d="M57.9833333,17.2 C56.7707071,17.2 56.5974747,17.2 53.1575758,17.2 C49.7176768,17.2 48.5545455,20.35 48.5545455,21.85 C48.5545455,25.1 48.5545455,34.9 48.5545455,34.9 L53.380303,34.9 L53.380303,31.775 L57.9090909,31.775 L57.9090909,34.9 L62.5863636,34.9 C62.5863636,34.9 62.5863636,25.275 62.5863636,21.85 C62.5863636,18.05 59.1712121,17.2 57.9833333,17.2 Z M57.9090909,26.725 L53.3555556,26.725 L53.3555556,22.4 C53.3555556,22.4 53.3555556,21.425 54.8651515,21.425 C56.2510101,21.425 55.1126263,21.425 56.5232323,21.425 C57.859596,21.425 57.8843434,22.4 57.8843434,22.4 L57.8843434,26.725 L57.9090909,26.725 Z" id="Shape"></path>
                    <rect id="Rectangle-path" x="64.7888889" y="17.2" width="5.02373737" height="17.7"></rect>
                    <polygon id="Shape" points="76.8656566 30.325 76.8656566 17.2 71.8666667 17.2 71.8666667 30.325 71.8666667 34.9 76.8656566 34.9 83.6217172 34.9 83.6217172 30.325"></polygon>
                    <path d="M1.73232323,34.9 L21.2828283,34.9 C21.2828283,34.9 17.5459596,17.675 29.919697,10.7 C32.6171717,9.375 41.2045455,4.425 55.2611111,14.925 C55.7065657,14.55 56.1272727,14.25 56.1272727,14.25 C56.1272727,14.25 43.2585859,1.275 28.929798,2.725 C21.7282828,3.375 12.8686869,10 7.67171717,18.75 C2.47474747,27.5 1.73232323,34.9 1.73232323,34.9 Z" id="Shape"></path>
                    <path d="M1.73232323,34.9 L21.2828283,34.9 C21.2828283,34.9 17.5459596,17.675 29.919697,10.7 C32.6171717,9.375 41.2045455,4.425 55.2611111,14.925 C55.7065657,14.55 56.1272727,14.25 56.1272727,14.25 C56.1272727,14.25 43.2585859,1.275 28.929798,2.725 C21.7282828,3.375 12.8686869,10 7.67171717,18.75 C2.47474747,27.5 1.73232323,34.9 1.73232323,34.9 Z" id="Shape"></path>
                    <path d="M1.73232323,34.9 L21.2828283,34.9 C21.2828283,34.9 17.5459596,17.675 29.919697,10.7 C32.6171717,9.375 41.2045455,4.425 55.2611111,14.925 C55.7065657,14.55 56.1272727,14.25 56.1272727,14.25 C56.1272727,14.25 43.2585859,1.275 28.929798,2.725 C21.7035354,3.375 12.8439394,10 7.6469697,18.75 C2.45,27.5 1.73232323,34.9 1.73232323,34.9 Z" id="Shape"></path>
                    <path d="M42.4666667,4.125 L42.5656566,2.45 C42.3429293,2.325 41.7242424,2.025 40.1651515,1.575 L40.0661616,3.225 C40.8828283,3.5 41.6747475,3.8 42.4666667,4.125 Z" id="Shape"></path>
                    <path d="M40.1156566,9.425 L40.0166667,11 C40.8333333,11.025 41.65,11.125 42.4666667,11.3 L42.5656566,9.75 C41.7242424,9.575 40.9075758,9.475 40.1156566,9.425 Z" id="Shape"></path>
                    <path d="M30.9590909,1.625 C31.0333333,1.625 31.1323232,1.625 31.2065657,1.625 L30.7116162,0.1 C29.9444444,0.1 29.1525253,0.15 28.3358586,0.25 L28.8060606,1.725 C29.5237374,1.65 30.2414141,1.625 30.9590909,1.625 Z" id="Shape"></path>
                    <path d="M32.1469697,10.825 L32.7161616,12.55 C33.4338384,12.2 34.1515152,11.9 34.8691919,11.675 L34.3247475,10.025 C33.4833333,10.275 32.7656566,10.55 32.1469697,10.825 Z" id="Shape"></path>
                    <path d="M20.9116162,4.25 L19.7979798,2.525 C19.1792929,2.85 18.5358586,3.2 17.8676768,3.6 L19.0060606,5.35 C19.6494949,4.95 20.2681818,4.575 20.9116162,4.25 Z" id="Shape"></path>
                    <path d="M25.9848485,15.5 L27.1727273,17.3 C27.5934343,16.675 28.0883838,16.1 28.6328283,15.525 L27.5191919,13.825 C26.95,14.35 26.430303,14.925 25.9848485,15.5 Z" id="Shape"></path>
                    <path d="M22.3964646,23.55 L24.4010101,25.15 C24.5,24.175 24.6732323,23.2 24.9207071,22.225 L23.1388889,20.8 C22.8171717,21.725 22.5944444,22.65 22.3964646,23.55 Z" id="Shape"></path>
                    <path d="M11.5570707,11.675 L9.8,10.125 C9.15656566,10.75 8.53787879,11.375 7.96868687,12 L9.87424242,13.65 C10.3939394,12.975 10.9631313,12.3 11.5570707,11.675 Z" id="Shape"></path>
                    <path d="M4.08333333,22.85 L1.23737374,21.8 C0.767171717,22.875 0.247474747,24.125 0,24.8 L2.8459596,25.85 C3.16767677,25 3.68737374,23.775 4.08333333,22.85 Z" id="Shape"></path>
                    <path d="M22.0252525,29.9 C22.0747475,31.225 22.1984848,32.3 22.3222222,33.05 L25.2919192,34.125 C25.0691919,33.15 24.8464646,32.05 24.6979798,30.875 L22.0252525,29.9 Z" id="Shape"></path>
                </g>
            </g>
        </g>
    </g>
</svg>