<?xml version="1.0" encoding="UTF-8" standalone="no"?>
<svg width="220px" height="118px" viewBox="0 0 220 118" version="1.1" xmlns="http://www.w3.org/2000/svg" xmlns:xlink="http://www.w3.org/1999/xlink">
    <!-- Generator: Sketch 48.1 (47250) - http://www.bohemiancoding.com/sketch -->
    <title>logos/technologies/react native</title>
    <desc>Created with Sketch.</desc>
    <defs></defs>
    <g id="Symbols" stroke="none" stroke-width="1" fill="none" fill-rule="evenodd">
        <g id="logos/technologies/react-native">
            <g id="logo-react" transform="translate(33.000000, 43.000000)">
                <g id="Group-2">
                    <g id="Group">
                        <ellipse id="circle4488" fill="#05A5CD" fill-rule="nonzero" cx="17.7209868" cy="15.8007462" rx="3.2986794" ry="3.31796992"></ellipse>
                        <path d="M11.8824877,12.4471222 C14.0950533,8.58807565 16.701019,5.32241161 19.1759233,3.15598161 C22.1578717,0.545757755 24.9956043,-0.476528371 26.5255664,0.410910142 C28.1199922,1.33571875 28.6982182,4.49918566 27.845073,8.66472964 C27.2000097,11.8141134 25.6597741,15.557152 23.5594608,19.220499 C21.4061032,22.9763731 18.9402464,26.2853473 16.4990136,28.4317402 C13.4098352,31.1479166 10.4233519,32.1307985 8.85938104,31.2236442 C7.3418524,30.3433389 6.7614424,27.4589747 7.48947424,23.6023074 C8.10461238,20.3436606 9.64830155,16.3439395 11.8824877,12.4471222 Z" id="path4492" stroke="#05A5CD" stroke-width="2"></path>
                        <path d="M11.8880807,19.2302866 C9.66915721,15.3749432 8.15779574,11.4731042 7.52780318,8.23443273 C6.76873762,4.33232838 7.30541991,1.34882717 8.83394263,0.458805052 C10.4267584,-0.468731747 13.4403376,0.607217883 16.6021163,3.4310569 C18.9926621,5.56601049 21.447407,8.77749547 23.5538191,12.4373376 C25.7134409,16.1895718 27.3321048,19.9909435 27.9617129,23.1902622 C28.7584348,27.2387994 28.1135356,30.3321635 26.5510777,31.241964 C25.0349886,32.1247787 22.2607111,31.1901135 19.3024255,28.6295601 C16.8029223,26.4661058 14.1287706,23.1233316 11.8880807,19.2302866 Z" id="path4494" stroke="#05A5D1" stroke-width="2"></path>
                        <path d="M17.7209868,9.05461634 C22.1499037,9.05461634 26.264282,9.69384657 29.3664682,10.7680664 C33.1041925,12.0623336 35.4022907,14.0242641 35.4022907,15.8007432 C35.4022907,17.6520261 32.9666982,19.7361814 28.9529529,21.0738316 C25.9183256,22.0851571 21.9252189,22.6130056 17.7209868,22.6130056 C13.4105554,22.6130056 9.32881746,22.1174994 6.26073417,21.0626517 C2.37821773,19.7278485 0.0396808932,17.6166404 0.0396808932,15.8007432 C0.0396808932,14.0386823 2.23388451,12.0919612 5.91907426,10.7996153 C9.03285152,9.70773443 13.2487964,9.05461634 17.7209868,9.05461634 Z" id="path4490" stroke="#05A5D1" stroke-width="2"></path>
                    </g>
                    <path d="M52.5642525,15.2166252 C53.4434036,15.2166252 54.1388645,15.0384253 54.6506561,14.68202 C55.1624476,14.3256148 55.4183396,13.6828221 55.4183396,12.7536226 C55.4183396,11.754415 55.0604048,11.0734366 54.3445246,10.710667 C53.9614659,10.5197356 53.4496821,10.4242713 52.8091577,10.4242713 L48.2313151,10.4242713 L48.2313151,15.2166252 L52.5642525,15.2166252 Z M46.3568487,8.79181613 L52.7620605,8.79181613 C53.8170419,8.79181613 54.6867605,8.94774109 55.3712424,9.25959569 C56.6711302,9.85784738 57.3210643,10.9620507 57.3210643,12.5722387 C57.3210643,13.4123368 57.1499464,14.0996795 56.8077054,14.6342874 C56.4654644,15.1688953 55.9866482,15.5984845 55.3712424,15.9230678 C55.9112924,16.1458211 56.3178937,16.4385782 56.5910585,16.8013478 C56.8642233,17.1641175 57.0165026,17.7528138 57.0479008,18.5674544 L57.1138368,20.4481191 C57.1326758,20.982727 57.1766327,21.3804948 57.2457088,21.6414343 C57.3587426,22.0869409 57.5596884,22.3733337 57.8485523,22.5006213 L57.8485523,22.8156565 L55.5502116,22.8156565 C55.4874151,22.6947333 55.4371786,22.5388083 55.3995007,22.347877 C55.3618228,22.1569456 55.330425,21.7878171 55.3053064,21.2404804 L55.1922733,18.9015826 C55.1483157,17.9851119 54.8123594,17.3709585 54.1843943,17.0591039 C53.8264543,16.8872657 53.2644339,16.8013478 52.4983165,16.8013478 L48.2313151,16.8013478 L48.2313151,22.8156565 L46.3568487,22.8156565 L46.3568487,8.79181613 Z M66.1188112,12.8729542 C66.7907338,13.2134485 67.3025177,13.6541751 67.6541781,14.1951474 C67.9932793,14.7106622 68.2193433,15.312087 68.332377,15.99944 C68.4328514,16.4704041 68.4830879,17.2213896 68.4830879,18.2524191 L61.088836,18.2524191 C61.1202342,19.289813 61.3619971,20.1219432 61.814132,20.7488346 C62.2662669,21.375726 62.9664374,21.689167 63.9146647,21.689167 C64.8000955,21.689167 65.5065456,21.3932277 66.0340363,20.8013404 C66.3354595,20.4576639 66.5489645,20.0598962 66.6745575,19.6080252 L68.3417964,19.6080252 C68.2978389,19.9835236 68.1518392,20.4019753 67.903793,20.8633928 C67.6557468,21.3248103 67.3778764,21.7018942 67.0701735,21.9946556 C66.5552421,22.503806 65.9178671,22.8474774 65.1580294,23.02568 C64.7498521,23.1275101 64.2883047,23.1784243 63.7733733,23.1784243 C62.5174431,23.1784243 61.4530583,22.7154227 60.5801868,21.7894054 C59.7073153,20.8633882 59.2708861,19.5666653 59.2708861,17.8991978 C59.2708861,16.2571879 59.7104551,14.9238704 60.5896062,13.8992052 C61.4687573,12.8745401 62.6179162,12.3622152 64.0371173,12.3622152 C64.7529975,12.3622152 65.4468885,12.5324598 66.1188112,12.8729542 Z M66.7404935,16.8872665 C66.6714173,16.1426341 66.5112886,15.5475735 66.2601026,15.102067 C65.7954084,14.2746976 65.0198832,13.8610192 63.9335036,13.8610192 C63.1548269,13.8610192 62.501753,14.1458209 61.9742623,14.7154328 C61.4467716,15.2850448 61.1673314,16.0089821 61.1359331,16.8872665 L66.7404935,16.8872665 Z M72.4015704,21.26912 C72.7595105,21.5555171 73.1833806,21.6987135 73.6731934,21.6987135 C74.2697602,21.6987135 74.8474794,21.5586992 75.4063684,21.2786665 C76.348316,20.8140668 76.8192827,20.0535348 76.8192827,18.9970478 L76.8192827,17.6128022 C76.6120543,17.7464542 76.3451731,17.8578291 76.0186313,17.9469304 C75.6920894,18.0360318 75.371832,18.0996746 75.0578495,18.1378609 L74.0311317,18.2715122 C73.4157259,18.3542491 72.9541785,18.4847169 72.6464756,18.6629196 C72.1252646,18.9620454 71.864663,19.4393667 71.864663,20.0948978 C71.864663,20.5913194 72.0436303,20.9827229 72.4015704,21.26912 Z M75.9715341,16.6199639 C76.3608725,16.5690489 76.6214741,16.4035775 76.7533467,16.1235448 C76.8287025,15.9707997 76.8663799,15.7512319 76.8663799,15.4648348 C76.8663799,14.8793119 76.6607244,14.4544959 76.2494073,14.1903742 C75.8380901,13.9262524 75.2493817,13.7941935 74.4832643,13.7941935 C73.5978335,13.7941935 72.9698779,14.0360363 72.5993785,14.5197292 C72.39215,14.7870331 72.2571395,15.1848009 72.194343,15.7130444 L70.6118789,15.7130444 C70.6432771,14.4528972 71.0467387,13.5762171 71.8222755,13.0829776 C72.5978124,12.5897382 73.4973589,12.3431222 74.520942,12.3431222 C75.707796,12.3431222 76.671708,12.5722364 77.4127068,13.0304718 C78.1474259,13.4887071 78.51478,14.2015069 78.51478,15.1688926 L78.51478,21.0590965 C78.51478,21.2372991 78.5508874,21.3804955 78.6231034,21.48869 C78.6953194,21.5968845 78.8475987,21.6509809 79.0799457,21.6509809 C79.1553016,21.6509809 79.2400756,21.6462077 79.3342703,21.6366611 C79.4284651,21.6271145 79.528938,21.6127949 79.6356921,21.5937017 L79.6356921,22.8633891 C79.3719467,22.9397617 79.1710009,22.9874938 79.0328486,23.0065869 C78.8946963,23.0256801 78.7063096,23.0352265 78.4676828,23.0352265 C77.8836753,23.0352265 77.4598052,22.8252051 77.1960599,22.4051561 C77.0579076,22.1824028 76.9605745,21.8673707 76.9040576,21.4600504 C76.5586768,21.9182858 76.0625918,22.3160535 75.4157878,22.6533656 C74.7689837,22.9906778 74.0562541,23.1593313 73.2775774,23.1593313 C72.3419094,23.1593313 71.5773733,22.8713474 70.9839463,22.2953711 C70.3905193,21.7193947 70.0938103,20.9986395 70.0938103,20.1330839 C70.0938103,19.1847914 70.3858097,18.4497165 70.9698172,17.9278374 C71.5538247,17.4059583 72.3199306,17.0845619 73.2681579,16.9636387 L75.9715341,16.6199639 Z M87.9577578,13.1354835 C88.6704981,13.6955489 89.0990779,14.659738 89.2435099,16.0280796 L87.5951098,16.0280796 C87.4946353,15.398006 87.2654315,14.8745436 86.9074914,14.4576768 C86.5495513,14.0408099 85.9749719,13.8323796 85.1837359,13.8323796 C84.1036359,13.8323796 83.3312505,14.3669795 82.8665563,15.4361952 C82.565133,16.1299126 82.4144237,16.9859088 82.4144237,18.0042096 C82.4144237,19.0288747 82.6279286,19.8912352 83.0549449,20.591317 C83.4819611,21.2913987 84.1538737,21.6414343 85.0707027,21.6414343 C85.7740236,21.6414343 86.3313343,21.4234576 86.7426514,20.9874976 C87.1539685,20.5515376 87.4381185,19.954886 87.5951098,19.1975248 L89.2435099,19.1975248 C89.0551203,20.5531376 88.5841536,21.5443749 87.8305955,22.1712663 C87.0770374,22.7981577 86.1131254,23.1115987 84.9388307,23.1115987 C83.620104,23.1115987 82.5682783,22.6231399 81.7833219,21.6462076 C80.9983656,20.6692753 80.6058933,19.4489238 80.6058933,17.9851165 C80.6058933,16.1903615 81.0360429,14.7934011 81.8963551,13.7941935 C82.7566672,12.7949859 83.8524499,12.2953896 85.1837359,12.2953896 C86.3203527,12.2953896 87.2450174,12.5754181 87.9577578,13.1354835 Z M91.2781066,9.73692178 L92.9924427,9.73692178 L92.9924427,12.5913318 L94.6031651,12.5913318 L94.6031651,13.9946705 L92.9924427,13.9946705 L92.9924427,20.6676891 C92.9924427,21.0240944 93.1117543,21.262755 93.350381,21.3836783 C93.4822537,21.4536864 93.7020381,21.48869 94.009741,21.48869 C94.0913765,21.48869 94.1792903,21.4870989 94.2734851,21.4839167 C94.3676798,21.4807345 94.4775721,21.4727792 94.6031651,21.4600504 L94.6031651,22.8156565 C94.4084959,22.8729359 94.2059802,22.9143038 93.9956119,22.9397613 C93.7852436,22.9652188 93.5576097,22.9779474 93.3127033,22.9779474 C92.5214673,22.9779474 91.9845652,22.7726992 91.7019809,22.3621967 C91.4193966,21.9516942 91.2781066,21.4186854 91.2781066,20.7631543 L91.2781066,13.9946705 L89.9122893,13.9946705 L89.9122893,12.5913318 L91.2781066,12.5913318 L91.2781066,9.73692178 Z M101.884384,8.79181613 L104.09795,8.79181613 L111.087166,20.152177 L111.087166,8.79181613 L112.867438,8.79181613 L112.867438,22.8156565 L110.766906,22.8156565 L103.674075,11.4648422 L103.674075,22.8156565 L101.884384,22.8156565 L101.884384,8.79181613 Z M117.426442,21.26912 C117.784382,21.5555171 118.208252,21.6987135 118.698065,21.6987135 C119.294632,21.6987135 119.872351,21.5586992 120.43124,21.2786665 C121.373188,20.8140668 121.844154,20.0535348 121.844154,18.9970478 L121.844154,17.6128022 C121.636926,17.7464542 121.370045,17.8578291 121.043503,17.9469304 C120.716961,18.0360318 120.396704,18.0996746 120.082721,18.1378609 L119.056003,18.2715122 C118.440598,18.3542491 117.97905,18.4847169 117.671347,18.6629196 C117.150136,18.9620454 116.889535,19.4393667 116.889535,20.0948978 C116.889535,20.5913194 117.068502,20.9827229 117.426442,21.26912 Z M120.996406,16.6199639 C121.385744,16.5690489 121.646346,16.4035775 121.778218,16.1235448 C121.853574,15.9707997 121.891251,15.7512319 121.891251,15.4648348 C121.891251,14.8793119 121.685596,14.4544959 121.274279,14.1903742 C120.862962,13.9262524 120.274253,13.7941935 119.508136,13.7941935 C118.622705,13.7941935 117.994749,14.0360363 117.62425,14.5197292 C117.417022,14.7870331 117.282011,15.1848009 117.219215,15.7130444 L115.636751,15.7130444 C115.668149,14.4528972 116.07161,13.5762171 116.847147,13.0829776 C117.622684,12.5897382 118.522231,12.3431222 119.545814,12.3431222 C120.732668,12.3431222 121.69658,12.5722364 122.437578,13.0304718 C123.172298,13.4887071 123.539652,14.2015069 123.539652,15.1688926 L123.539652,21.0590965 C123.539652,21.2372991 123.575759,21.3804955 123.647975,21.48869 C123.720191,21.5968845 123.87247,21.6509809 124.104817,21.6509809 C124.180173,21.6509809 124.264947,21.6462077 124.359142,21.6366611 C124.453337,21.6271145 124.55381,21.6127949 124.660564,21.5937017 L124.660564,22.8633891 C124.396818,22.9397617 124.195873,22.9874938 124.05772,23.0065869 C123.919568,23.0256801 123.731181,23.0352265 123.492554,23.0352265 C122.908547,23.0352265 122.484677,22.8252051 122.220932,22.4051561 C122.082779,22.1824028 121.985446,21.8673707 121.928929,21.4600504 C121.583548,21.9182858 121.087463,22.3160535 120.440659,22.6533656 C119.793855,22.9906778 119.081126,23.1593313 118.302449,23.1593313 C117.366781,23.1593313 116.602245,22.8713474 116.008818,22.2953711 C115.415391,21.7193947 115.118682,20.9986395 115.118682,20.1330839 C115.118682,19.1847914 115.410681,18.4497165 115.994689,17.9278374 C116.578696,17.4059583 117.344802,17.0845619 118.29303,16.9636387 L120.996406,16.6199639 Z M126.657483,9.73692178 L128.371819,9.73692178 L128.371819,12.5913318 L129.982541,12.5913318 L129.982541,13.9946705 L128.371819,13.9946705 L128.371819,20.6676891 C128.371819,21.0240944 128.49113,21.262755 128.729757,21.3836783 C128.86163,21.4536864 129.081414,21.48869 129.389117,21.48869 C129.470753,21.48869 129.558666,21.4870989 129.652861,21.4839167 C129.747056,21.4807345 129.856948,21.4727792 129.982541,21.4600504 L129.982541,22.8156565 C129.787872,22.8729359 129.585356,22.9143038 129.374988,22.9397613 C129.16462,22.9652188 128.936986,22.9779474 128.692079,22.9779474 C127.900843,22.9779474 127.363941,22.7726992 127.081357,22.3621967 C126.798773,21.9516942 126.657483,21.4186854 126.657483,20.7631543 L126.657483,13.9946705 L125.291665,13.9946705 L125.291665,12.5913318 L126.657483,12.5913318 L126.657483,9.73692178 Z M131.678038,12.6390644 L133.401794,12.6390644 L133.401794,22.8156565 L131.678038,22.8156565 L131.678038,12.6390644 Z M131.678038,8.79181613 L133.401794,8.79181613 L133.401794,10.7393066 L131.678038,10.7393066 L131.678038,8.79181613 Z M136.792789,12.5913318 L139.486745,20.9158987 L142.303155,12.5913318 L144.158782,12.5913318 L140.353333,22.8156565 L138.544802,22.8156565 L134.824128,12.5913318 L136.792789,12.5913318 Z M151.892134,12.8729542 C152.564056,13.2134485 153.07584,13.6541751 153.4275,14.1951474 C153.766602,14.7106622 153.992666,15.312087 154.105699,15.99944 C154.206174,16.4704041 154.25641,17.2213896 154.25641,18.2524191 L146.862158,18.2524191 C146.893557,19.289813 147.13532,20.1219432 147.587454,20.7488346 C148.039589,21.375726 148.73976,21.689167 149.687987,21.689167 C150.573418,21.689167 151.279868,21.3932277 151.807359,20.8013404 C152.108782,20.4576639 152.322287,20.0598962 152.44788,19.6080252 L154.115119,19.6080252 C154.071161,19.9835236 153.925162,20.4019753 153.677115,20.8633928 C153.429069,21.3248103 153.151199,21.7018942 152.843496,21.9946556 C152.328565,22.503806 151.69119,22.8474774 150.931352,23.02568 C150.523174,23.1275101 150.061627,23.1784243 149.546696,23.1784243 C148.290765,23.1784243 147.226381,22.7154227 146.353509,21.7894054 C145.480638,20.8633882 145.044208,19.5666653 145.044208,17.8991978 C145.044208,16.2571879 145.483777,14.9238704 146.362929,13.8992052 C147.24208,12.8745401 148.391239,12.3622152 149.81044,12.3622152 C150.52632,12.3622152 151.220211,12.5324598 151.892134,12.8729542 Z M152.513816,16.8872665 C152.44474,16.1426341 152.284611,15.5475735 152.033425,15.102067 C151.568731,14.2746976 150.793206,13.8610192 149.706826,13.8610192 C148.928149,13.8610192 148.275075,14.1458209 147.747585,14.7154328 C147.220094,15.2850448 146.940654,16.0089821 146.909255,16.8872665 L152.513816,16.8872665 Z" id="tspan5046" fill="#000000"></path>
                </g>
            </g>
        </g>
    </g>
</svg>