<?xml version="1.0" encoding="UTF-8" standalone="no"?>
<svg width="220px" height="118px" viewBox="0 0 220 118" version="1.1" xmlns="http://www.w3.org/2000/svg" xmlns:xlink="http://www.w3.org/1999/xlink">
    <!-- Generator: Sketch 48.1 (47250) - http://www.bohemiancoding.com/sketch -->
    <title>logos/technologies/react</title>
    <desc>Created with Sketch.</desc>
    <defs></defs>
    <g id="Symbols" stroke="none" stroke-width="1" fill="none" fill-rule="evenodd">
        <g id="logos/technologies/react">
            <g id="logo-react" transform="translate(60.000000, 42.000000)">
                <g id="Group-2">
                    <g id="Group">
                        <ellipse id="circle4488" fill="#05A5CD" fill-rule="nonzero" cx="18.5519587" cy="16.5416741" rx="3.45336095" ry="3.47355604"></ellipse>
                        <path d="M12.4396809,13.0307922 C14.755998,8.99078737 17.4841626,5.57198993 20.07512,3.30397178 C23.1968977,0.571349406 26.1676972,-0.498873721 27.7694022,0.430178525 C29.4385938,1.39835323 30.043934,4.7101613 29.1507831,9.07103581 C28.4754715,12.3681003 26.8630113,16.2866574 24.6642101,20.1217858 C22.4098774,24.0537803 19.8283917,27.5179188 17.2726847,29.7649603 C14.0386487,32.6085035 10.9121234,33.6374747 9.2748148,32.6877821 C7.68612626,31.7661976 7.0784997,28.7465798 7.84067038,24.7090659 C8.48465355,21.2976147 10.1007293,17.1103389 12.4396809,13.0307922 Z" id="path4492" stroke="#05A5CD" stroke-width="2"></path>
                        <path d="M12.4455361,20.1320324 C10.122563,16.0959045 8.54033078,12.0111006 7.88079664,8.62056144 C7.08613701,4.53547975 7.64798538,1.41207632 9.24818353,0.480319321 C10.9156896,-0.490711498 14.0705814,0.635691521 17.3806221,3.59194589 C19.8832653,5.82701164 22.453118,9.18908945 24.6583038,13.0205488 C26.9191946,16.9487326 28.6137608,20.928358 29.2728924,24.2776991 C30.1069742,28.5160801 29.4318344,31.7544981 27.7961098,32.706961 C26.2089283,33.6311726 23.3045595,32.6526791 20.2075541,29.9720563 C17.5908443,27.7071534 14.7912964,24.20763 12.4455361,20.1320324 Z" id="path4494" stroke="#05A5D1" stroke-width="2"></path>
                        <path d="M18.5519587,9.47920507 C23.1885561,9.47920507 27.4958657,10.1484101 30.7435195,11.2730022 C34.6565131,12.6279601 37.0623736,14.6818894 37.0623736,16.541671 C37.0623736,18.4797642 34.5125713,20.6616496 30.3106136,22.0620249 C27.1336868,23.1207734 22.9533355,23.6733738 18.5519587,23.6733738 C14.0394027,23.6733738 9.76626401,23.1546323 6.55431228,22.0503208 C2.48973702,20.652926 0.0415416082,18.4427193 0.0415416082,16.541671 C0.0415416082,14.6969836 2.33863574,12.658977 6.19663127,11.3060304 C9.45641965,10.1629491 13.8700585,9.47920507 18.5519587,9.47920507 Z" id="path4490" stroke="#05A5D1" stroke-width="2"></path>
                    </g>
                    <path d="M55.0290934,15.9301626 C55.9494697,15.9301626 56.6775421,15.7436065 57.2133326,15.3704887 C57.749123,14.9973709 58.0170142,14.3244364 58.0170142,13.351665 C58.0170142,12.3056026 57.6422952,11.5926918 56.892846,11.2129112 C56.4918249,11.0130266 55.9560425,10.9130859 55.2854827,10.9130859 L50.4929761,10.9130859 L50.4929761,15.9301626 L55.0290934,15.9301626 Z M48.5306122,9.20408163 L55.2361771,9.20408163 C56.3406285,9.20408163 57.25113,9.36731822 57.9677086,9.6937963 C59.3285506,10.3201012 60.0089614,11.4760827 60.0089614,13.1617757 C60.0089614,14.0412676 59.8298194,14.7608412 59.4715301,15.3205179 C59.1132408,15.8801946 58.611972,16.329928 57.9677086,16.6697317 C58.5330826,16.9029304 58.9587502,17.2094154 59.2447243,17.589196 C59.5306983,17.9689766 59.6901182,18.585278 59.7229888,19.4381187 L59.7920167,21.4069715 C59.811739,21.9666482 59.8577571,22.3830681 59.9300724,22.6562437 C60.0484065,23.1226409 60.2587751,23.4224632 60.5611844,23.5557196 L60.5611844,23.8855274 L58.15507,23.8855274 C58.0893288,23.7589339 58.0367367,23.5956973 57.997292,23.3958127 C57.9578473,23.1959282 57.9249772,22.8094906 57.8986807,22.2364882 L57.7803472,19.7879149 C57.7343284,18.8284691 57.3826185,18.1855168 56.7252069,17.8590388 C56.3504823,17.6791427 55.7621077,17.589196 54.9600656,17.589196 L50.4929761,17.589196 L50.4929761,23.8855274 L48.5306122,23.8855274 L48.5306122,9.20408163 Z M69.2192519,13.4765922 C69.9226823,13.833053 70.4584647,14.2944462 70.8266152,14.8607857 C71.1816175,15.400474 71.4182821,16.0301008 71.5366162,16.7496851 C71.6418021,17.2427337 71.6943942,18.0289344 71.6943942,19.1083109 L63.9534113,19.1083109 C63.9862819,20.1943502 64.2393816,21.0655006 64.7127179,21.7217881 C65.1860543,22.3780757 65.9190572,22.7062145 66.9117487,22.7062145 C67.8386991,22.7062145 68.578276,22.3963982 69.1305018,21.7767561 C69.4460594,21.4169639 69.6695759,21.0005441 69.8010583,20.527484 L71.5464773,20.527484 C71.5004585,20.9205902 71.3476126,21.3586639 71.087935,21.8417182 C70.8282575,22.3247725 70.5373572,22.7195386 70.2152255,23.0260282 C69.676148,23.5590536 69.0088852,23.9188404 68.2134172,24.1053993 C67.7860996,24.2120044 67.3029094,24.2653061 66.7638319,24.2653061 C65.4490086,24.2653061 64.3347127,23.7805934 63.4209106,22.8111534 C62.5071084,21.8417134 62.0502142,20.4841846 62.0502142,18.7385263 C62.0502142,17.0195193 62.5103955,15.6236799 63.4307717,14.5509662 C64.3511479,13.4782526 65.5541931,12.9419038 67.0399433,12.9419038 C67.7893926,12.9419038 68.5158215,13.1201315 69.2192519,13.4765922 Z M69.8700861,17.6791436 C69.7977709,16.8995939 69.6301334,16.2766298 69.3671688,15.8102325 C68.8806842,14.9440662 68.068793,14.5109895 66.931471,14.5109895 C66.1162806,14.5109895 65.4325828,14.8091462 64.880357,15.4054684 C64.3281313,16.0017906 64.0355875,16.7596747 64.0027169,17.6791436 L69.8700861,17.6791436 Z M75.7966221,22.2664708 C76.1713467,22.5662976 76.6150929,22.7162087 77.1278739,22.7162087 C77.752415,22.7162087 78.3572246,22.5696289 78.9423209,22.2764649 C79.9284383,21.7900792 80.4214896,20.9938844 80.4214896,19.8878567 L80.4214896,18.438701 C80.2045438,18.5786202 79.925148,18.6952178 79.583294,18.7884972 C79.24144,18.8817767 78.9061651,18.9484038 78.5774593,18.9883808 L77.5025967,19.1282992 C76.8583333,19.2149159 76.375143,19.3515016 76.0530113,19.5380605 C75.5073597,19.8512129 75.234538,20.3509168 75.234538,21.037187 C75.234538,21.5568868 75.4218975,21.966644 75.7966221,22.2664708 Z M79.5339884,17.3993066 C79.9415836,17.3460041 80.2144053,17.1727734 80.3524617,16.8796094 C80.4313511,16.7197018 80.4707952,16.489838 80.4707952,16.1900112 C80.4707952,15.577032 80.2554961,15.1322956 79.8248915,14.8557886 C79.3942869,14.5792817 78.7779728,14.4410303 77.9759307,14.4410303 C77.0489803,14.4410303 76.3915786,14.6942136 76.0037057,15.2005877 C75.7867599,15.4804261 75.6454185,15.896846 75.5796774,16.4498598 L73.9230084,16.4498598 C73.955879,15.1306219 74.3782596,14.2128325 75.1901629,13.6964641 C76.0020663,13.1800957 76.9437942,12.9219154 78.0153752,12.9219154 C79.2578831,12.9219154 80.2669948,13.1617733 81.0427404,13.6414961 C81.811912,14.121219 82.196492,14.8674434 82.196492,15.8801918 L82.196492,22.0465989 C82.196492,22.2331578 82.2342926,22.3830689 82.309895,22.4963368 C82.3854973,22.6096047 82.5449172,22.6662378 82.7881595,22.6662378 C82.8670489,22.6662378 82.9557982,22.6612408 83.0544099,22.6512466 C83.1530216,22.6412523 83.2582059,22.6262612 83.3699659,22.6062728 L83.3699659,23.9354983 C83.093853,24.0154521 82.8834845,24.0654225 82.7388539,24.0854109 C82.5942233,24.1053994 82.3970028,24.1153935 82.1471864,24.1153935 C81.5357936,24.1153935 81.0920475,23.8955238 80.8159346,23.4557778 C80.671304,23.2225792 80.5694068,22.8927746 80.5102397,22.4663543 C80.1486633,22.9460772 79.629316,23.362497 78.952182,23.7156264 C78.2750481,24.0687557 77.5288971,24.2453178 76.7137067,24.2453178 C75.7341634,24.2453178 74.9337768,23.9438298 74.3125228,23.3408448 C73.6912689,22.7378597 73.3806465,21.9833069 73.3806465,21.0771637 C73.3806465,20.0844038 73.6863383,19.3148599 74.2977311,18.7685089 C74.9091239,18.2221578 75.7111541,17.8856905 76.7038456,17.759097 L79.5339884,17.3993066 Z M92.0822696,13.7514321 C92.8284317,14.3377601 93.2771084,15.3471618 93.4283131,16.7796677 L91.7026163,16.7796677 C91.5974304,16.1200487 91.3574788,15.5720402 90.9827542,15.1356256 C90.6080296,14.699211 90.006507,14.481007 89.1781683,14.481007 C88.0474204,14.481007 87.2388162,15.0406753 86.7523317,16.1600287 C86.4367741,16.8862759 86.2789977,17.7824114 86.2789977,18.8484623 C86.2789977,19.921176 86.5025143,20.8239742 86.9495542,21.5568842 C87.396594,22.2897942 88.1000139,22.6562437 89.0598348,22.6562437 C89.7961358,22.6562437 90.3795799,22.4280456 90.8101845,21.9716425 C91.2407891,21.5152395 91.5382634,20.8906097 91.7026163,20.0977344 L93.4283131,20.0977344 C93.2310896,21.5169146 92.7380383,22.5546329 91.9491444,23.2109205 C91.1602505,23.867208 90.1511388,24.1953469 88.9217791,24.1953469 C87.5412147,24.1953469 86.4400668,23.6839833 85.6183023,22.6612407 C84.7965378,21.6384982 84.3856617,20.360922 84.3856617,18.8284739 C84.3856617,16.9495593 84.8359819,15.4870927 85.7366358,14.4410303 C86.6372897,13.3949679 87.7844557,12.8719445 89.1781683,12.8719445 C90.3680833,12.8719445 91.3361074,13.1651041 92.0822696,13.7514321 Z M95.558316,10.1935051 L97.3530407,10.1935051 L97.3530407,13.181764 L99.0392931,13.181764 L99.0392931,14.650908 L97.3530407,14.650908 L97.3530407,21.6368376 C97.3530407,22.0099554 97.4779471,22.2598073 97.7277635,22.3864009 C97.8658199,22.4596919 98.0959105,22.4963368 98.4180422,22.4963368 C98.5035057,22.4963368 98.595542,22.4946711 98.6941537,22.4913397 C98.7927654,22.4880083 98.9078107,22.4796799 99.0392931,22.4663543 L99.0392931,23.8855274 C98.8354955,23.9454928 98.6234834,23.9888004 98.4032505,24.0154517 C98.1830176,24.042103 97.9447095,24.0554284 97.688319,24.0554284 C96.8599804,24.0554284 96.2979019,23.8405558 96.0020666,23.410804 C95.7062314,22.9810523 95.558316,22.4230496 95.558316,21.7367794 L95.558316,14.650908 L94.128453,14.650908 L94.128453,13.181764 L95.558316,13.181764 L95.558316,10.1935051 Z" id="tspan5046" fill="#000000"></path>
                </g>
            </g>
        </g>
    </g>
</svg>