<?xml version="1.0" encoding="UTF-8" standalone="no"?>
<svg width="220px" height="118px" viewBox="0 0 220 118" version="1.1" xmlns="http://www.w3.org/2000/svg" xmlns:xlink="http://www.w3.org/1999/xlink">
    <!-- Generator: Sketch 48.1 (47250) - http://www.bohemiancoding.com/sketch -->
    <title>logos/technologies/se</title>
    <desc>Created with Sketch.</desc>
    <defs></defs>
    <g id="Symbols" stroke="none" stroke-width="1" fill="none" fill-rule="evenodd">
        <g id="logos/technologies/se">
            <g id="icons8-selenium" transform="translate(87.000000, 34.000000)">
                <g>
                    <g id="Group" transform="translate(0.000000, 1.305556)" fill-rule="nonzero">
                        <path d="M5.18918919,45.0416667 C2.68540541,45.0416667 0.648648649,42.9919444 0.648648649,40.4722222 L0.648648649,5.22222222 C0.648648649,2.7025 2.68540541,0.652777778 5.18918919,0.652777778 L40.2162162,0.652777778 C42.72,0.652777778 44.7567568,2.7025 44.7567568,5.22222222 L44.7567568,40.4722222 C44.7567568,42.9919444 42.72,45.0416667 40.2162162,45.0416667 L5.18918919,45.0416667 Z" id="Shape" fill="#839CB2"></path>
                        <path d="M40.2162162,1.30555556 C42.3619459,1.30555556 44.1081081,3.06283333 44.1081081,5.22222222 L44.1081081,40.4722222 C44.1081081,42.6316111 42.3619459,44.3888889 40.2162162,44.3888889 L5.18918919,44.3888889 C3.04345946,44.3888889 1.2972973,42.6316111 1.2972973,40.4722222 L1.2972973,5.22222222 C1.2972973,3.06283333 3.04345946,1.30555556 5.18918919,1.30555556 L40.2162162,1.30555556 Z M40.2162162,0 L5.18918919,0 C2.32345946,0 0,2.33825 0,5.22222222 L0,40.4722222 C0,43.3561944 2.32345946,45.6944444 5.18918919,45.6944444 L40.2162162,45.6944444 C43.0819459,45.6944444 45.4054054,43.3561944 45.4054054,40.4722222 L45.4054054,5.22222222 C45.4054054,2.33825 43.0819459,0 40.2162162,0 Z" id="Shape" fill="#66798F"></path>
                    </g>
                    <path d="M45.4054054,6.52777778 C45.4054054,4.13338889 43.7954595,2.13719444 41.6121081,1.52097222 L30.4462703,13.7788333 L24.9184865,8.21586111 L24.0687568,7.36072222 L23.1567568,8.14797222 L18.6162162,12.0646389 L17.52,13.0098611 L18.5721081,14.006 L29.5991351,24.4504444 L30.515027,25.3186389 L31.404973,24.4230278 L45.4054054,10.3321667 L45.4054054,6.52777778 Z" id="Shape" fill="#455260" fill-rule="nonzero"></path>
                    <path d="M13.7980541,38.1091667 C13.7980541,37.4838056 13.5723243,36.9942222 13.1208649,36.6443333 C12.6694054,36.2931389 11.8754595,35.9315 10.7403243,35.5568056 C9.60518919,35.1808056 8.67632432,34.8204722 7.95502703,34.4692778 C5.61081081,33.3373611 4.43805405,31.7811389 4.43805405,29.8019167 C4.43805405,28.8162222 4.72994595,27.9480278 5.31502703,27.1934167 C5.90010811,26.4388056 6.72518919,25.8526111 7.79416216,25.4348333 C8.86313514,25.01575 10.0644324,24.8055556 11.3993514,24.8055556 C12.6992432,24.8055556 13.8668108,25.0340278 14.8981622,25.4896667 C15.9308108,25.9453056 16.7312432,26.5954722 17.3033514,27.4375556 C17.8754595,28.2809444 18.1621622,28.9454722 18.1621622,30.0277778 L13.811027,30.0277778 C13.811027,29.3031944 13.5852973,29.0407778 13.1338378,28.6412778 C12.6823784,28.2417778 12.0713514,28.0433333 11.3007568,28.0433333 C10.5223784,28.0433333 9.90745946,28.21175 9.4547027,28.5498889 C9.00324324,28.8893333 8.77751351,29.3175556 8.77751351,29.8384722 C8.77751351,30.2954167 9.02659459,30.7092778 9.52345946,31.0774444 C10.0203243,31.4482222 10.8947027,31.8320556 12.1465946,32.2276389 C13.3971892,32.6219167 14.4259459,33.0488333 15.228973,33.5044722 C17.1852973,34.6128889 18.1621622,36.1403889 18.1621622,38.0869722 C18.1621622,39.6405833 17.5654054,40.8638889 16.3731892,41.7516667 C15.1770811,42.6394444 13.5411892,43.0833333 11.4616216,43.0833333 C9.99567568,43.0833333 8.66724324,42.8235278 7.47762162,42.3078333 C6.2892973,41.7908333 5.39416216,41.0819167 4.79351351,40.1810833 C4.19286486,39.28025 3.89189189,37.7279444 3.89189189,36.5555556 L8.26637838,36.5555556 C8.26637838,37.5086111 8.51805405,38.7293056 9.01751351,39.1797222 C9.51827027,39.63275 10.3342703,39.8586111 11.4603243,39.8586111 C12.1803243,39.8586111 12.7511351,39.7071667 13.1701622,39.4003611 C13.5891892,39.0948611 13.7980541,38.6627222 13.7980541,38.1091667 Z" id="Shape" fill="#FFFFFF" fill-rule="nonzero"></path>
                    <path d="M25.1662703,43.0833333 C23.4655135,43.0833333 22.0877838,42.5650278 21.036973,41.5271111 C19.9861622,40.4918056 19.4594595,39.1431667 19.4594595,37.4825 L19.4594595,37.18875 C19.4594595,36.0294167 19.6683243,35.0084722 20.0886486,34.1206944 C20.508973,33.2329167 21.1212973,32.5475 21.9282162,32.0618333 C22.7325405,31.5761667 23.6886486,31.3333333 24.7965405,31.3333333 C26.3545946,31.3333333 27.5831351,31.8281389 28.4860541,32.8151389 C29.3863784,33.8034444 29.8378378,35.1795 29.8378378,36.9459167 L29.8378378,37.8611111 L22.7027027,37.8611111 C22.8259459,38.4956111 23.1788108,39.4303889 23.5952432,39.7920278 C24.0090811,40.1562778 24.6356757,40.4722222 25.2972973,40.4722222 C26.3883243,40.4722222 27.347027,39.9695833 27.9632432,39.18625 L29.5420541,41.0936667 C29.1113514,41.7020556 28.5016216,42.1851111 27.7128649,42.5441389 C26.9241081,42.9031667 26.0756757,43.0833333 25.1662703,43.0833333 Z M24.6486486,33.9444444 C23.6380541,33.9444444 22.7027027,34.6246389 22.7027027,35.9027778 L26.5945946,35.9027778 C26.6088649,35.3374722 26.3312432,34.8322222 26.0380541,34.5228056 C25.7448649,34.2120833 25.1961081,33.9444444 24.6486486,33.9444444 Z" id="Shape" fill="#FFFFFF" fill-rule="nonzero"></path>
                    <polygon id="Shape" fill="#99C99E" fill-rule="nonzero" points="19.4594595 13.0555556 24 9.13888889 30.4864865 15.6666667 44.7567568 0 48 5.875 30.4864865 23.5"></polygon>
                </g>
            </g>
        </g>
    </g>
</svg>