<?xml version="1.0" encoding="UTF-8" standalone="no"?>
<svg width="220px" height="118px" viewBox="0 0 220 118" version="1.1" xmlns="http://www.w3.org/2000/svg" xmlns:xlink="http://www.w3.org/1999/xlink">
    <!-- Generator: Sketch 48.1 (47250) - http://www.bohemiancoding.com/sketch -->
    <title>logos/technologies/xamarin</title>
    <desc>Created with Sketch.</desc>
    <defs></defs>
    <g id="Symbols" stroke="none" stroke-width="1" fill="none" fill-rule="evenodd">
        <g id="logos/technologies/xamarin" fill="#3498DB" fill-rule="nonzero">
            <g id="xamarin" transform="translate(46.000000, 45.000000)">
                <path d="M51.2694061,22.6979759 L47.9602674,16.3898682 L44.575566,22.6979759 L40.9359556,22.6979759 L46.0963993,14.5567123 L41.4523316,6.46553608 L45.142268,6.46553608 L48.1554189,12.6127817 L51.4204947,6.46553608 L54.7956172,6.46553608 L50.0256239,14.5065502 L54.8711799,22.6979759 L51.2694061,22.6979759 Z M63.0692007,22.6979759 L63.0692007,20.9312922 L63.018801,20.9312922 C62.1204115,22.3178786 60.848482,23.0111905 59.2029021,23.0111905 C57.9351358,23.0111905 56.9360205,22.6687147 56.2055932,21.9837632 C55.4751659,21.2904514 55.1099154,20.3632737 55.1099154,19.2021928 C55.1099154,16.7129733 56.516244,15.2970884 59.3288277,14.9546127 L63.0943637,14.440899 C63.0943637,12.6951162 62.2799737,11.8222435 60.6511937,11.8222061 C59.0979396,11.8222061 57.6706847,12.2983355 56.3693186,13.2505943 L56.3693186,10.6945294 C56.8562579,10.4021784 57.5531222,10.1390886 58.459838,9.90514813 C59.3750274,9.67128228 60.2061805,9.55434935 60.9534446,9.55431203 C64.2781674,9.55434935 65.9405103,11.2249637 65.9405472,14.5661923 L65.9405472,22.6979759 L63.0691639,22.6979759 L63.0692007,22.6979759 Z M60.311143,16.8215459 C59.4463902,16.9301558 58.8376884,17.1431581 58.4850747,17.4605528 C58.1408241,17.7696245 57.9686988,18.249934 57.9686988,18.9014815 C57.9686988,19.4360586 58.1660239,19.8746038 58.5606374,20.2171168 C58.9552141,20.5511949 59.4715532,20.7182899 60.1096179,20.7182899 C60.9744076,20.7182899 61.688035,20.4217215 62.2505739,19.8286592 C62.8130759,19.2355969 63.0943637,18.4963404 63.0943637,17.6109271 L63.0943637,16.4581693 L60.311143,16.8215459 Z M84.5086025,22.6979759 L84.5086025,15.4558231 C84.5085288,14.2613381 84.3196773,13.3758875 83.9418637,12.7995459 C83.5724132,12.2148067 82.9091486,11.9224557 81.9520331,11.9224557 C81.188006,11.9224557 80.5457781,12.2732918 80.0252022,12.974964 C79.5046631,13.6682758 79.2443752,14.5077445 79.2443752,15.4934073 L79.2443752,22.6979759 L76.3352657,22.6979759 L76.3352657,15.2052365 C76.3352657,13.0167284 75.4914759,11.9224557 73.8039331,11.9224557 C73.0147429,11.9224557 72.3640414,12.2523909 71.8518655,12.9122614 C71.3481263,13.5722065 71.0962751,14.432576 71.0962751,15.4934073 L71.0962751,22.6979759 L68.1871289,22.6979759 L68.1871289,9.8676012 L71.0962751,9.8676012 L71.0962751,11.8472872 L71.1466748,11.8472872 C72.0786273,10.3186495 73.4387194,9.55434935 75.2270617,9.55434935 C76.0833777,9.55434935 76.8390049,9.77989218 77.4939432,10.2309405 C78.157171,10.6736658 78.6231472,11.287629 78.8917983,12.07283 C79.8741136,10.3938553 81.3182052,9.55434935 83.2240363,9.55434935 C86.02822,9.55434935 87.430275,11.2918091 87.4303487,14.7666914 L87.4303487,22.6979759 L84.5086025,22.6979759 Z M97.1017872,22.6979759 L97.1017872,20.9312922 L97.0513875,20.9312922 C96.1530348,22.3178786 94.8810317,23.0111905 93.2354886,23.0111905 C91.9677223,23.0111905 90.968607,22.6687147 90.2381797,21.9837632 C89.5077524,21.2904514 89.1425019,20.3632737 89.1425019,19.2021928 C89.1425019,16.7129733 90.5488305,15.2970884 93.361451,14.9546127 L97.1269502,14.440899 C97.1269502,12.6951162 96.3125602,11.8222435 94.6837802,11.8222061 C93.1305261,11.8222061 91.7032712,12.2983355 90.4019051,13.2505943 L90.4019051,10.6945294 C90.8888812,10.4021784 91.5857087,10.1390886 92.4924614,9.90514813 C93.4076139,9.67128228 94.238767,9.55434935 94.9859942,9.55431203 C98.3107539,9.55434935 99.9730968,11.2249637 99.9731337,14.5661923 L99.9731337,22.6979759 L97.1017504,22.6979759 L97.1017872,22.6979759 Z M94.3437664,16.8215459 C93.4789398,16.9301558 92.8702749,17.1431581 92.5176612,17.4605528 C92.1734106,17.7696245 92.0013221,18.249934 92.0013221,18.9014815 C92.0013221,19.4360586 92.1986104,19.8746038 92.5932239,20.2171168 C92.9878006,20.5511949 93.5041397,20.7182899 94.1422412,20.7182899 C95.0069941,20.7182899 95.7206584,20.4217215 96.2831972,19.8286592 C96.8456992,19.2355969 97.1269502,18.4963404 97.1269502,17.6109271 L97.1269502,16.4581693 L94.3437664,16.8215459 Z M109.717924,12.6867559 C109.239385,12.3944049 108.676846,12.2482107 108.030382,12.2482107 C107.190755,12.2482107 106.506564,12.6074072 105.977588,13.3257628 C105.457086,14.0441557 105.196798,14.9796937 105.196798,16.1324516 L105.196798,22.6979386 L102.287652,22.6979386 L102.287652,9.86763852 L105.196798,9.86763852 L105.196798,12.3610381 L105.247198,12.3610381 C105.868463,10.5484098 106.96834,9.6420957 108.546758,9.64205838 C109.05886,9.6420957 109.44931,9.7005435 109.717961,9.81747643 L109.717961,12.6867932 L109.717924,12.6867932 L109.717924,12.6867559 Z M112.613992,6.99828443 C112.118653,6.99828443 111.698839,6.83958708 111.354625,6.52215506 C111.010412,6.1964 110.838323,5.79961931 110.838323,5.33185028 C110.838323,4.84739788 111.010412,4.44225683 111.354625,4.11646446 C111.698876,3.79070941 112.118653,3.62783188 112.613992,3.62779456 C113.117731,3.62783188 113.541744,3.79488958 113.885958,4.12900498 C114.230172,4.45479736 114.402297,4.85572091 114.402297,5.33185028 C114.402297,5.79961931 114.230172,6.1964 113.885958,6.52215506 C113.541744,6.83958708 113.117731,6.99832175 112.613992,6.99828443 Z M111.127937,22.6979759 L111.127937,9.8676012 L114.037084,9.8676012 L114.037084,22.6979759 L111.127937,22.6979759 Z M125.031957,22.6979759 L125.031957,15.4934073 C125.031957,13.1127605 124.171367,11.9224557 122.450298,11.9224557 C121.585471,11.9224557 120.859244,12.2523909 120.271542,12.9122614 C119.69224,13.5638461 119.402589,14.3949918 119.402589,15.4056983 L119.402589,22.6979759 L116.493406,22.6979759 L116.493406,9.8676012 L119.402589,9.8676012 L119.402589,11.9224557 L119.452989,11.9224557 C120.393341,10.3436933 121.786996,9.55434935 123.634065,9.55431203 C126.505485,9.55434935 127.941103,11.3084925 127.941176,14.8168162 L127.941176,22.6979759 L125.031993,22.6979386 L125.031957,22.6979759 Z M9.44074384,0 C8.55705424,0.00186614946 7.69204347,0.50154633 7.24721448,1.26379374 L0.328454671,13.2362249 C-0.10948489,14.0005251 -0.10948489,14.9995122 0.328454671,15.7638124 L7.24717763,27.7362063 C7.69208031,28.4984537 8.55701739,28.9982831 9.440707,29 L23.2781529,29 C24.1618425,28.9981339 25.0268165,28.4984537 25.4717191,27.7362063 L32.3905158,15.7637378 C32.8284185,14.9994376 32.8283817,14.0004504 32.3905158,13.2361503 L25.471756,1.26375642 C25.0268533,0.50154633 24.1618794,0.00171685751 23.2781898,0 L9.44074384,0 Z M9.566301,7.00399485 C9.58559908,7.00212745 9.60502891,7.00212745 9.62432698,7.00399485 L12.0110921,7.00399485 C12.1167546,7.00615958 12.2192487,7.06699605 12.2719695,7.15832541 L16.3208197,14.3456135 C16.3411932,14.3811449 16.3543458,14.4207446 16.3593194,14.4613894 C16.3643387,14.4205677 16.377433,14.3811907 16.3978192,14.3456135 L20.43698,7.15832541 C20.4913954,7.06419683 20.5987159,7.00306177 20.70751,7.00399485 L23.094275,7.00399485 C23.305637,7.005861 23.4639097,7.27104084 23.3648419,7.45739452 L19.4127385,14.4999813 L23.3648787,21.5329015 C23.4733044,21.7203749 23.3111264,21.997834 23.0943119,21.9959678 L20.7075468,21.9959678 C20.5968369,21.9950348 20.4888902,21.9296449 20.4370168,21.8319706 L16.3978561,14.6446826 C16.377481,14.6091136 16.3643873,14.5697512 16.3593563,14.528944 C16.3543322,14.5697528 16.341238,14.6091166 16.3208565,14.6446826 L12.2720063,21.8319706 C12.2216435,21.926883 12.1186335,21.9916757 12.0111289,21.9959678 L9.62436382,21.9959678 C9.40754929,21.997834 9.24540813,21.7203749 9.35383382,21.5329015 L13.3059372,14.4999813 L9.35379698,7.45739452 C9.25903963,7.28735098 9.37464949,7.04027279 9.566301,7.00399485 Z" id="Shape"></path>
            </g>
        </g>
    </g>
</svg>